<svg xmlns="http://www.w3.org/2000/svg" viewBox="0 0 200.75 32"><defs><style>.cls-1{fill:#fafafa;}.cls-2{fill:#d03d43;}</style></defs><title>berita-satu</title><g id="Layer_2" data-name="Layer 2"><g id="Layer_1-2" data-name="Layer 1"><path class="cls-1" d="M2.67,0H111.73q0,16,0,31.91l-1.69,0H5.1c-.56,0-1.12,0-1.68.06A3.92,3.92,0,0,1,0,28.85c0-1.51,0-3,0-4.53Q0,13.83,0,3.34C.21,1.69,1.42.83,2.67,0ZM78.08,10.16c0,4.28,0,8.56.08,12.84,0,1.2-.53,2.84.23,3.48s2.31.12,3.51.24,1.26-.38,1.25-1.33c0-4.15,0-8.31,0-12.46,0-3.24,0-3.24,3.2-3.24,2.8,0,2.76,0,2.81-2.74,0-1-.21-1.33-1.27-1.32-4.2.06-8.39,0-12.59,0-3.16,0-3.14,0-3.06,3.12,0,.72.2,1,.95,1,1.51,0,3,0,4.54.05Zm-28.2,8.54c.19-.08.23-.17,0-.28a1.44,1.44,0,0,1,2.27.68c1.2,2.25,2.49,4.45,3.76,6.66.21.36.33.84.88.84h5.45c-1.71-2.74-3.26-5.28-4.86-7.79-.38-.6-.54-.89.3-1.31a6.08,6.08,0,0,0,3.38-7A6.3,6.3,0,0,0,54.9,5.74c-2.9,0-5.8,0-8.69,0-1.08,0-1.26.36-1.25,1.32,0,5.28,0,10.55,0,15.83,0,1.19-.55,2.82.25,3.46s2.31.14,3.51.24c.89.07,1.09-.28,1.09-1.1C49.81,23.2,49.86,21,49.88,18.71ZM19.53,15.44a3.18,3.18,0,0,1,.42-.31,5,5,0,0,0-2-9.66c-3.2,0-6.39,0-9.59,0-.7,0-1,.16-1,.93q0,9.59,0,19.18c0,.73.22,1,1,1,2.64,0,5.27,0,7.91,0a21,21,0,0,0,3.49-.12,5.46,5.46,0,0,0,4.48-5.16C24.37,18.34,22.8,16.37,19.53,15.44Zm7.14.66c0,3.07,0,6.14,0,9.22,0,1,.22,1.26,1.22,1.24,3.46-.06,6.92,0,10.38,0s3.51,0,3.36-3.61c0-.69-.25-.88-.91-.88-2.16,0-4.33,0-6.49,0-2.74,0-2.7,0-2.68-2.74,0-.91.36-1.08,1.15-1.06,1.51,0,3,0,4.54,0,3.68,0,3.64,0,3.6-3.64,0-.92-.37-1.07-1.15-1.06-1.9,0-3.81,0-5.71,0-2.56,0-2.54,0-2.43-2.6,0-.67.22-.91.9-.89,1.77,0,3.55,0,5.32,0,3.33,0,3.3,0,3.28-3.33,0-.83-.21-1.11-1.09-1.1q-6.1.07-12.2,0c-.85,0-1.12.23-1.1,1.08C26.7,9.86,26.68,13,26.68,16.09ZM86.53,26.36c.5.31.94.12,1.35.2,2.94.56,5-.31,5.67-3.46.14-.65.58-.84,1.25-.83,1.86,0,3.72,0,5.58,0,.7,0,1.21.14,1.37.85.71,3.14,2.78,4,5.72,3.45a.82.82,0,0,1,.26,0c1.08.15,1.23-.16.77-1.17-2.68-5.76-5.39-11.51-7.89-17.35-.79-1.84-1.73-2.59-3.72-2.35a1.83,1.83,0,0,0-1.8,1.23c-1.54,3.62-3.16,7.2-4.75,10.8ZM69.7,16.11c0-2.25,0-4.5,0-6.75,0-1.19.54-2.76-.24-3.48s-2.32-.1-3.51-.23c-1-.11-1.21.3-1.2,1.24,0,5.28,0,10.56,0,15.83,0,1.24-.56,2.87.24,3.61s2.4.11,3.64.23c.89.08,1.08-.3,1.06-1.11C69.67,22.34,69.7,19.23,69.7,16.11Z"/><path class="cls-2" d="M49.88,18.71l0-.28C50.11,18.54,50.08,18.63,49.88,18.71Z"/><path class="cls-2" d="M77.7,9.81c.25,0,.39.09.38.35Z"/><path class="cls-1" d="M132,19.74c-.07-.7-.65-.72-1.13-.85l-8-2c-3.34-.85-5.19-3.27-4.85-6.35a6.06,6.06,0,0,1,6.23-5.09c3.59,0,7.18,0,10.77,0a1.83,1.83,0,0,1,1.65,3,2.53,2.53,0,0,1-2.39,1.26c-2.86,0-5.71,0-8.57,0a4,4,0,0,0-1.53.19A1.7,1.7,0,0,0,123,11.43c0,.76.41,1.15,1.1,1.4a44.76,44.76,0,0,0,6.17,1.45A18.32,18.32,0,0,1,134,15.34a5.27,5.27,0,0,1,1.31,9.11A8.43,8.43,0,0,1,130,26.51c-3.72.08-7.44,0-11.16.06-.61,0-.88-.16-.82-.8s0-1,0-1.56c.05-1.48.7-2.12,2.16-2.12,3.24,0,6.49,0,9.73,0,1.52,0,1.95-.42,2.12-1.82A.43.43,0,0,0,132,19.74Z"/><path class="cls-1" d="M200.63,12.42c0,1.73,0,3.46,0,5.19a9.14,9.14,0,0,1-8.21,9c-5.43.68-9.81-2-11.17-6.69a9.84,9.84,0,0,1-.35-2.69q0-5,0-10c0-1.44.31-1.76,1.74-1.76,1.07,0,2.46-.34,3.14.19s.22,2,.23,3.08c0,3,0,6,0,9a4.6,4.6,0,0,0,5.81,4.57,4,4,0,0,0,3.3-4.07c0-3.55,0-7.1,0-10.65,0-1.79.31-2.12,2.13-2.07,1.1,0,2.57-.51,3.19.26s.17,2.07.18,3.15,0,2.34,0,3.51Z"/><path class="cls-1" d="M149.17,11.43l-5.55,13.25c-.78,1.86-1.06,2-3.1,2h-3c-.11-.5.17-.81.32-1.16,2.71-6.16,5.46-12.3,8.14-18.48a2.54,2.54,0,0,1,2.68-1.73c4.73,0,4-.3,5.75,3.76,2.37,5.46,4.71,10.94,7.09,16.39.38.88.46,1.24-.75,1.22-4.7-.08-4.08.41-5.86-4L150.3,11.38c-.1-.32-.13-.73-.58-.7S149.22,11.08,149.17,11.43Z"/><path class="cls-1" d="M165.23,10.15c-2.12,0-4.23-.07-6.35,0-.8,0-1.13-.13-1.12-1,.06-4.21-.31-3.61,3.58-3.63,5.1,0,10.2,0,15.3,0,1.79,0,1.86.07,1.87,1.8,0,2.86,0,2.86-2.88,2.86-1.25,0-2.51.05-3.76,0-.85-.05-1.08.22-1.07,1.07,0,4.45,0,8.9,0,13.35,0,2-.2,2.26-2.25,2.16-.91,0-2,.54-2.74-.43q0-7.75.09-15.49C165.93,10.21,165.74,10,165.23,10.15Z"/><path class="cls-1" d="M14.82,17.69c.73,0,1.47-.05,2.19,0a2.41,2.41,0,0,1,2.28,2.49A2.37,2.37,0,0,1,17,22.55c-1.46.08-2.93,0-4.39,0-.59,0-.75-.26-.72-.78s0-.86,0-1.29C11.92,17.67,11.92,17.67,14.82,17.69Z"/><path class="cls-1" d="M14.38,14c-2.38,0-2.38,0-2.38-2.32,0-2.18,0-2.18,2.14-2.18.69,0,1.38,0,2.07,0a2.16,2.16,0,0,1,2.11,2.18A2.19,2.19,0,0,1,16.18,14C15.59,14.08,15,14,14.38,14Z"/><path class="cls-1" d="M49.6,11.89c0-2.59,0-2.59,2.65-2.59.6,0,1.21,0,1.81,0a2.52,2.52,0,0,1,2.42,2.54,2.52,2.52,0,0,1-2.33,2.63c-1.29.1-2.59,0-3.88,0-.51,0-.69-.22-.67-.7C49.61,13.18,49.6,12.54,49.6,11.89Z"/><path class="cls-1" d="M97.55,11.55l2.21,5.91c.2.54.08.83-.55.77h-.26l-3.74-.1c0-1.28.77-2.33,1.16-3.5C96.69,13.67,97.09,12.73,97.55,11.55Z"/></g></g></svg>