<svg xmlns="http://www.w3.org/2000/svg" viewBox="0 0 326.73 31.99"><defs><style>.cls-1{fill:#fafafa;}</style></defs><title>jakarta-globe</title><g id="Layer_2" data-name="Layer 2"><g id="Layer_2-2" data-name="Layer 2"><path class="cls-1" d="M262.34,32c-1-.31-2-.42-3-.79-6.14-2.31-9.84-6.7-10.74-13.19A16,16,0,1,1,267.1,31.84c-.22,0-.48,0-.67.15ZM274.08,16a9.63,9.63,0,1,0-9.82,9.62A9.56,9.56,0,0,0,274.08,16Z"/><path class="cls-1" d="M0,21.34l5.79,0c.3,0,.39.1.42.4a4,4,0,0,0,4.15,3.61,4,4,0,0,0,3.68-4c0-4.84,0-9.67,0-14.51,0-.49-.16-.56-.59-.56-1.81,0-3.63,0-5.44,0-.41,0-.53-.1-.53-.52,0-1.54,0-3.08,0-4.62,0-.38.09-.5.49-.5q5.85,0,11.7,0c.41,0,.47.15.47.51,0,6.87,0,13.73,0,20.6A10.06,10.06,0,0,1,11,31.49,10.19,10.19,0,0,1,.23,23.62,2.1,2.1,0,0,0,0,22.74Z"/><path class="cls-1" d="M220.78,28.09a16.86,16.86,0,0,1-4.85,2.64A14.5,14.5,0,0,1,201.51,28,14.81,14.81,0,0,1,196,15.31,15.52,15.52,0,0,1,220.72,3.68c.4.29.44.44.05.8-1.21,1.13-2.38,2.31-3.54,3.49a.53.53,0,0,1-.79.09,9.5,9.5,0,1,0-6.31,17.52,9.63,9.63,0,0,0,10.38-6.31c.26-.73.25-.73-.51-.73-1.89,0-3.78,0-5.68,0-.41,0-.54-.11-.53-.52,0-1.66,0-3.32,0-5,0-.36.07-.51.48-.51q6,0,12,0c.43,0,.51.15.51.54q0,8.72,0,17.44c0,.39-.07.54-.5.54-1.68,0-3.36,0-5,0-.35,0-.48-.08-.46-.45C220.8,29.81,220.78,29,220.78,28.09Z"/><path class="cls-1" d="M139,31.52c-2.15,0-4.21,0-6.28,0-.39,0-.43-.26-.54-.49-1.77-3.79-3.55-7.58-5.29-11.38a.77.77,0,0,0-.88-.54,14.55,14.55,0,0,1-1.87,0c-.47,0-.58.13-.58.59,0,3.69,0,7.37,0,11.06,0,.55-.1.73-.69.72-1.68,0-3.35,0-5,0-.36,0-.51-.07-.5-.48q0-15,0-30c0-.41.15-.48.51-.48,3.84,0,7.69,0,11.53,0a9.26,9.26,0,0,1,8.8,7.92,9.15,9.15,0,0,1-5,9.62c-.36.2-.28.36-.15.63q2.81,6,5.6,12.08ZM123.52,9.81c0,.88,0,1.76,0,2.63,0,.39.11.49.49.49,1.66,0,3.32,0,5,0a3,3,0,0,0,.69-.08,3.1,3.1,0,0,0-.73-6.11c-1.68-.06-3.35,0-5,0-.31,0-.4.1-.4.4C123.53,8,123.52,8.92,123.52,9.81Z"/><path class="cls-1" d="M306.13,16.07c0-5,0-9.91,0-14.86,0-.48.12-.62.61-.62q9.68,0,19.37,0c.46,0,.64.08.63.59q-.05,2.52,0,5c0,.51-.16.6-.63.6-4.37,0-8.74,0-13.11,0-.59,0-.7.17-.69.72,0,1.44,0,2.89,0,4.33,0,.48.1.62.6.62,3.57,0,7.14,0,10.71,0,.53,0,.65.14.64.65,0,1.68,0,3.36,0,5,0,.45-.13.55-.56.54-3.59,0-7.18,0-10.77,0-.47,0-.63.1-.62.6q0,2.75,0,5.5c0,.51.16.59.63.59,4.35,0,8.7,0,13,0,.53,0,.64.15.63.65,0,1.7,0,3.39,0,5.09,0,.39-.11.49-.49.49q-9.74,0-19.49,0c-.51,0-.5-.23-.5-.6Q306.14,23.5,306.13,16.07Z"/><path class="cls-1" d="M283.52,16.07c0-4.93,0-9.87,0-14.8,0-.51.11-.66.64-.65,2.67,0,5.34,0,8,0A9.06,9.06,0,0,1,301,9.46a8.68,8.68,0,0,1-1.35,4.94c-.26.39,0,.5.2.69a9.32,9.32,0,0,1,1.49,12.52,9,9,0,0,1-7.48,3.9c-3.26.05-6.51,0-9.77,0-.49,0-.56-.17-.56-.6Q283.54,23.5,283.52,16.07Zm5.62,6.49c0,1.09,0,2.18,0,3.28,0,.28,0,.42.38.42,1.42,0,2.85,0,4.27,0a3.7,3.7,0,0,0-.09-7.39c-1.36,0-2.73,0-4.09,0-.35,0-.47.1-.47.46C289.16,20.38,289.14,21.47,289.14,22.57ZM289,9.35c0,1,0,2,0,3,0,.31.06.46.42.45.84,0,1.68,0,2.51,0a3.53,3.53,0,0,0,3.28-3.65,3.46,3.46,0,0,0-3.42-3.31c-.78,0-1.56,0-2.34,0-.37,0-.46.12-.46.47C289,7.32,289,8.33,289,9.35Z"/><path class="cls-1" d="M61.44,10.49l4.81-5.3L70.14.9a.67.67,0,0,1,.52-.31h8.13L76.73,2.92q-4.15,4.64-8.31,9.27a.72.72,0,0,0-.12,1Q73.48,22,78.63,30.73l.37.65a.87.87,0,0,1-.59.08c-2,0-4.1,0-6.14,0a.87.87,0,0,1-.91-.52c-2.41-4.34-4.84-8.67-7.25-13-.26-.47-.43-.56-.78-.11a3.25,3.25,0,0,1-.69.71,3.14,3.14,0,0,0-1.23,3c.08,3.1,0,6.2,0,9.3,0,.45-.11.6-.58.59-1.72,0-3.43,0-5.15,0-.37,0-.5-.09-.5-.49q0-14.95,0-29.9c0-.43.14-.51.53-.5,1.72,0,3.43,0,5.15,0,.45,0,.55.13.54.56,0,2.87,0,5.73,0,8.6Z"/><path class="cls-1" d="M36.46,12.86,34.7,16.29,27.18,31.07c-.11.22-.15.46-.51.46-2.2,0-4.4,0-6.68,0l1.53-3L31,9.82C32.52,6.89,34,4,35.5,1a.78.78,0,0,1,.71-.45c1-.16,1.53.29,2,1.24,4.53,9.72,9.13,19.4,13.71,29.1.29.61.29.61-.36.61-1.89,0-3.78,0-5.68,0a.72.72,0,0,1-.79-.49Q41,22.25,36.84,13.49A1.48,1.48,0,0,0,36.46,12.86Z"/><path class="cls-1" d="M114.27,31.52c-2.23,0-4.37,0-6.52,0-.42,0-.47-.27-.58-.52L102,19.92l-3.2-6.82c0-.08-.09-.16-.17-.3l-2,3.95L89.26,31.11c-.11.23-.19.42-.54.42-2.13,0-4.25,0-6.38,0a1.4,1.4,0,0,1-.23-.05l1.29-2.56L96.11,4c.51-1,1-2,1.53-3,.14-.29.33-.33.63-.38,1.06-.18,1.56.25,2,1.24,4.56,9.77,9.18,19.51,13.78,29.25Z"/><path class="cls-1" d="M179,12.79l-2.91,5.71q-3.22,6.32-6.43,12.65a.55.55,0,0,1-.56.38c-2.16,0-4.33,0-6.59,0,.41-.82.79-1.59,1.18-2.36l11.15-21.9C175.88,5.17,176.94,3.1,178,1a.75.75,0,0,1,.65-.43c1.15-.21,1.61.37,2.07,1.35,4.52,9.68,9.1,19.33,13.66,29,.28.6.28.6-.38.6-1.89,0-3.78,0-5.68,0a.72.72,0,0,1-.78-.5q-4.1-8.78-8.22-17.55C179.23,13.29,179.13,13.1,179,12.79Z"/><path class="cls-1" d="M156.73,19.19c0,3.92,0,7.84,0,11.76,0,.46-.11.59-.58.58-1.68,0-3.36,0-5,0-.49,0-.6-.13-.6-.61,0-7.82,0-15.65,0-23.47,0-.53-.12-.68-.66-.67-2.48,0-5,0-7.43,0-.39,0-.54-.09-.54-.51,0-1.74,0-3.47,0-5.21,0-.36.07-.5.48-.5q11.21,0,22.42,0c.39,0,.48.12.48.49q0,2.6,0,5.21c0,.4-.1.53-.51.52-2.5,0-5,0-7.49,0-.45,0-.58.11-.58.57C156.74,11.31,156.73,15.25,156.73,19.19Z"/><path class="cls-1" d="M230.3,16c0-4.94,0-9.87,0-14.81,0-.48.12-.63.61-.62,1.66,0,3.32,0,5,0,.53,0,.68.13.68.67q0,11.62,0,23.24c0,.94-.11.82.79.82,3.38,0,6.75,0,10.13,0,.46,0,.59.11.59.58q0,2.49,0,5c0,.48-.12.63-.61.63q-8.28,0-16.56,0c-.48,0-.58-.16-.58-.61Q230.31,23.45,230.3,16Z"/></g></g></svg>