<svg xmlns="http://www.w3.org/2000/svg" viewBox="0 0 275.5 49.71"><defs><style>.cls-1{fill:#fefefe;}.cls-2{fill:#fdfdfd;}</style></defs><title>kompastv</title><g id="Layer_2" data-name="Layer 2"><g id="Layer_2-2" data-name="Layer 2"><path class="cls-1" d="M275.5,12.14a9,9,0,0,0-.36,2.17c-.15,1,.05,2.26-1.6,2.28-.65,0-.78.72-1,1.21-3.64,7.34-7.3,14.68-10.89,22a1.56,1.56,0,0,1-1.74,1.11,19.35,19.35,0,0,0-3.26,0c-.91.09-1.16-.37-1.34-1.1-1.59-6.66-3.14-13.33-4.81-20-1-3.9,0-3.48-4.55-3.49-2,0-3.92,0-5.88,0-.79,0-1.1.29-1.18,1-.36,3.13-.71,6.26-1.1,9.39-.48,3.8-1,7.6-1.5,11.4a.93.93,0,0,0,0,.13c0,.87.12,2-.41,2.48s-1.75.14-2.66.17-1.56,0-2.37,0c.49-4.06,1-8.07,1.47-12.07.48-3.81,1-7.61,1.52-11.41.1-.74,0-1.16-.9-1.08a17.44,17.44,0,0,1-2.87,0c-1.3-.11-1.91.54-1.89,1.72,0,.87-.34,1-1.08,1s-1.31,0-2,0c-1.64,0-1.69-.06-1.45-1.65.17-1.11.32-2.22.52-3.32a2,2,0,0,1,2.3-1.92h26a2.1,2.1,0,0,1,2.3,1.79c1.47,6.47,2.93,12.94,4.16,19.46a6.58,6.58,0,0,1,0,1.13c.82-.29.75-1.06,1-1.57,1.77-4.42,4-8.64,6-13,.89-2,1.83-3.88,2.76-5.82a3.14,3.14,0,0,1,3.28-2C273.05,12.2,274.22,12.14,275.5,12.14Z"/><path class="cls-2" d="M122.71,16c-.51,2.38-1,4.76-1.53,7.15-1,4.9-1.95,9.81-3,14.69-.21,1,.07,1,.82,1s1.31,0,2,0c.33,0,.6.05.6.49s-.13.63-.6.63c-2.48,0-5,0-7.45,0-.47,0-.74-.16-.73-.68s.45-.41.76-.44c2.8-.2,2.8-.19,3.38-2.93,1.48-7.09,3-14.18,4.46-21.26.22-1,0-1.51-1.13-1.32a7.49,7.49,0,0,1-1.44,0c-.36,0-.84.12-.8-.53s.4-.59.82-.59h4.44c1.44,0,2.88.09,4.31,0,1-.08,1.29.31,1.39,1.18.25,2.32.54,4.64.81,7,.35,3.14.7,6.29,1.08,9.75,1.31-2.45,2.49-4.63,3.66-6.81,1.76-3.31,3.52-6.61,5.25-9.94a1.72,1.72,0,0,1,1.79-1.13c2.74.08,5.49,0,8.23,0,.36,0,.91-.28.95.49s-.56.6-1,.61c-3,.07-2.9.08-3.5,3q-2.15,10.54-4.42,21.07c-.26,1.19-.06,1.64,1.19,1.45a9.5,9.5,0,0,1,1.44,0c.39,0,.77-.07.78.56s-.39.55-.77.55H133.07c-.4,0-.78.06-.78-.56s.4-.53.79-.56c.9-.07,2,.37,2.66-.2s.52-1.68.71-2.55c1.36-6.41,2.68-12.83,4-19.25a6.89,6.89,0,0,0,0-1c-1.14,2.07-2.12,3.82-3.07,5.58q-4.73,8.75-9.43,17.52c-.37.7-.75,1.13-1.57,1s-.5-.89-.57-1.37q-1.06-7.78-2.06-15.56c-.3-2.32-.53-4.64-.79-7Z"/><path class="cls-1" d="M29.85,25.37c6.21,3,12.36,6,18.54,9a2,2,0,0,1,1.38,2.13c-.07,4,0,8,0,12,0,1.41,0,1.43-1.32.77-6.89-3.53-13.8-7-20.65-10.63a78.69,78.69,0,0,1-7-3.69c-1.39-.93-2.2-.47-3.21.37q-5.35,4.47-10.74,8.91c-1.84,1.52-3.71,3-5.55,4.52C1,49,.71,49.13.43,49A.71.71,0,0,1,0,48.23a6.92,6.92,0,0,0,0-.78q0-22.62,0-45.23C.06,1.69-.23.94.46.73s1,.42,1.37.78C4.54,3.8,7.27,6.06,10,8.36c2,1.72,4,3.48,6,5.23.74.65,1.51,1.28,2.21,2,.34.34.54.2.88,0q9.36-4.84,18.74-9.64C41.68,4,45.54,2,49.43.08c.66-.33.56.38.56.75C50,3.41,50,6,50,8.55c0,1.57,0,3.14,0,4.71a2.23,2.23,0,0,1-1.44,2.37C42.48,18.68,36.45,21.85,30.39,25A4.78,4.78,0,0,0,29.85,25.37ZM47.23,4.11c-2,2.32-3.92,4.62-5.85,7-2.17,2.63-4.31,5.28-6.45,7.93-1.07,1.32-2.12,2.66-3.18,4l-.24.36c.22.1.38.07.46-.18,3.3-1.36,6.28-3.36,9.54-4.79a1.49,1.49,0,0,0,.7-.88c1.72-4.39,3.46-8.77,5.19-13.15.36-.19.29-.45.13-.73ZM26.44,26.78c-1.9.66-3.72,1.51-5.57,2.29-6.4,2.71-12.82,5.37-19.23,8-.43.18-.83.35-.82,1,0,3.25,0,6.5,0,10,2.32-1.94,4.44-3.76,6.61-5.53,3-2.44,6.05-4.82,9.06-7.26,3.4-2.77,6.78-5.57,10.16-8.36l.24-.36C26.69,26.5,26.52,26.53,26.44,26.78ZM47.69,2.19,47.52,2,3,24.71H28.27A1.91,1.91,0,0,0,29.86,24q2.38-3,4.86-5.93c2.63-3.12,5.15-6.34,7.73-9.51C44.19,6.46,45.94,4.32,47.69,2.19Zm-29.83,14L.93,1.75v23C6.67,22,12.22,19.13,17.86,16.16ZM.83,36.59,26.64,25.7c-8.4-.21-16.74-.2-25.08-.22-.56,0-.74.15-.74.73C.85,29.61.83,33,.83,36.59Zm47.47-1.4L30,26.39c2,5,4,9.68,5.81,14.4.36.95.61,1,1.38.56C40.79,39.32,44.44,37.33,48.31,35.2ZM35.18,41.53,29,26.09c-2.85,2.28-5.66,4.56-8.5,6.8-.76.6-.6.85.21,1.25C25.48,36.54,30.22,39,35.18,41.53Zm1.65.9c4.14,2,7.95,4.28,12.06,6.11V35.82ZM49.22,2.23,43.13,17.42c2-1,3.74-1.88,5.54-2.75a.82.82,0,0,0,.55-.86C49.2,10.08,49.22,6.34,49.22,2.23Z"/><path class="cls-2" d="M61.36,13.28H58.8c-.41,0-.78,0-.76-.58s.28-.54.67-.54q5.95,0,11.89,0c.44,0,.61.12.61.59s-.29.55-.67.54h-.39c-3,0-3,0-3.57,2.82-.62,3-1.17,6-1.81,9.28l14-12.1c-1.5,0-2.65,0-3.81,0-.46,0-.73-.07-.71-.63s.36-.49.71-.49h8.63c.35,0,.71,0,.72.49s-.11.74-.57.62c-2.77-.69-4.3,1.27-6,2.79-2.54,2.24-5,4.52-7.61,6.74-.6.51-.59.86-.17,1.47,3.12,4.59,6.23,9.19,9.29,13.83.65,1,1.52.52,2.31.7.57.13,1.62-.53,1.63.53s-1.06.52-1.61.53c-3.7.06-7.41,0-11.11,0-.4,0-1.14.41-1.12-.57s.67-.49,1.06-.51c.82-.05,1.65,0,2.77,0L64.75,25.48c-.58,2.82-1.12,5.4-1.64,8-.3,1.47-.46,3-.87,4.42-.27.94.14.91.78.89s1.22,0,1.83,0a.58.58,0,0,1,.7.57c.06.5-.26.55-.65.55H53c-.38,0-.67,0-.66-.53s.19-.61.62-.59c.26,0,.52,0,.78,0,2.47,0,2.48,0,3-2.41q2.36-11.43,4.7-22.87S61.41,13.41,61.36,13.28Z"/><path class="cls-2" d="M111.84,23.2c0,7.91-7,16-14.85,17-8.39,1.14-13.56-5.77-12.3-13,1.3-7.46,5.53-12.55,12.77-14.81C105,10.06,112,14.74,111.84,23.2ZM106,21.39a14.51,14.51,0,0,0-.8-4.85c-1.26-3.62-4.36-4.65-7.5-2.46s-5,5.55-6.2,9.15c-1.35,3.93-2,8-.65,12,1.24,3.79,4.33,4.81,7.63,2.56a8.26,8.26,0,0,0,1.22-1C103.92,32.58,105.57,27.24,106,21.39Z"/><path class="cls-2" d="M161.54,12.16c2.28.08,5-.06,7.67.19,3.45.32,6.3,2.17,6.86,4.74a7.45,7.45,0,0,1-4,8.71,16,16,0,0,1-6.61,1.52,25.08,25.08,0,0,1-3.92,0c-.93-.08-1.28.25-1.44,1.11q-.89,4.64-1.87,9.26c-.19.91,0,1.23,1,1.11a8.29,8.29,0,0,1,1.57,0c.34,0,.85-.19.85.47s-.44.64-.9.64h-9.54c-.35,0-.7,0-1,0s-.5-.21-.51-.6.18-.46.52-.52c.77-.12,1.76.44,2.26-.36a6.93,6.93,0,0,0,.53-2.26c1.46-7.35,2.92-14.7,4.4-22,.14-.68,0-.86-.68-.82s-1.22,0-1.83,0c-.42,0-.89.11-.86-.61s.47-.5.83-.51Zm3.94,1.31H163.7c-.3,0-.6,0-.68.41-.73,3.8-1.46,7.61-2.22,11.41-.08.4,0,.62.36.64,2.16.1,4.35.25,6.32-.91,2.8-1.65,3.57-7,2.48-9.34C169,13.58,167.06,13.51,165.48,13.47Z"/><path class="cls-2" d="M173.83,38.77h3.34c.41,0,.77,0,.76.58s-.42.53-.79.53H170.6c-.41,0-.89.13-.86-.6s.47-.55.82-.5a2.19,2.19,0,0,0,2.37-1.26c5.57-8.4,11.22-16.75,16.81-25.15a1.54,1.54,0,0,1,1.45-.78c.71,0,.85.24.86.89,0,2.52.17,5,.22,7.56.11,5.87.2,11.75.24,17.62,0,.94.27,1.22,1.17,1.12.73-.07,1.48,0,2.22,0,.35,0,.58.08.56.51s-.16.59-.53.6c-.65,0-1.31,0-2,0-3.22,0-6.44,0-9.67,0-.4,0-1,.28-1-.56s.66-.52,1.05-.53c2.73-.06,2.7-.05,2.48-2.75-.1-1.21,0-2.44,0-3.66,0-.55,0-.88-.75-.87-2.22,0-4.44,0-6.66,0a1,1,0,0,0-.93.53C177,34.23,175.47,36.38,173.83,38.77ZM186.77,20l-.27-.11-7,10.36c2.33,0,4.44,0,6.55,0,.62,0,.7-.25.69-.77C186.76,26.28,186.77,23.12,186.77,20Z"/><path class="cls-2" d="M211.15,11.52A9.36,9.36,0,0,1,217,13.38c.42.35.71.43,1.08,0,.19-.23.44-.42.65-.64.37-.39.8-.85,1.33-.55s.19.91.12,1.39c-.25,1.67-.48,3.34-.81,5-.07.35.22,1.07-.78,1s-.66-.54-.74-1c-.63-3.44-2.42-5.37-5.59-5.71s-6,1.69-6.07,4.15A3.34,3.34,0,0,0,208,20.28c2.38,1.39,5,2.28,7.35,3.77,3.59,2.29,4.39,5.75,3.54,9.9-.62,3-4.06,6-7.21,6.51-2.93.51-5.6.18-7.85-1.93-.31-.29-.52-.34-.86,0s-1,.8-1.52,1.23a1.15,1.15,0,0,1-1.22.18c-.4-.16-.17-.63-.13-.94.25-2,.51-4,.83-6,.07-.44.06-1,.88-1s1,.41,1.09,1c.51,2.25,1.38,4.26,3.43,5.56A6.66,6.66,0,0,0,215.57,36,4.77,4.77,0,0,0,214,29.75c-2.14-1.22-4.33-2.35-6.51-3.5-3.14-1.66-4.33-4.34-4-7.76a7.86,7.86,0,0,1,6-6.75A11.14,11.14,0,0,1,211.15,11.52Z"/><path d="M47.23,4.11l.31-.51c.16.28.23.55-.13.73Z"/><path d="M32,23.16c-.08.25-.24.28-.46.18l.24-.36Z"/><path d="M26.44,26.78c.08-.25.24-.28.46-.18l-.24.36Z"/></g></g></svg>