<svg xmlns="http://www.w3.org/2000/svg" viewBox="0 0 180.85 58.14"><defs><style>.cls-1{fill:#fafafa;}</style></defs><title>kontan</title><g id="Layer_2" data-name="Layer 2"><g id="Layer_2-2" data-name="Layer 2"><path class="cls-1" d="M67,36.86C65.81,32.71,63,30.32,59,29c-2.44-.79-4.7.19-7,.06a11.44,11.44,0,0,0-12.39,9.84c-.93,5.41-.46,10.55,2.89,15.24-2,.22-2.85-1.07-3.77-2.13-5.16-5.93-10.23-11.94-15.44-17.83-1.1-1.24-.82-1.83.2-2.85q4.83-4.79,10-9.21c2.1-1.8,4.23-3.39,7.2-3.52,1.63-.07,1.62-.29,1.06-2.25-2.79,0-5.59,0-8.36-.15-1.79-.13-2.27.51-1.95,2.11a178.07,178.07,0,0,1-15.62,16c-.55.5-1,1.86-2.2.9l0-.5c.08-3.72.09-7.45.27-11.17C14,19.5,14,19.51,18,18.76c.19,0,.34-.29.51-.45.44-1.39.3-2.28-1.53-2.09-1.34.14-2.69.09-4,.12H11.4a.51.51,0,0,0-.48,0c-3.12,0-6.26-.45-9.36.24-.64.14-1.58-.36-1.5,1.07S1,18.94,1.8,18.87c2.61-.24,3.4,1,3.41,3.48.06,9.39.4,18.77,0,28.16-.1,2.39-.54,4-3.44,3.81-2.06-.12-2.16,1-1.13,2.49h.52l6.67-.06h.49l6.69,0h3.07c.39,0,.6-.09.54-.51v-1c0-.06.05-.13,0-.18a2.45,2.45,0,0,0-.13-.32c-.26-.64-.88-.49-1.31-.44-2.8.3-3.48-1.2-3.43-3.66.07-3.49-.09-7-.12-10.46,0-.91-.37-2.22.53-2.6s1.79.74,2.43,1.48Q24,47.67,31.37,56.31c1.26,1.26,2.77.3,4.15.47h2.06c1.93-.15,3.93.79,5.78-.44.48-1.57,1.19-.46,1.79-.13,7.69,4.15,17.9,1.39,21-5.82A19.89,19.89,0,0,0,67,36.86Zm-8.42,14.9A4.45,4.45,0,0,1,54.39,55a5.09,5.09,0,0,1-5-2.49A13.68,13.68,0,0,1,47.66,47a30,30,0,0,1,.23-10.92c.7-2.94,2.45-4.43,5.09-4.53s4.43,1.25,5.41,4.14A41.33,41.33,0,0,1,59.67,43l0,4.62C59.27,49,59,50.4,58.54,51.76Z"/><path class="cls-1" d="M99.18,54.63c-2,0-2.61-1.14-2.59-3,0-4.69,0-9.38,0-14.07,0-3.5-1.06-6.58-4.48-7.91s-7-1.66-10,1.17c-1,.89-2.08,1.64-3.17,2.49a3.28,3.28,0,0,1-.33-2.38c.19-2.15-.55-2.55-2.46-1.64-2.25,1.07-4.75,1.29-7.17,1.76-1,.2-2.13,0-2.1,1.59s1.26,1.08,2.06,1.12c1.37.06,1.95.59,2,2,.21,5.54.33,11.08,0,16.62-.11,1.9-1.29,2.6-2.94,2.81-1.09.14-1.1.11-.63,1.55h9.74c1.86-.2,3.82.84,5.58-.48v-1q.11-.54-.44-.47c-2.88-.11-3.85-1.54-3.67-4.43.25-3.9.11-7.84,0-11.75-.07-2.31,1.24-3.45,3.1-4.14,3.76-1.39,7,.69,7.14,4.7.17,4.17.1,8.34.13,12.51l0,.51-.06,1.53c.13,1.05-1.31,2.38.55,3.13l2.05-.06H92c2.39,0,4.77.1,7.16.12.72,0,1.55.2,1.55-1.07S100,54.64,99.18,54.63Z"/><path class="cls-1" d="M176.11,54.78c-2.29-.09-3.24-1.16-3.16-3.56.15-4.61.09-9.23,0-13.84-.07-3.46-1.16-6.55-4.7-7.79-3.38-1.18-6.84-1.5-9.84,1.25-1,.9-2.08,1.67-3.57,2.85,0-1.39,0-2.22,0-3,.08-1.53-.24-2.33-2-1.5a28.34,28.34,0,0,1-8.17,2c-1.06.15-1.46.59-1.47,1.64,0,1.29.91,1,1.59,1,1.9-.12,2.57.76,2.54,2.6-.07,5.13-.14,10.26,0,15.38.08,2.48-1.51,3.27-3.25,3.34-3.45.15-4.44-.68-4.48-3.23-.06-4.87.09-9.74,0-14.61S137,29.79,132.27,29c-4.12-.71-7.48.77-10.83,2.85a3.41,3.41,0,0,0-1.86,3.54c.06.77-.11,1.46,1,1.66,1,.17,1.2-.36,1.47-1,.37-.85.62-1.74,1.61-2.19a6.09,6.09,0,0,1,8.62,4.47c.29,1.47-.06,2.25-1.61,2.48a45.4,45.4,0,0,0-8.15,2.13c-4.08,1.4-5.58,3.29-5.55,7.51a1.92,1.92,0,0,1-1.46,2.17c-4.17,0-4.67-.3-5.63-3.5L110,34.75a38.47,38.47,0,0,1,4.35,0c1.94.19,2.31-.78,2.32-2.41,0-1.79-1.13-1.57-2.27-1.49-.77.05-1.54,0-2.3.16-1.73.26-2.23-.43-2-2.13.3-2.71.33-5.46.61-8.18.18-1.73-.38-2-1.84-1.3a25.19,25.19,0,0,1-4.24,1.76,2.17,2.17,0,0,0-1.91,2.72c.12,1,0,2.06.09,3.07.26,2.6.09,4.94-2.9,6a1.12,1.12,0,0,0-.76,1.43c.21.68.86.53,1.29.44,2.25-.45,2.44.77,2.39,2.56-.12,4.27-.08,8.55-.1,12.82,0,3.92,1.09,5.82,4,6.92a7.55,7.55,0,0,0,8.91-2.24c.94-.78,1.52-1.43,2.56.26,1.95,3.15,6.38,3.63,9.39,1.37,1.34-1,2.65-2.07,4-3.11l1-.07c.28,1.41-1.87,4.25,2.08,3.49h5.66l2.56,0h1l5.13,0h4.63l4.1,0h1c.39,0,.63-.07.57-.52v-1c.06-.45-.2-.53-.56-.5-1.44-.53-3.65.15-3.65-2.55,0-4.52-.16-9-.11-13.57,0-2.56,1.51-4,4-4.42,3.77-.59,6.06,1.17,6.26,5.15.18,3.58-.11,7.18.12,10.75.14,2.23-1.75,5.21.2,6.44,1.7,1.07,4.62.2,7,.18h.5l2.06,0c.55,0,1.25.48,1.48-.49v-1C176.62,54.9,176.48,54.73,176.11,54.78ZM129.5,52.29c-2,.79-3.57.69-4.71-1.31a4.51,4.51,0,0,1,1.12-5.74c1.62-1.18,3.61-1.47,5.45-2.09.73-.24,1.1,0,1.07.85s0,1.88,0,3.22C132.85,49.37,132.13,51.25,129.5,52.29Z"/><path class="cls-1" d="M150,7.18l-4.19-1.12a2.08,2.08,0,0,0-2.21.77,31.1,31.1,0,0,0-4.47,8,29.64,29.64,0,0,0-.88,9,2.08,2.08,0,0,0,1.54,1.94l4.38,1.18a2.07,2.07,0,0,0,2-.52A17.23,17.23,0,0,0,150.54,18a31.13,31.13,0,0,0,1-9A2.07,2.07,0,0,0,150,7.18Z"/><circle class="cls-1" cx="169.44" cy="11.41" r="11.41"/><path class="cls-1" d="M132.61,9l1.58,1.49a2,2,0,0,1,.39,2.36,27.71,27.71,0,0,1-5,6.56,17.37,17.37,0,0,1-6.45,4.45,2,2,0,0,1-1.87-.35l-1.87-1.53a2,2,0,0,1-.52-2.41,23.89,23.89,0,0,1,4.53-5.82,23.84,23.84,0,0,1,7.09-5.13A2,2,0,0,1,132.61,9Z"/></g></g></svg>