<svg xmlns="http://www.w3.org/2000/svg" viewBox="0 0 299.79 94.84"><defs><style>.cls-1{fill:#fafafa;}</style></defs><title>technologue</title><g id="Layer_2" data-name="Layer 2"><g id="Layer_2-2" data-name="Layer 2"><path class="cls-1" d="M0,50.86c.89-1.7.9-3.63,1.46-5.43C5.65,31.88,14.49,23,28,18.65c1.69-.54,1.8,0,1.81,1.49,0,4.46-.48,8.47-5.87,9.56A29.87,29.87,0,0,0,9,60.94c2.35,13.66,12.48,23.33,25.7,25.18C54,88.81,71,72.93,69.12,53.55c-1.17-12.34-7.8-21-19.3-25.78a2.22,2.22,0,0,1-1.69-2.33,52.35,52.35,0,0,0-.51-5.32c-.24-1.95-.15-2.06,1.69-1.53A37.9,37.9,0,0,1,70.23,33.16,38.84,38.84,0,0,1,44,94.47c-.31,0-.64,0-.81.37H34.41c-.18-.32-.51-.33-.82-.37A38.81,38.81,0,0,1,.95,64.59C.65,63.33.78,61.95,0,60.8Z"/><path class="cls-1" d="M299.79,59.27c-.55.35-.52,1-.73,1.49-1.51,3.69-5,6.07-8.41,5.63A9,9,0,0,1,283,58.52,10.15,10.15,0,0,1,285.5,50a7.72,7.72,0,0,1,10-1.45c.41.24.71.75,1.52.59,0-2.42,0-4.87,0-7.32,0-2.6,0-2.6,2.73-2.47Zm-8.52,3.93c3.16,0,5.8-2.84,5.79-6.31s-2.63-6.42-5.73-6.4-5.6,2.85-5.67,6.27S288.11,63.17,291.27,63.21Z"/><path class="cls-1" d="M28.56,59.92a9.35,9.35,0,0,1,3.13-7.33,4.66,4.66,0,0,0,1.57-3.51c.5-9.65,1-19.3,1.66-28.93.14-2-.07-3.17-1.75-4.46a8.52,8.52,0,0,1-2.55-10,9,9,0,0,1,16.91.64,8.84,8.84,0,0,1-3.41,10,2.36,2.36,0,0,0-1.28,2.44Q43.6,29.38,44.27,40c.19,2.92.4,5.84.43,8.76a4.82,4.82,0,0,0,1.6,3.83,10.14,10.14,0,0,1,2.05,11.95A10.71,10.71,0,0,1,37.8,70.35a10.54,10.54,0,0,1-8.94-7.79A19.2,19.2,0,0,1,28.56,59.92Z"/><path class="cls-1" d="M233.27,56.69c-.13,3.21-1.06,5.71-3.11,7.58-.91.82-.8,1.21-.29,2.11,2.69,4.68,1.13,9.47-3.63,11.27-.69.26-1.74,1-2.06-.24-.25-1-.63-2.23,1-2.79,2.42-.81,3.42-2.56,3.05-4.79s-1.61-3-4.25-3.32c-4.72-.48-8.18-5.1-7.84-10.14.26-3.88,2.1-6.94,5.88-8.45,4.33-1.73,9.36,1.19,10.73,6.16A7.73,7.73,0,0,1,233.27,56.69Zm-3,.4c0-3.65-2.62-6.65-5.71-6.51s-5.55,3.12-5.45,6.81c.09,3.25,2.77,6.12,5.65,6.06S230.23,60.48,230.24,57.08Z"/><path class="cls-1" d="M262.06,58.53c-1.85,0-3.7,0-5.54,0-1.14,0-1.3.38-.9,1.37,1.28,3.14,4.49,4.31,7.29,2.45,1.18-.78,1.41.18,1.95.68s.66,1.07,0,1.72a6.32,6.32,0,0,1-7.44,1,9.2,9.2,0,0,1-5.23-8.87c0-3.9,1.71-7,5.41-8.75a7.84,7.84,0,0,1,9.94,3.28,12.06,12.06,0,0,1,1.64,5.23c.14,1.32-.16,2-1.72,1.9C265.64,58.42,263.85,58.53,262.06,58.53Zm-1.28-3.09c1.4,0,2.81,0,4.2,0,1,0,1-.36.74-1.13a5.36,5.36,0,0,0-10.15-.19c-.32.83-.29,1.34.81,1.31C257.86,55.41,259.32,55.43,260.79,55.44Z"/><path class="cls-1" d="M103.11,58.53c.68,4.13,4.28,6,7.53,3.82,1.22-.8,1.38.25,1.92.69.7.57.65,1.06,0,1.69a6.47,6.47,0,0,1-7.95.78c-5.92-3.32-6.39-12.6-.83-16.52,4.91-3.46,11.37-.65,12.78,5.56.85,3.73.66,4-3.13,4Zm-.16-3.09c3.31,0,6.47,0,9.63,0,1.06,0,1.14-.4.79-1.28a5.69,5.69,0,0,0-5.15-3.58C105.8,50.7,103.91,52.36,102.95,55.44Z"/><path class="cls-1" d="M138,48.39c5.73-2.32,10.21.7,10.27,6.69,0,3.12,0,6.24,0,9.36,0,1.15-.17,1.73-1.54,1.71s-1.42-.62-1.41-1.65c0-3.38.09-6.76,0-10.13-.12-3.1-3.15-4.77-5.51-3.17A4.31,4.31,0,0,0,138.05,55c0,3.12,0,6.24,0,9.36,0,1,0,1.81-1.45,1.77-1.29,0-1.43-.63-1.43-1.66,0-7.9,0-15.8,0-23.7,0-1.21.41-1.49,1.55-1.5s1.37.47,1.35,1.48C138,43.27,138,45.75,138,48.39Z"/><path class="cls-1" d="M188.11,57c0,6.15-5.2,10.61-10.59,9.15-4.37-1.19-7-6.06-6.18-11.3a8.75,8.75,0,0,1,8.79-7.43C184.55,47.63,188.14,51.94,188.11,57ZM174,56.92c0,3.64,2.49,6.37,5.73,6.32s5.52-2.75,5.51-6.33-2.53-6.46-5.71-6.39S174,53.46,174,56.92Z"/><path class="cls-1" d="M196.93,57c0-5.64,3.79-9.75,8.88-9.53a7.84,7.84,0,0,1,6.31,3.78c2.72,4.06,2,10.2-1.46,13.11-2.38,2-5.06,2.9-8.14,1.57a9,9,0,0,1-5.58-7.6A9.69,9.69,0,0,1,196.93,57Zm2.69.07c0,3.33,2.78,6.42,5.65,6.35,3.07-.07,5.81-3.14,5.78-6.47s-2.76-6.46-5.78-6.41S199.59,53.52,199.62,57Z"/><path class="cls-1" d="M92.31,54.35c0-3.25-.06-6.5,0-9.74,0-1.38-.29-2-1.79-1.86-1.13.12-2.3-.05-3.44,0s-1.44-.55-1.44-1.61.11-1.76,1.51-1.73c4.39.08,8.79.07,13.18,0,1.33,0,1.58.53,1.6,1.7s-.3,1.69-1.61,1.65c-1.63,0-3.78-.74-4.78.29s-.33,3.27-.34,5c0,5.48,0,11,0,16.43,0,1-.05,1.64-1.38,1.66s-1.6-.5-1.58-1.68C92.35,61.1,92.31,57.73,92.31,54.35Z"/><path class="cls-1" d="M151.37,60a29.11,29.11,0,0,1,.21-5.41c1-4.49,4.66-7.41,8.84-7.14,3.92.25,7.49,4,7.76,8.39.19,3,0,6.11.08,9.16,0,1-.44,1.17-1.28,1.15s-1.52,0-1.49-1.15c.05-2.16,0-4.33,0-6.49a17.32,17.32,0,0,0-.2-2.66c-.56-3.29-3-5.48-5.76-5.29a6.07,6.07,0,0,0-5.4,6c-.11,2.73-.07,5.47,0,8.21,0,1.07-.3,1.44-1.4,1.44s-1.42-.45-1.37-1.48C151.42,63.2,151.37,61.74,151.37,60Z"/><path class="cls-1" d="M236.26,54.48c0-1.72,0-3.44,0-5.15,0-1.07.17-1.59,1.43-1.6s1.34.72,1.33,1.68c0,3.05,0,6.11,0,9.16a5.47,5.47,0,0,0,.62,2.76,3.28,3.28,0,0,0,3.85,1.78,3.49,3.49,0,0,0,2.85-3.59c.08-3.31.07-6.62,0-9.92,0-1.16,0-1.89,1.58-1.87s1.36.91,1.36,1.87c0,3.24.08,6.49,0,9.73-.15,4.74-4.26,8.08-8.25,6.84A6.93,6.93,0,0,1,236.31,60c-.09-1.84,0-3.69,0-5.53Z"/><path class="cls-1" d="M122.29,56.58c0,3,1.44,5.28,3.75,6.21a3.42,3.42,0,0,0,3.79-.35c1.27-1.17,1.81-.26,2.49.55,1,1.19-.23,1.56-.83,2a6,6,0,0,1-5,1.16c-4.19-.82-7.3-5.14-7.05-9.84s3.55-8.57,7.79-9a5.34,5.34,0,0,1,4.1,1.17c.61.5,2.06.75,1,2.11-.73,1-1.26,1.59-2.68.54-2.6-1.93-6.52.46-7.26,4.23A9.21,9.21,0,0,0,122.29,56.58Z"/><path class="cls-1" d="M190.86,50.86c0-3.25,0-6.5,0-9.75,0-1.08.05-1.8,1.48-1.8s1.54.61,1.53,1.75c0,6.37,0,12.74,0,19.11,0,1.36.08,2.42,1.66,3,1.35.51.77,2,.53,2.85s-1.23.22-1.79,0c-2.1-.71-3.34-2.7-3.37-5.26C190.83,57.49,190.86,54.17,190.86,50.86Z"/><path class="cls-1" d="M280.14,57c0,2.47,0,5,0,7.42,0,1.11-.14,1.76-1.52,1.76s-1.4-.62-1.39-1.64c0-5.08,0-10.15,0-15.23,0-1.16.33-1.51,1.49-1.52s1.46.53,1.44,1.6C280.1,51.89,280.14,54.43,280.14,57Z"/><path class="cls-1" d="M280.15,41.38c-.07,1.09.41,2.24-1.44,2.26-2,0-1.39-1.3-1.45-2.29s-.26-2.08,1.5-2.05S280,40.57,280.15,41.38Z"/><path class="cls-1" d="M275,63.8c0,1.16.38,2.33-1.46,2.27s-1.2-1.41-1.27-2.31-.4-2.19,1.45-2.14S274.73,63.06,275,63.8Z"/></g></g></svg>