<svg xmlns="http://www.w3.org/2000/svg" viewBox="0 0 306.43 57.85"><defs><style>.cls-1{fill:#fafafa;}</style></defs><title>techinasia</title><g id="Layer_2" data-name="Layer 2"><g id="Layer_2-2" data-name="Layer 2"><path class="cls-1" d="M60.86,24.71c-1.68-2.86-3.06-5.38-4.62-7.78-.67-1-1.19-.11-1.54.49-1.6,2.74-3.18,5.49-4.77,8.24q-9,15.56-18,31.11c-.81,1.4-1.39,1.43-2.2.07-2.53-4.29-5-8.6-7.48-12.94a7.61,7.61,0,0,1-.83-3.81c0-3,0-5.92,0-8.88a4.42,4.42,0,0,0-1.71-3.72Q10.31,19.66.94,11.78c-.4-.34-1.1-.6-.91-1.23s.94-.38,1.44-.38c10.58,0,21.15,0,31.73,0a6.73,6.73,0,0,1,3.45.89q2.7,1.56,5.39,3.14c1.52.89,1.73,1.57.9,3.08q-1,1.87-2.15,3.69a1.66,1.66,0,0,1-2.51.64,2,2,0,0,1-.29-.15c-4.18-3.61-9.24-3.14-14.22-3-.36,0-.85-.16-1,.28s.32.77.63,1c1.49,1.29,3,2.57,4.53,3.8a4.92,4.92,0,0,1,1.92,4.15c0,3.56,0,7.12,0,10.69,0,.27,0,.55,0,.82.06.81,0,1.94.78,2.16,1,.28,1.15-1,1.53-1.61Q43.1,20.81,54,1.9c.14-.24.29-.46.44-.7,1-1.62,1.48-1.62,2.45.07q8.76,15.13,17.5,30.28c2.69,4.64,5.4,9.27,8.07,13.92.25.43.86,1,.42,1.42s-1-.17-1.45-.42q-14.53-8.33-29-16.7c-1.57-.91-1.72-1.66-.8-3.23q1-1.63,1.89-3.27a1.87,1.87,0,0,1,2.87-.84A22.47,22.47,0,0,0,60.86,24.71Z"/><path class="cls-1" d="M187,27.2c0,4.05,0,8.11,0,12.16,0,1.06-.28,1.47-1.39,1.41-1.58-.08-3.18-.08-4.76,0-1,0-1.31-.36-1.29-1.34,0-2.85,0-5.7,0-8.54,0-1-.32-1.33-1.32-1.3q-3,.1-6.08,0c-1,0-1.33.28-1.31,1.29.06,2.85,0,5.7,0,8.54,0,1-.23,1.39-1.28,1.34-1.64-.08-3.29,0-4.93,0-.77,0-1.06-.27-1.06-1.05q0-12.57,0-25.14c0-.91.37-1.11,1.18-1.09,1.64,0,3.29.06,4.93,0,1,0,1.18.41,1.16,1.28,0,2.46,0,4.93,0,7.39,0,.91.26,1.26,1.21,1.23,2.08-.06,4.16-.07,6.24,0,1.07,0,1.27-.43,1.25-1.36,0-2.41,0-4.82,0-7.23,0-1,.29-1.36,1.3-1.31a45.44,45.44,0,0,0,4.76,0c1.13-.07,1.38.38,1.37,1.42C187,19,187,23.09,187,27.2Z"/><path class="cls-1" d="M250.25,30.59c.38,0,.77,0,1.15,0,1.46-.13,2.65-.13,2.58,2,0,1.06,1,1.83,2,2.24a7.53,7.53,0,0,0,5.46.06,1.87,1.87,0,0,0,.18-3.58c-2.11-1.1-4.5-1.32-6.74-2s-4.36-1.51-5.85-3.43A7.73,7.73,0,0,1,251.6,14.5a13.56,13.56,0,0,1,13.22-.07A7.56,7.56,0,0,1,269,21.36c0,.93-.15,1.42-1.24,1.35-1.53-.09-3.07-.07-4.6,0-.83,0-1.12-.31-1.32-1.06-.64-2.5-4.34-3.74-6.45-2.2-1.25.91-1.09,2.26.39,2.92A39.8,39.8,0,0,0,261.67,24a15.63,15.63,0,0,1,4.45,1.62,8.08,8.08,0,0,1,.33,13.55C262,42.3,254,42,249.77,38.54a8.63,8.63,0,0,1-3.08-6.46c-.07-1.1.21-1.65,1.42-1.51A17.92,17.92,0,0,0,250.25,30.59Z"/><path class="cls-1" d="M113.74,27c0-4,0-8,0-12,0-1.18.23-1.61,1.52-1.6,6,.07,11.94.06,17.91,0,1.07,0,1.48.3,1.38,1.38-.15,1.57.65,3.6-.3,4.6s-3,.28-4.57.32c-2.41.06-4.82.07-7.23,0-1.18,0-1.59.39-1.44,1.51a4.63,4.63,0,0,1,0,1.15c-.13,1,.3,1.31,1.3,1.3,3.23-.05,6.46,0,9.69,0,1.13,0,1.49.29,1.5,1.46,0,4.53.06,4.53-4.51,4.53-2.25,0-4.49,0-6.74,0-.89,0-1.23.24-1.26,1.19-.12,3.47-.16,3.47,3.26,3.47,3.07,0,6.13,0,9.2,0,1.07,0,1.47.3,1.4,1.39-.08,1.31-.06,2.63,0,3.94,0,.84-.26,1.16-1.13,1.15-6.24,0-12.49,0-18.73,0-1.11,0-1.22-.5-1.22-1.4C113.76,35.26,113.74,31.15,113.74,27Z"/><path class="cls-1" d="M157.74,23.68a13.72,13.72,0,0,0-1.64,0c-1.24.15-1.89-.18-2.31-1.55-.61-2-2.39-2.84-4.35-2.94a5.06,5.06,0,0,0-5,2.63,10.54,10.54,0,0,0-.11,10.37c1.18,2.25,3.53,3.15,6.19,2.65a4.81,4.81,0,0,0,3.66-4.35c.14-1,.47-1.3,1.44-1.25a39.42,39.42,0,0,0,4.43,0c1.22-.08,1.48.37,1.32,1.51-1,7.12-6.6,11.37-13.75,10.42-6.18-.82-10.39-4.68-11.46-10.51-1.31-7.15,1.31-13.5,6.78-16.4,6.28-3.33,14.51-.93,17.29,5l.08.14C162,23.09,161.61,23.68,157.74,23.68Z"/><path class="cls-1" d="M244,40.75c-3.64,0-3.75,0-4.73-3.4-.51-1.81-1.34-2.5-3.2-2.27a16.56,16.56,0,0,1-4.1,0c-1.65-.21-2.28.56-2.76,2-1.24,3.7-1.29,3.68-5.19,3.68-3.5,0-3.48,0-2.25-3.25,2.87-7.56,5.75-15.12,8.56-22.71.36-1,.8-1.4,1.87-1.33a35.62,35.62,0,0,0,4.43,0c1-.06,1.33.35,1.64,1.18q4.62,12.45,9.32,24.88c.35.92.29,1.31-.8,1.24C245.92,40.7,245,40.75,244,40.75ZM236.41,29l-2.07-6.1c-.41,1.12-.73,1.92-1,2.74-1.36,4.13-2.47,3.65,2.81,3.52C236.2,29.17,236.24,29.12,236.41,29Z"/><path class="cls-1" d="M283.27,40.75a23.8,23.8,0,0,0-2.43,0c-1.3.14-1.62-.21-1.12-1.5q4.73-12.25,9.33-24.54c.34-.9.74-1.33,1.75-1.25,1.85.14,4.07-.66,5.47.29s1.52,3.27,2.17,5q3.82,10.14,7.62,20.28c.64,1.7.61,1.71-1.28,1.71-1.48,0-3-.06-4.44,0-1,.06-1.43-.37-1.74-1.29-.48-1.44-.48-3.44-1.69-4.12s-3-.24-4.51-.24c-3.76,0-4-.06-4.92,3.57C286.77,41.51,284.83,40.59,283.27,40.75Zm9.67-17.94c-.76,2.2-1.36,3.9-1.94,5.6-.09.27-.36.75.14.78a29.52,29.52,0,0,0,3.58,0c.33,0,.22-.42.14-.68Z"/><path class="cls-1" d="M101,13.48c3.34,0,6.68,0,10,0,1,0,1.53.22,1.42,1.35-.15,1.57.65,3.58-.31,4.61s-3,.3-4.57.33c-2.91.06-2.91,0-2.91,3,0,5.42-.06,10.84,0,16.26,0,1.5-.44,1.91-1.85,1.78a22.28,22.28,0,0,0-3.77,0c-1.26.1-1.7-.27-1.68-1.62.08-5.91,0-11.83.06-17.74,0-1.28-.31-1.75-1.64-1.66-1.58.11-3.18,0-4.76,0-1,0-1.34-.35-1.29-1.33.09-1.58-.49-3.62.29-4.62s3-.31,4.53-.35C96.68,13.44,98.82,13.48,101,13.48Z"/><path class="cls-1" d="M217,35.34c0-6.63,0-13.15,0-19.66,0-.64-.29-1.46.9-1.53s1.51.27,1.5,1.45c0,7.56,0,15.12,0,22.68,0,.58.39,1.51-.5,1.67s-2,.41-2.78-.74c-3-4.4-6-8.75-9-13.11l-5-7.17c-.68.63-.44,1.26-.44,1.81q0,8.87,0,17.75c0,.86.1,1.6-1.2,1.6S199,39.51,199,38.47c0-7.45,0-14.9,0-22.35,0-.65-.52-1.73.62-1.89s2.15-.38,2.94.83c1.46,2.25,3,4.43,4.54,6.64l8.77,12.69C216.18,34.74,216.31,35.2,217,35.34Z"/><path class="cls-1" d="M271.66,27c0-4,0-8.1,0-12.14,0-1,.25-1.46,1.36-1.4,1.58.09,3.17.06,4.76,0,.82,0,1.16.2,1.16,1.1q0,12.55,0,25.11c0,.92-.39,1.1-1.19,1.08-1.48,0-3-.09-4.43,0-1.26.09-1.7-.28-1.67-1.61C271.72,35.11,271.66,31.06,271.66,27Z"/><path class="cls-1" d="M191.4,27c0-3.83,0-7.66,0-11.49,0-1,.29-1.33,1.3-1.32s1.35.25,1.34,1.29Q194,27.1,194,38.76c0,1-.31,1.33-1.31,1.32s-1.35-.26-1.33-1.3C191.43,34.84,191.4,30.9,191.4,27Z"/></g></g></svg>