<svg width="15" height="15" viewBox="0 0 15 15" fill="none" xmlns="http://www.w3.org/2000/svg">
<path d="M3.35759 14.4957H0.247768V4.81767H3.35759V14.4957ZM1.801 3.4975C0.806585 3.4975 0 2.70151 0 1.7405C7.11763e-09 1.27889 0.189748 0.836186 0.527502 0.50978C0.865256 0.183373 1.32335 0 1.801 0C2.27866 0 2.73675 0.183373 3.07451 0.50978C3.41226 0.836186 3.60201 1.27889 3.60201 1.7405C3.60201 2.70151 2.79509 3.4975 1.801 3.4975ZM14.9967 14.4957H11.8935V9.78451C11.8935 8.66171 11.8701 7.22182 10.2767 7.22182C8.65982 7.22182 8.41205 8.44168 8.41205 9.70362V14.4957H5.30558V4.81767H8.28817V6.13785H8.3317C8.74687 5.37745 9.76105 4.57499 11.2741 4.57499C14.4214 4.57499 15 6.57791 15 9.17943V14.4957H14.9967Z" fill="#FAFAFA"/>
</svg>
