<svg width="15" height="11" viewBox="0 0 15 11" fill="none" xmlns="http://www.w3.org/2000/svg">
<path d="M14.6866 1.66326C14.514 1.00857 14.0058 0.492947 13.3604 0.317964C12.1906 0 7.5 0 7.5 0C7.5 0 2.80939 0 1.6396 0.317964C0.994234 0.492975 0.485952 1.00857 0.31344 1.66326C0 2.84994 0 5.32583 0 5.32583C0 5.32583 0 7.80173 0.31344 8.98841C0.485952 9.6431 0.994234 10.1372 1.6396 10.3122C2.80939 10.6302 7.5 10.6302 7.5 10.6302C7.5 10.6302 12.1906 10.6302 13.3604 10.3122C14.0058 10.1372 14.514 9.6431 14.6866 8.98841C15 7.80173 15 5.32583 15 5.32583C15 5.32583 15 2.84994 14.6866 1.66326ZM5.9659 7.57376V3.07791L9.88634 5.32589L5.9659 7.57376Z" fill="#FAFAFA"/>
</svg>
