<svg width="27" height="19" viewBox="0 0 27 19" fill="none" xmlns="http://www.w3.org/2000/svg">
<path d="M0.9 2.91765H26.1C26.6625 2.91765 27 2.40364 27 1.88962C27 1.37561 26.6625 0.758789 26.1 0.758789H1.0125C0.3375 0.758789 0 1.2728 0 1.78682C0 2.30083 0.3375 2.91765 0.9 2.91765ZM26.2125 8.36621H0.675C0.3375 8.36621 0 8.98303 0 9.49705C0 10.0111 0.3375 10.5251 0.9 10.5251H26.1C26.6625 10.5251 27 10.1139 27 9.49705C27 8.88023 26.6625 8.46902 26.1 8.46902L26.2125 8.36621ZM26.2125 16.0764H9.3375C8.775 16.0764 8.4375 16.5905 8.4375 17.1045C8.4375 17.6185 8.775 18.2353 9.3375 18.2353H26.2125C26.6625 18.2353 27 17.7213 27 17.2073C27 16.6933 26.6625 16.0764 26.1 16.0764H26.2125Z" fill="#4E277A"/>
</svg>
