<svg width="70" height="50" viewBox="0 0 70 50" fill="none" xmlns="http://www.w3.org/2000/svg">
<path d="M59.4521 17.735C61.1568 15.9188 62.1157 13.7821 62.1157 11.1111C62.1157 5.76923 58.1735 1.38889 52.9528 1.38889C49.863 1.38889 46.8798 3.20513 45.0685 5.34188C42.8311 2.24359 39.4216 0 35.0533 0C30.6849 0 27.169 2.24359 25.0381 5.34188C23.3333 3.09829 20.2435 1.38889 17.1537 1.38889C11.933 1.38889 7.99087 5.76923 7.99087 11.1111C7.99087 13.7821 8.84323 16.0256 10.6545 17.735C4.36834 20.2991 0 26.4957 0 33.6538C0 37.1795 2.66362 39.8504 6.07306 39.8504H13.5312C13.105 40.7051 13.105 41.6667 13.105 42.5214C13.105 46.9017 16.621 50 20.5632 50H49.4368C53.379 50 56.895 46.9017 56.895 42.5214C56.895 41.6667 56.895 40.7051 56.4688 39.8504H63.9269C67.4429 39.8504 70 37.1795 70 33.6538C70 26.4957 65.6317 20.2991 59.4521 17.735ZM52.9528 5.76923C55.6164 5.76923 57.7473 8.44017 57.7473 11.1111C57.7473 13.7821 55.5099 16.453 52.9528 16.453C49.863 16.453 47.7321 13.7821 47.7321 11.1111C47.7321 8.44017 49.863 5.76923 52.9528 5.76923ZM35.0533 4.38034C39.4216 4.38034 42.9376 7.90598 42.9376 12.3932C42.9376 16.7735 39.4216 20.8333 35.0533 20.8333C30.6849 20.8333 27.169 16.8803 27.169 12.3932C27.169 8.01282 30.5784 4.38034 35.0533 4.38034ZM17.0472 5.76923C20.137 5.76923 22.2679 8.44017 22.2679 11.1111C22.2679 13.7821 20.0304 16.453 17.0472 16.453C14.3836 16.453 12.2527 13.7821 12.2527 11.1111C12.2527 8.44017 14.4901 5.76923 17.0472 5.76923ZM14.4901 35.3632H6.07306C5.2207 35.3632 4.36834 34.5085 4.36834 33.547C4.36834 26.4957 10.0152 20.7265 17.0472 20.7265C20.137 20.7265 22.6941 21.5812 24.9315 22.9701C20.137 25.641 16.1948 30.1282 14.4901 35.3632ZM49.4368 45.6197H20.5632C18.8584 45.6197 17.4734 44.3376 17.4734 42.5214C17.4734 32.7991 25.3577 25.2137 34.9467 25.2137C44.5358 25.2137 52.4201 32.6923 52.4201 42.5214C52.5266 44.2308 51.1416 45.6197 49.4368 45.6197ZM63.9269 35.3632H55.6164C53.9117 30.0214 49.9696 25.641 45.0685 22.9701C47.3059 21.688 49.863 20.7265 52.9528 20.7265C59.9848 20.7265 65.6317 26.4957 65.6317 33.547C65.6317 34.5085 64.7793 35.3632 63.9269 35.3632Z" fill="#4D2779"/>
</svg>
