<svg width="132" height="31" viewBox="0 0 132 31" fill="none" xmlns="http://www.w3.org/2000/svg">
<path d="M7.10151 20.6271C7.97469 21.5771 8.35049 22.4139 8.35049 23.3073C8.35049 23.4091 8.33944 23.5222 8.33944 23.6239C8.1847 25.4333 6.7036 26.8582 4.89091 26.8582C3.59772 26.8582 2.56979 26.0666 1.8403 25.1845C1.45344 24.7209 0.524995 23.59 0.248671 23.2281C-0.138183 22.7192 -0.0939711 21.8711 0.524995 21.2717C1.35397 20.4688 2.81296 19.2022 3.75246 18.4219C4.10615 18.1279 4.70301 17.6869 5.53198 17.6303C5.952 17.5964 6.18411 17.6756 6.47149 17.8452C6.37201 17.7886 6.26148 17.7547 6.12885 17.7547C5.73094 17.7547 5.42145 18.0827 5.42145 18.4785C5.42145 18.6142 5.46567 18.8517 5.71989 19.1344C6.05147 19.5189 6.91361 20.4349 7.10151 20.6271ZM16.9386 12.5753C17.0492 12.6997 17.3587 13.0616 17.3587 13.0616C17.436 13.1521 17.4913 13.2539 17.5576 13.3556C17.6129 13.4574 17.6571 13.5818 17.6571 13.7175C17.6571 14.1246 17.3365 14.4413 16.9497 14.4413C16.8281 14.4413 16.7065 14.4073 16.607 14.3508C16.8944 14.5204 17.1265 14.5883 17.5466 14.5657C18.2318 14.5204 19.1161 13.9437 19.3261 13.7741C20.2877 13.0277 21.5256 11.9307 22.5535 10.9243V10.913C22.8741 10.6529 23.0951 10.2457 23.0951 9.79339C23.0951 9.44282 22.9625 9.21665 22.8299 8.96786C22.8299 8.96786 22.3988 8.26672 22.222 8.01793C21.4704 6.97753 20.4645 6.34424 19.1713 6.34424C17.3587 6.34424 15.6344 7.81437 15.7118 9.63507C15.767 11.0147 16.4081 11.9534 16.9386 12.5753Z" fill="#FBB618"/>
<path d="M19.2488 23.9971C17.8892 25.3881 15.6786 25.3881 14.3081 23.9971L2.63615 12.0551C1.27664 10.6641 1.27664 8.40237 2.63615 7.00009C3.99567 5.60912 6.20626 5.60912 7.57683 7.00009L19.2488 18.9421C20.6083 20.3444 20.6083 22.6061 19.2488 23.9971ZM16.7397 14.3621C16.9055 14.3281 17.005 14.1246 16.9276 13.9436C16.8392 13.7514 16.3087 13.1407 16.3087 13.1407C15.4134 12.089 14.927 10.9581 14.8718 9.68025C14.8276 8.68509 15.2034 7.6673 15.9108 6.90962C16.4524 6.33288 17.1929 5.971 18.0108 5.75613L13.4017 1.05171C12.0422 -0.35057 9.83163 -0.35057 8.46106 1.05171C7.10155 2.44268 7.10155 4.70442 8.46106 6.1067L16.3087 14.1133C16.5297 14.3394 16.6403 14.3734 16.7397 14.3621ZM13.4128 24.9018C13.3907 24.8792 6.82522 18.1618 6.7368 18.0713C6.63732 17.9695 6.52679 17.8338 6.37205 17.8678C6.06257 17.9469 6.13994 18.2975 6.26152 18.501C6.39416 18.7272 6.61522 18.8855 6.79207 19.0778C7.02418 19.3266 7.25629 19.5754 7.4884 19.8129C7.4884 19.8129 7.69841 20.039 7.70946 20.039C8.71528 21.1247 9.19056 22.1651 9.19056 23.3073C9.19056 23.443 9.17951 23.5787 9.16845 23.7031C9.01371 25.5464 7.76473 27.0165 6.09573 27.5141L8.47212 29.9568C9.83163 31.3477 12.0422 31.3477 13.4128 29.9568C14.7723 28.5545 14.7723 26.2927 13.4128 24.9018Z" fill="#4F2E83"/>
<path d="M7.1015 20.6271C7.97469 21.577 8.35049 22.4138 8.35049 23.3072C8.35049 23.409 8.33944 23.5221 8.33944 23.6239C8.18469 25.4333 6.7036 26.8582 4.89091 26.8582C3.59772 26.8582 2.56979 26.0666 1.8403 25.1845C1.45344 24.7208 0.524994 23.5899 0.248671 23.2281C-0.138183 22.7192 -0.0939711 21.871 0.524994 21.2717C1.35397 20.4688 2.81296 19.2022 3.75246 18.4219C4.10615 18.1279 4.70301 17.6868 5.53198 17.6303C5.952 17.5963 6.18411 17.6755 6.47148 17.8451C6.37201 17.7886 6.26148 17.7547 6.12884 17.7547C5.73094 17.7547 5.42145 18.0826 5.42145 18.4784C5.42145 18.6141 5.46567 18.8516 5.71988 19.1343C6.05147 19.5188 6.9136 20.4348 7.1015 20.6271Z" fill="#FBB618"/>
<path d="M19.2487 23.9972C20.6082 22.6062 20.6082 20.3445 19.2487 18.9422L7.57676 7.01149C6.2062 5.62052 4.00666 5.62052 2.63609 7.01149C1.27658 8.40246 1.27658 10.6642 2.63609 12.0665L14.308 24.0085C15.6786 25.3995 17.8892 25.3995 19.2487 23.9972Z" fill="#4F2E83"/>
<path d="M16.9386 12.5753C17.0491 12.6997 17.3586 13.0616 17.3586 13.0616C17.4359 13.1521 17.4912 13.2539 17.5575 13.3556C17.6128 13.4574 17.657 13.5818 17.657 13.7175C17.657 14.1246 17.3365 14.4413 16.9496 14.4413C16.828 14.4413 16.7064 14.4073 16.607 14.3508C16.8943 14.5204 17.1265 14.5883 17.5465 14.5657C18.2318 14.5204 19.116 13.9437 19.326 13.7741C20.2876 13.0277 21.5255 11.9307 22.5535 10.9243V10.913C22.874 10.6529 23.0951 10.2457 23.0951 9.79339C23.0951 9.44282 22.9624 9.21665 22.8298 8.96786C22.8298 8.96786 22.3987 8.26672 22.2219 8.01793C21.4703 6.97753 20.4645 6.34424 19.1713 6.34424C17.3586 6.34424 15.6343 7.81437 15.7117 9.63507C15.7669 11.0147 16.408 11.9534 16.9386 12.5753Z" fill="#FBB618"/>
<path d="M16.7396 14.3621C16.9054 14.3281 17.0049 14.1246 16.9275 13.9436C16.8391 13.7514 16.3086 13.1407 16.3086 13.1407C15.4133 12.089 14.927 10.9581 14.8717 9.68026C14.8275 8.68509 15.2033 7.6673 15.9107 6.90962C16.4523 6.33288 17.1928 5.971 18.0107 5.75613L13.4017 1.05171C12.0421 -0.35057 9.83155 -0.35057 8.46098 1.05171C7.10147 2.44268 7.10147 4.70442 8.46098 6.1067L16.3086 14.1133C16.5296 14.3394 16.6402 14.3734 16.7396 14.3621Z" fill="#4F2E83"/>
<path d="M13.4128 24.9019C13.3907 24.8793 6.82526 18.1619 6.73684 18.0714C6.63736 17.9696 6.52683 17.8339 6.37209 17.8679C6.06261 17.947 6.13998 18.2976 6.26156 18.5012C6.39419 18.7273 6.61525 18.8856 6.7921 19.0779C7.02421 19.3267 7.25633 19.5755 7.48844 19.813C7.48844 19.813 7.69845 20.0391 7.7095 20.0391C8.71532 21.1248 9.1906 22.1652 9.1906 23.3074C9.1906 23.4431 9.17954 23.5788 9.16849 23.7032C9.01375 25.5465 7.76476 27.0166 6.09576 27.5142L8.47215 29.9569C9.83167 31.3479 12.0423 31.3479 13.4128 29.9569C14.7723 28.5546 14.7723 26.2929 13.4128 24.9019Z" fill="#4F2E83"/>
<path d="M95.702 22.5496H88.7829C88.6723 22.5496 88.5729 22.4591 88.5729 22.3347V17.3476C88.5729 17.2345 88.6613 17.1327 88.7829 17.1327H93.8893C94.5304 17.1327 95.0499 16.6012 95.0499 15.9453V15.8661C95.0499 15.2102 94.5304 14.6787 93.8893 14.6787H88.7829C88.6723 14.6787 88.5729 14.5882 88.5729 14.4639V9.21662C88.5729 9.10353 88.6613 9.00175 88.7829 9.00175H95.5694C96.2105 9.00175 96.7299 8.47024 96.7299 7.81434V7.71256C96.7299 7.05666 96.2105 6.52515 95.5694 6.52515H87.2575C86.6165 6.52515 86.097 7.05666 86.097 7.71256V23.8275C86.097 24.4834 86.6165 25.0149 87.2575 25.0149H95.702C96.3431 25.0149 96.8626 24.4834 96.8626 23.8275V23.737C96.8626 23.0811 96.3431 22.5496 95.702 22.5496Z" fill="#FBB618"/>
<path d="M108.689 11.7725H108.667C108.026 11.7725 107.507 12.304 107.507 12.9599V13.3783C106.445 12.451 105.108 11.8969 103.583 11.8969C100.178 11.8969 97.3931 14.8258 97.3931 18.422C97.3931 22.0973 100.178 25.0036 103.583 25.0036C105.108 25.0036 106.445 24.4495 107.507 23.5222V23.8162C107.507 24.4721 108.026 25.0036 108.667 25.0036H108.689C109.33 25.0036 109.85 24.4721 109.85 23.8162V12.9599C109.85 12.304 109.33 11.7725 108.689 11.7725ZM107.495 19.01C107.208 21.0456 105.561 22.5949 103.572 22.5949C101.405 22.5949 99.6258 20.7176 99.6258 18.422C99.6258 16.1829 101.405 14.3056 103.572 14.3056C105.561 14.3056 107.208 15.8662 107.495 17.9018V19.01Z" fill="#FBB618"/>
<path d="M125.932 11.8064C124.617 11.8064 123.312 12.3492 122.395 13.2426V12.9938C122.395 12.3379 121.876 11.8064 121.234 11.8064H121.212C120.571 11.8064 120.052 12.3379 120.052 12.9938V23.8162C120.052 24.4721 120.571 25.0036 121.212 25.0036H121.234C121.876 25.0036 122.395 24.4721 122.395 23.8162V18.0375C122.395 16.8727 122.848 15.7079 123.766 15.0068C124.374 14.5431 125.103 14.283 125.932 14.283C126.816 14.283 127.634 14.5996 128.286 15.1425C129.193 15.8888 129.657 17.0762 129.657 18.275V23.7936C129.657 24.4495 130.176 24.981 130.817 24.981H130.839C131.481 24.981 132 24.4495 132 23.7936V17.9583C132 14.611 129.159 11.8064 125.932 11.8064Z" fill="#FBB618"/>
<path d="M116.946 12.0778C115.984 12.3153 115.211 12.6319 114.37 13.5027V12.9599C114.37 12.304 113.851 11.7725 113.21 11.7725C112.569 11.7725 112.049 12.304 112.049 12.9599V23.8162C112.049 24.4721 112.569 25.0036 113.21 25.0036C113.851 25.0036 114.37 24.4721 114.37 23.8162V18.3767C114.536 16.556 115.597 14.9841 117.189 14.4413C117.189 14.4413 118.339 14.2151 118.372 13.2087C118.394 12.4284 117.686 11.8969 116.946 12.0778Z" fill="#FBB618"/>
<path d="M55.613 11.8516H55.5025H55.392C54.1762 11.8516 53.1924 12.858 53.1924 14.102V14.2151V22.5609V22.674C53.1924 23.918 54.1762 24.9244 55.392 24.9244H55.6241C56.8399 24.9244 57.8236 23.918 57.8236 22.674V14.0907C57.8126 12.858 56.8289 11.8516 55.613 11.8516Z" fill="#4F2E83"/>
<path d="M49.5118 11.7951H49.4786H48.5502C48.5281 11.7951 48.517 11.7838 48.517 11.7612V10.8226C48.517 10.1893 48.2628 9.61254 47.8428 9.20543C47.4228 8.79831 46.8591 8.56083 46.229 8.59476C45.0574 8.66261 44.1732 9.73694 44.1732 10.947V11.7612C44.1732 11.7838 44.1621 11.7951 44.14 11.7951H43.8195H43.7863C42.88 11.7951 42.1505 12.5415 42.1505 13.4688V13.5027V13.5367C42.1505 14.464 42.88 15.2104 43.7863 15.2104H44.14C44.1621 15.2104 44.1732 15.2217 44.1732 15.2443V18.5012C44.1843 19.9374 44.2285 21.1248 44.5822 22.1087C44.7148 22.4819 44.969 23.0134 45.3006 23.4657C45.3227 23.4883 45.3338 23.511 45.3559 23.5336C45.389 23.5675 45.4111 23.6014 45.4443 23.6467C45.4664 23.6693 45.4885 23.6919 45.4996 23.7145C45.5548 23.7711 45.599 23.8276 45.6543 23.8728C45.798 24.0085 45.9527 24.1329 46.1075 24.246C46.1517 24.28 46.1959 24.3139 46.2512 24.3365C46.3727 24.4157 46.4943 24.4948 46.627 24.5627C46.627 24.5627 46.638 24.5627 46.638 24.574C47.9533 25.2525 49.6223 25.2638 50.2744 23.6354C50.5839 22.8664 50.396 22.1539 49.8986 21.6111C49.7881 21.4867 49.6555 21.3736 49.5118 21.2605C49.4897 21.2379 49.4565 21.2266 49.4344 21.204C49.3791 21.1701 49.3349 21.1248 49.2797 21.0796C49.2576 21.057 49.2355 21.0457 49.2133 21.023C49.1249 20.9439 49.0476 20.8647 48.9812 20.7629C48.5723 20.1862 48.4949 19.3833 48.4949 18.6934L48.506 15.233C48.506 15.2104 48.517 15.1991 48.5391 15.1991H49.5007C50.4071 15.1991 51.1366 14.4527 51.1366 13.5254V13.4575C51.1476 12.5415 50.4181 11.7951 49.5118 11.7951Z" fill="#4F2E83"/>
<path d="M82.9359 21.8824L79.2553 16.9404C79.189 16.8387 79.189 16.703 79.2774 16.6238L82.317 13.5139C82.6596 13.1633 82.8475 12.6884 82.8475 12.1908C82.8475 11.6932 82.6596 11.2182 82.317 10.8677L82.1733 10.7207C82.0517 10.5963 81.9191 10.4945 81.7754 10.4153C81.7422 10.3927 81.7091 10.3814 81.6869 10.3701C81.6317 10.3475 81.5764 10.3135 81.5212 10.2909C81.3222 10.2118 81.1122 10.1778 80.8911 10.1778C80.4048 10.1778 79.9406 10.3701 79.5979 10.7207L76.2268 14.1811C76.1826 14.2037 76.1494 14.215 76.1163 14.2037C76.0942 14.1924 76.061 14.1698 76.0499 14.1698C76.0499 14.1698 76.0389 14.1585 76.0278 14.1472C76.0057 14.102 75.9836 14.0567 75.9836 14.0002V8.13096C75.9836 7.07925 75.1768 6.14062 74.1599 6.14062H73.7178C72.7672 6.14062 72.0156 6.95485 71.9161 7.91609C71.9051 7.98395 71.9051 8.0518 71.9051 8.13096V23.1037C71.9051 24.1554 72.6898 25.0375 73.7178 25.0375H74.1599C75.1878 25.0375 76.0168 24.1102 76.0168 23.0585V20.1182C76.0168 20.0616 76.0389 19.9938 76.072 19.9259C76.0942 19.8807 76.1273 19.8581 76.1273 19.8581L76.2047 19.7789C76.2268 19.7563 76.2489 19.745 76.271 19.7337C76.2821 19.7337 76.2821 19.7224 76.2931 19.7224C76.3042 19.7224 76.3152 19.7224 76.3263 19.7111C76.3484 19.7111 76.3705 19.6998 76.3926 19.6998C76.4036 19.6998 76.4257 19.6998 76.4368 19.7111C76.481 19.7224 76.5363 19.7563 76.5584 19.8015L79.8743 24.2685C80.228 24.7321 80.7474 25.0036 81.3333 25.0036C81.5322 25.0036 81.7312 24.9696 81.9191 24.9018C82.107 24.8339 82.2838 24.7435 82.4385 24.6191L82.6043 24.4947C82.9912 24.1893 83.2454 23.7483 83.3117 23.262C83.3559 22.7644 83.2344 22.2782 82.9359 21.8824Z" fill="#4F2E83"/>
<path d="M69.4402 21.4978C69.1971 21.3621 68.9097 21.283 68.5781 21.283C68.4786 21.283 68.3681 21.2943 68.2576 21.3169C67.9592 21.3621 67.6607 21.4526 67.4397 21.5317C67.1302 21.6222 66.8207 21.7014 66.5554 21.724C66.5112 21.724 66.4781 21.724 66.4338 21.724C65.207 21.7127 63.8143 20.7854 63.6264 19.0438C63.6264 18.9986 63.6153 18.9534 63.6153 18.9081C63.5269 17.6189 63.748 16.7142 64.3227 16.0583C64.3338 16.047 64.3448 16.0357 64.3559 16.0131C64.9638 15.3346 65.6491 15.0745 66.7102 15.0632C66.7433 15.0632 66.7875 15.0632 66.8207 15.0745C66.9976 15.0858 67.2628 15.1423 67.5391 15.1989C67.8155 15.2667 68.1139 15.3233 68.4013 15.3346C68.4344 15.3346 68.4676 15.3346 68.4897 15.3346C68.7439 15.3346 68.976 15.2893 69.175 15.1989C69.7718 14.9275 70.0813 14.3055 69.9597 13.6043C69.9597 13.593 69.9597 13.593 69.9597 13.5817C69.8492 12.971 69.4734 12.5413 68.9871 12.236C68.976 12.2247 68.965 12.2247 68.9539 12.2134C68.9429 12.2021 68.9208 12.1907 68.9097 12.1907C68.1139 11.7271 67.1081 11.6253 66.8207 11.614C66.677 11.6027 66.5333 11.6027 66.3896 11.5914C66.2681 11.5914 66.1465 11.5801 66.047 11.5801C65.4722 11.5801 64.9528 11.6253 64.4554 11.7384C63.3611 11.9759 62.4548 12.4735 61.5484 13.3103C60.2552 14.4977 59.5368 16.2619 59.5368 18.2635C59.5368 20.48 60.2442 22.1537 61.7806 23.5447C62.4879 24.178 63.2395 24.619 64.1348 24.8904C64.8422 25.1053 65.6049 25.2184 66.4559 25.2184C66.5333 25.2184 66.6217 25.2184 66.6991 25.2184C67.6939 25.1845 69.0755 24.766 69.8161 23.997C70.2361 23.556 70.3466 22.8888 70.1034 22.2781C69.9597 21.9275 69.7276 21.6674 69.4402 21.4978Z" fill="#4F2E83"/>
<path d="M56.8289 6.62684C56.4421 6.35543 55.9999 6.21973 55.5025 6.21973C54.8283 6.21973 54.2646 6.45721 53.8004 6.93217C53.3472 7.38452 53.1262 7.92734 53.1262 8.58325C53.1262 9.22784 53.3472 9.78197 53.8004 10.2456C53.9772 10.4266 54.1651 10.5736 54.3641 10.6867C54.7067 10.8789 55.0825 10.9694 55.5025 10.9694C56.1768 10.9694 56.7294 10.7432 57.1826 10.2796C57.6468 9.80459 57.8789 9.23915 57.8789 8.59455C57.8789 7.94996 57.6468 7.39583 57.1937 6.94348C57.0721 6.81909 56.9615 6.71731 56.8289 6.62684Z" fill="#4F2E83"/>
<path d="M41.0563 16.7029C41.001 16.6125 40.9347 16.522 40.8684 16.4315C40.8242 16.375 40.7799 16.3184 40.7357 16.2619C40.7247 16.2393 40.7026 16.228 40.6915 16.2053C39.951 15.3346 38.8125 14.5656 37.1988 14.0001C36.4914 13.7287 35.8835 13.5365 35.4303 13.3669C35.1871 13.2651 34.955 13.1633 34.7671 13.0615C34.2366 12.6996 33.9602 11.9307 34.2808 11.3313C35.0103 9.9177 37.1767 10.5058 38.3151 10.8337C39.9731 11.2974 41.2773 9.45404 40.581 8.13092C40.5699 8.11962 40.5699 8.10831 40.5589 8.097C40.5257 8.04045 40.4815 7.9726 40.4373 7.91606C40.3157 7.75774 40.161 7.59942 39.9731 7.46371C39.0557 6.83042 37.8177 6.66079 36.7235 6.61556C36.613 6.61556 36.5024 6.60425 36.403 6.60425C34.3692 6.60425 32.7223 7.12445 31.4623 8.15354C30.1912 9.17133 29.5612 10.5171 29.5612 12.1681C29.5612 13.1407 29.8154 14.0115 30.3349 14.7804C30.368 14.8257 30.4012 14.8822 30.4343 14.9275C30.5449 15.0858 30.6665 15.2328 30.7991 15.3798C31.6281 16.2845 32.8549 17.0422 34.5018 17.6416C35.4966 18.0034 36.204 18.3427 36.6019 18.6819C36.6461 18.7159 36.6793 18.7498 36.7124 18.795C37.243 19.3718 37.2098 20.4235 36.5245 20.8871C35.1208 21.871 33.485 20.9098 32.026 20.7288C31.2081 20.627 30.2685 20.8645 29.8375 21.6335C29.4617 22.2894 29.5169 23.2054 29.9591 23.8161C30.0254 23.8953 30.0917 23.9744 30.158 24.0423C30.2907 24.178 30.4343 24.2798 30.6001 24.3815C30.6222 24.3929 30.6333 24.4042 30.6554 24.4155C31.0975 24.6756 31.617 24.8226 32.0812 24.947C32.8992 25.1505 33.7502 25.241 34.5903 25.241C37.044 25.241 38.912 24.6303 40.2052 23.3977C41.2884 22.3686 41.83 21.0568 41.83 19.4849C41.83 18.5349 41.62 17.6755 41.2 16.9404C41.1668 16.8726 41.1115 16.7821 41.0563 16.7029Z" fill="#4F2E83"/>
</svg>
