<svg width="119" height="27" viewBox="0 0 119 27" fill="none" xmlns="http://www.w3.org/2000/svg">
<path d="M6.40211 17.9656C7.1893 18.7929 7.52809 19.5218 7.52809 20.2999C7.52809 20.3886 7.51813 20.4871 7.51813 20.5757C7.37863 22.1516 6.0434 23.3927 4.40923 23.3927C3.2434 23.3927 2.31671 22.7032 1.65906 21.9349C1.3103 21.5311 0.473291 20.5461 0.22418 20.231C-0.124574 19.7877 -0.0847164 19.049 0.473291 18.527C1.22062 17.8277 2.53592 16.7245 3.3829 16.0449C3.70176 15.7888 4.23984 15.4047 4.98717 15.3555C5.36582 15.3259 5.57507 15.3948 5.83414 15.5426C5.74446 15.4933 5.64482 15.4638 5.52525 15.4638C5.16653 15.4638 4.88752 15.7494 4.88752 16.0942C4.88752 16.2124 4.92738 16.4192 5.15656 16.6654C5.4555 17.0003 6.23272 17.7981 6.40211 17.9656ZM15.2704 10.9527C15.3701 11.0611 15.6491 11.3762 15.6491 11.3762C15.7188 11.455 15.7687 11.5437 15.8284 11.6323C15.8783 11.721 15.9181 11.8293 15.9181 11.9475C15.9181 12.3021 15.6292 12.5779 15.2804 12.5779C15.1708 12.5779 15.0612 12.5483 14.9715 12.4991C15.2306 12.6468 15.4398 12.7059 15.8185 12.6862C16.4363 12.6468 17.2334 12.1445 17.4228 11.9968C18.2897 11.3467 19.4057 10.3913 20.3324 9.51469V9.50484C20.6213 9.2783 20.8206 8.92372 20.8206 8.52974C20.8206 8.2244 20.701 8.02741 20.5815 7.81072C20.5815 7.81072 20.1929 7.20005 20.0334 6.98336C19.3558 6.07721 18.4491 5.52563 17.2832 5.52563C15.6491 5.52563 14.0946 6.80607 14.1644 8.39184C14.2142 9.59349 14.7921 10.411 15.2704 10.9527Z" fill="#FAFAFA"/>
<path d="M17.3531 20.9007C16.1274 22.1122 14.1346 22.1122 12.899 20.9007L2.37655 10.4996C1.15093 9.2881 1.15093 7.31819 2.37655 6.09685C3.60218 4.88536 5.59506 4.88536 6.83065 6.09685L17.3531 16.4979C18.5787 17.7193 18.5787 19.6892 17.3531 20.9007ZM15.0911 12.5089C15.2406 12.4793 15.3303 12.3021 15.2605 12.1445C15.1808 11.977 14.7025 11.4451 14.7025 11.4451C13.8954 10.5291 13.457 9.54419 13.4072 8.43119C13.3673 7.56443 13.7061 6.67798 14.3438 6.01806C14.8321 5.51573 15.4997 5.20055 16.2371 5.01341L12.0819 0.916005C10.8563 -0.305335 8.86338 -0.305335 7.6278 0.916005C6.40218 2.1275 6.40218 4.0974 7.6278 5.31874L14.7025 12.2922C14.9018 12.4892 15.0015 12.5187 15.0911 12.5089ZM12.0919 21.6886C12.0719 21.6689 6.15307 15.8183 6.07335 15.7395C5.98367 15.6509 5.88403 15.5327 5.74452 15.5622C5.46552 15.6312 5.53527 15.9365 5.64488 16.1138C5.76445 16.3108 5.96374 16.4487 6.12317 16.6161C6.33243 16.8328 6.54168 17.0495 6.75093 17.2564C6.75093 17.2564 6.94025 17.4534 6.95022 17.4534C7.85698 18.3989 8.28545 19.3051 8.28545 20.2999C8.28545 20.4181 8.27549 20.5363 8.26552 20.6446C8.12602 22.2501 7.00004 23.5305 5.49541 23.9639L7.63776 26.0914C8.86339 27.3029 10.8563 27.3029 12.0919 26.0914C13.3175 24.87 13.3175 22.9001 12.0919 21.6886Z" fill="#FAFAFA"/>
<path d="M6.40211 17.9655C7.1893 18.7928 7.52809 19.5217 7.52809 20.2998C7.52809 20.3884 7.51813 20.4869 7.51813 20.5756C7.37863 22.1515 6.0434 23.3925 4.40923 23.3925C3.2434 23.3925 2.31671 22.7031 1.65906 21.9348C1.3103 21.531 0.473291 20.546 0.22418 20.2309C-0.124574 19.7876 -0.0847164 19.0489 0.473291 18.5269C1.22062 17.8276 2.53592 16.7244 3.3829 16.0448C3.70176 15.7887 4.23984 15.4046 4.98717 15.3553C5.36581 15.3258 5.57507 15.3947 5.83414 15.5425C5.74446 15.4932 5.64482 15.4637 5.52525 15.4637C5.16653 15.4637 4.88752 15.7493 4.88752 16.0941C4.88752 16.2123 4.92738 16.4191 5.15656 16.6653C5.4555 17.0002 6.23272 17.798 6.40211 17.9655Z" fill="#FAFAFA"/>
<path d="M17.353 20.9006C18.5786 19.6891 18.5786 17.7192 17.353 16.4979L6.83058 6.10662C5.595 4.89513 3.61208 4.89513 2.37649 6.10662C1.15087 7.31811 1.15087 9.28801 2.37649 10.5094L12.8989 20.9104C14.1345 22.1219 16.1274 22.1219 17.353 20.9006Z" fill="#FAFAFA"/>
<path d="M15.2704 10.9527C15.37 11.0611 15.649 11.3763 15.649 11.3763C15.7188 11.455 15.7686 11.5437 15.8284 11.6323C15.8782 11.721 15.9181 11.8293 15.9181 11.9475C15.9181 12.3021 15.6291 12.5779 15.2803 12.5779C15.1707 12.5779 15.0611 12.5483 14.9714 12.4991C15.2305 12.6468 15.4398 12.7059 15.8184 12.6862C16.4362 12.6468 17.2334 12.1445 17.4227 11.9968C18.2896 11.3467 19.4056 10.3913 20.3323 9.51469V9.50484C20.6213 9.2783 20.8205 8.92372 20.8205 8.52974C20.8205 8.2244 20.701 8.02741 20.5814 7.81072C20.5814 7.81072 20.1928 7.20005 20.0334 6.98336C19.3558 6.07721 18.449 5.52563 17.2832 5.52563C15.649 5.52563 14.0946 6.80607 14.1643 8.39185C14.2141 9.59349 14.7921 10.411 15.2704 10.9527Z" fill="#FAFAFA"/>
<path d="M15.0911 12.5089C15.2405 12.4793 15.3302 12.3021 15.2604 12.1445C15.1807 11.977 14.7024 11.4451 14.7024 11.4451C13.8953 10.5291 13.4569 9.54419 13.4071 8.43119C13.3672 7.56443 13.706 6.67798 14.3437 6.01806C14.832 5.51573 15.4996 5.20055 16.237 5.01341L12.0818 0.916005C10.8562 -0.305335 8.8633 -0.305335 7.62771 0.916005C6.40209 2.1275 6.40209 4.0974 7.62771 5.31874L14.7024 12.2922C14.9017 12.4892 15.0014 12.5187 15.0911 12.5089Z" fill="#FAFAFA"/>
<path d="M12.0919 21.6887C12.0719 21.669 6.15307 15.8183 6.07336 15.7395C5.98368 15.6509 5.88403 15.5327 5.74453 15.5622C5.46553 15.6312 5.53528 15.9365 5.64489 16.1138C5.76446 16.3108 5.96375 16.4487 6.12318 16.6161C6.33243 16.8328 6.54169 17.0495 6.75094 17.2564C6.75094 17.2564 6.94026 17.4534 6.95023 17.4534C7.85699 18.3989 8.28546 19.3051 8.28546 20.2999C8.28546 20.4181 8.2755 20.5363 8.26553 20.6446C8.12603 22.2501 7.00005 23.5305 5.49542 23.9639L7.63777 26.0914C8.8634 27.3029 10.8563 27.3029 12.0919 26.0914C13.3175 24.8701 13.3175 22.9001 12.0919 21.6887Z" fill="#FAFAFA"/>
<path d="M86.2768 19.6399H80.0391C79.9394 19.6399 79.8498 19.5611 79.8498 19.4527V15.1091C79.8498 15.0106 79.9295 14.9219 80.0391 14.9219H84.6427C85.2206 14.9219 85.6889 14.459 85.6889 13.8877V13.8188C85.6889 13.2475 85.2206 12.7846 84.6427 12.7846H80.0391C79.9394 12.7846 79.8498 12.7058 79.8498 12.5975V8.02729C79.8498 7.92879 79.9295 7.84015 80.0391 7.84015H86.1573C86.7352 7.84015 87.2035 7.37722 87.2035 6.80595V6.7173C87.2035 6.14603 86.7352 5.68311 86.1573 5.68311H78.664C78.0861 5.68311 77.6177 6.14603 77.6177 6.7173V20.7529C77.6177 21.3241 78.0861 21.7871 78.664 21.7871H86.2768C86.8548 21.7871 87.3231 21.3241 87.3231 20.7529V20.6741C87.3231 20.1028 86.8548 19.6399 86.2768 19.6399Z" fill="#FAFAFA"/>
<path d="M97.985 10.2534H97.9651C97.3871 10.2534 96.9188 10.7163 96.9188 11.2876V11.652C95.9622 10.8444 94.7565 10.3618 93.3814 10.3618C90.3124 10.3618 87.8014 12.9128 87.8014 16.0449C87.8014 19.246 90.3124 21.7773 93.3814 21.7773C94.7565 21.7773 95.9622 21.2947 96.9188 20.4871V20.7431C96.9188 21.3144 97.3871 21.7773 97.9651 21.7773H97.985C98.5629 21.7773 99.0312 21.3144 99.0312 20.7431V11.2876C99.0312 10.7163 98.5629 10.2534 97.985 10.2534ZM96.9088 16.5571C96.6498 18.33 95.1651 19.6794 93.3715 19.6794C91.4185 19.6794 89.8142 18.0444 89.8142 16.0449C89.8142 14.0947 91.4185 12.4597 93.3715 12.4597C95.1651 12.4597 96.6498 13.8189 96.9088 15.5918V16.5571Z" fill="#FAFAFA"/>
<path d="M113.53 10.2827C112.344 10.2827 111.168 10.7555 110.341 11.5336V11.3169C110.341 10.7456 109.873 10.2827 109.295 10.2827H109.275C108.697 10.2827 108.229 10.7456 108.229 11.3169V20.7429C108.229 21.3142 108.697 21.7771 109.275 21.7771H109.295C109.873 21.7771 110.341 21.3142 110.341 20.7429V15.7098C110.341 14.6953 110.75 13.6808 111.577 13.0701C112.125 12.6663 112.782 12.4398 113.53 12.4398C114.327 12.4398 115.064 12.7155 115.652 13.1883C116.469 13.8384 116.888 14.8726 116.888 15.9166V20.7232C116.888 21.2945 117.356 21.7574 117.934 21.7574H117.954C118.532 21.7574 119 21.2945 119 20.7232V15.6408C119 12.7254 116.439 10.2827 113.53 10.2827Z" fill="#FAFAFA"/>
<path d="M105.428 10.5194C104.562 10.7262 103.864 11.002 103.107 11.7604V11.2876C103.107 10.7163 102.638 10.2534 102.06 10.2534C101.482 10.2534 101.014 10.7163 101.014 11.2876V20.7431C101.014 21.3144 101.482 21.7773 102.06 21.7773C102.638 21.7773 103.107 21.3144 103.107 20.7431V16.0055C103.256 14.4198 104.213 13.0507 105.648 12.5779C105.648 12.5779 106.684 12.3809 106.714 11.5043C106.734 10.8247 106.096 10.3618 105.428 10.5194Z" fill="#FAFAFA"/>
<path d="M50.136 10.3225H50.0364H49.9367C48.8406 10.3225 47.9538 11.1991 47.9538 12.2826V12.3811V19.65V19.7485C47.9538 20.832 48.8406 21.7086 49.9367 21.7086H50.146C51.242 21.7086 52.1289 20.832 52.1289 19.7485V12.2727C52.1189 11.1991 51.2321 10.3225 50.136 10.3225Z" fill="#FAFAFA"/>
<path d="M44.6356 10.2731H44.6057H43.7687C43.7488 10.2731 43.7388 10.2633 43.7388 10.2436V9.42606C43.7388 8.87449 43.5096 8.37216 43.131 8.01758C42.7523 7.66299 42.2442 7.45615 41.6762 7.4857C40.62 7.5448 39.8228 8.4805 39.8228 9.5344V10.2436C39.8228 10.2633 39.8128 10.2731 39.7929 10.2731H39.504H39.4741C38.657 10.2731 37.9993 10.9232 37.9993 11.7308V11.7604V11.7899C37.9993 12.5976 38.657 13.2477 39.4741 13.2477H39.7929C39.8128 13.2477 39.8228 13.2575 39.8228 13.2772V16.1139C39.8328 17.3648 39.8726 18.399 40.1915 19.2559C40.3111 19.5809 40.5403 20.0439 40.8392 20.4378C40.8591 20.4575 40.8691 20.4772 40.889 20.4969C40.9189 20.5265 40.9388 20.556 40.9687 20.5954C40.9886 20.6151 41.0086 20.6348 41.0185 20.6545C41.0684 20.7038 41.1082 20.753 41.158 20.7924C41.2876 20.9106 41.4271 21.019 41.5666 21.1175C41.6064 21.147 41.6463 21.1766 41.6961 21.1962C41.8057 21.2652 41.9153 21.3341 42.0349 21.3932C42.0349 21.3932 42.0449 21.3932 42.0449 21.4031C43.2306 21.9941 44.7353 22.0039 45.3232 20.5856C45.6022 19.9158 45.4328 19.2953 44.9844 18.8225C44.8847 18.7142 44.7652 18.6157 44.6356 18.5172C44.6157 18.4975 44.5858 18.4876 44.5659 18.4679C44.516 18.4384 44.4762 18.399 44.4264 18.3596C44.4064 18.3399 44.3865 18.33 44.3666 18.3103C44.2869 18.2414 44.2171 18.1724 44.1573 18.0838C43.7886 17.5815 43.7189 16.8822 43.7189 16.2813L43.7289 13.2674C43.7289 13.2477 43.7388 13.2378 43.7588 13.2378H44.6257C45.4427 13.2378 46.1004 12.5878 46.1004 11.7801V11.721C46.1104 10.9232 45.4527 10.2731 44.6356 10.2731Z" fill="#FAFAFA"/>
<path d="M74.768 19.0589L71.4499 14.7547C71.3901 14.666 71.3901 14.5478 71.4698 14.4789L74.21 11.7703C74.5189 11.4649 74.6883 11.0513 74.6883 10.6179C74.6883 10.1845 74.5189 9.77082 74.21 9.46549L74.0805 9.33744C73.9709 9.2291 73.8513 9.14045 73.7218 9.07151C73.6919 9.05181 73.662 9.04196 73.642 9.03211C73.5922 9.01241 73.5424 8.98286 73.4926 8.96316C73.3132 8.89422 73.1239 8.86467 72.9246 8.86467C72.4862 8.86467 72.0677 9.03211 71.7588 9.33744L68.7196 12.3514C68.6798 12.3711 68.6499 12.3809 68.62 12.3711C68.6001 12.3612 68.5702 12.3415 68.5602 12.3415C68.5602 12.3415 68.5502 12.3317 68.5403 12.3219C68.5203 12.2825 68.5004 12.2431 68.5004 12.1938V7.08191C68.5004 6.1659 67.773 5.34839 66.8563 5.34839H66.4577C65.6008 5.34839 64.9232 6.05756 64.8335 6.89476C64.8235 6.95386 64.8235 7.01296 64.8235 7.08191V20.1227C64.8235 21.0387 65.531 21.8069 66.4577 21.8069H66.8563C67.783 21.8069 68.5303 20.9993 68.5303 20.0833V17.5224C68.5303 17.4732 68.5502 17.4141 68.5801 17.355C68.6 17.3156 68.6299 17.2959 68.6299 17.2959L68.6997 17.2269C68.7196 17.2072 68.7396 17.1974 68.7595 17.1875C68.7694 17.1875 68.7694 17.1777 68.7794 17.1777C68.7894 17.1777 68.7993 17.1777 68.8093 17.1678C68.8292 17.1678 68.8492 17.158 68.8691 17.158C68.8791 17.158 68.899 17.158 68.9089 17.1678C68.9488 17.1777 68.9986 17.2072 69.0186 17.2466L72.0079 21.1372C72.3267 21.541 72.7951 21.7774 73.3232 21.7774C73.5025 21.7774 73.6819 21.7478 73.8513 21.6887C74.0207 21.6296 74.1801 21.5509 74.3196 21.4425L74.4691 21.3342C74.8178 21.0682 75.047 20.6841 75.1068 20.2606C75.1467 19.8272 75.0371 19.4037 74.768 19.0589Z" fill="#FAFAFA"/>
<path d="M62.6014 18.724C62.3822 18.6058 62.1232 18.5368 61.8242 18.5368C61.7345 18.5368 61.6349 18.5467 61.5353 18.5664C61.2662 18.6058 60.9972 18.6846 60.7979 18.7535C60.5189 18.8323 60.2399 18.9013 60.0007 18.921C59.9609 18.921 59.931 18.921 59.8911 18.921C58.7851 18.9111 57.5296 18.1034 57.3602 16.5866C57.3602 16.5472 57.3502 16.5078 57.3502 16.4684C57.2705 15.3456 57.4698 14.5576 57.9879 13.9863C57.9979 13.9765 58.0079 13.9667 58.0178 13.947C58.5659 13.356 59.1837 13.1294 60.1402 13.1196C60.1701 13.1196 60.21 13.1196 60.2399 13.1294C60.3993 13.1393 60.6385 13.1885 60.8876 13.2378C61.1367 13.2969 61.4057 13.3461 61.6648 13.356C61.6947 13.356 61.7246 13.356 61.7445 13.356C61.9737 13.356 62.1829 13.3166 62.3623 13.2378C62.9004 13.0014 63.1794 12.4597 63.0698 11.849C63.0698 11.8392 63.0698 11.8392 63.0698 11.8293C62.9701 11.2974 62.6313 10.9231 62.1929 10.6572C62.1829 10.6474 62.173 10.6474 62.163 10.6375C62.153 10.6277 62.1331 10.6178 62.1232 10.6178C61.4057 10.214 60.499 10.1253 60.2399 10.1155C60.1103 10.1056 59.9808 10.1056 59.8513 10.0958C59.7417 10.0958 59.6321 10.0859 59.5424 10.0859C59.0242 10.0859 58.5559 10.1253 58.1075 10.2238C57.121 10.4307 56.3039 10.8641 55.4869 11.5929C54.321 12.6271 53.6733 14.1636 53.6733 15.907C53.6733 17.8375 54.3111 19.2952 55.6961 20.5067C56.3338 21.0583 57.0114 21.4424 57.8185 21.6788C58.4563 21.866 59.1438 21.9645 59.9111 21.9645C59.9808 21.9645 60.0605 21.9645 60.1303 21.9645C61.0271 21.9349 62.2726 21.5705 62.9402 20.9007C63.3189 20.5166 63.4185 19.9355 63.1993 19.4036C63.0698 19.0983 62.8605 18.8717 62.6014 18.724Z" fill="#FAFAFA"/>
<path d="M51.2321 5.77206C50.8834 5.53567 50.4848 5.41748 50.0364 5.41748C49.4286 5.41748 48.9204 5.62432 48.5019 6.038C48.0933 6.43198 47.894 6.90476 47.894 7.47603C47.894 8.03745 48.0933 8.52008 48.5019 8.92391C48.6613 9.0815 48.8307 9.20955 49.0101 9.30804C49.319 9.47548 49.6577 9.55428 50.0364 9.55428C50.6442 9.55428 51.1424 9.35729 51.551 8.95346C51.9695 8.53978 52.1787 8.0473 52.1787 7.48588C52.1787 6.92446 51.9695 6.44183 51.5609 6.04785C51.4513 5.9395 51.3517 5.85086 51.2321 5.77206Z" fill="#FAFAFA"/>
<path d="M37.0129 14.5478C36.963 14.469 36.9032 14.3902 36.8435 14.3114C36.8036 14.2622 36.7637 14.2129 36.7239 14.1637C36.7139 14.144 36.694 14.1341 36.684 14.1144C36.0164 13.356 34.9901 12.6863 33.5353 12.1938C32.8975 11.9574 32.3495 11.79 31.941 11.6422C31.7217 11.5536 31.5125 11.4649 31.3431 11.3763C30.8648 11.0611 30.6157 10.3913 30.9047 9.8693C31.5623 8.63811 33.5153 9.15028 34.5417 9.43592C36.0363 9.83975 37.2121 8.23428 36.5844 7.08188C36.5744 7.07203 36.5744 7.06218 36.5645 7.05233C36.5346 7.00309 36.4947 6.94399 36.4549 6.89474C36.3452 6.75685 36.2057 6.61896 36.0363 6.50076C35.2093 5.94919 34.0933 5.80145 33.1068 5.76205C33.0072 5.76205 32.9075 5.7522 32.8178 5.7522C30.9844 5.7522 29.4997 6.20528 28.3637 7.10158C27.2178 7.98804 26.6498 9.16013 26.6498 10.5982C26.6498 11.4452 26.879 12.2036 27.3474 12.8734C27.3772 12.9128 27.4071 12.962 27.437 13.0014C27.5367 13.1393 27.6463 13.2674 27.7659 13.3954C28.5132 14.1834 29.6192 14.8433 31.1039 15.3653C32.0007 15.6805 32.6385 15.976 32.9972 16.2715C33.037 16.301 33.0669 16.3306 33.0968 16.37C33.5751 16.8723 33.5452 17.7883 32.9274 18.1921C31.662 19.0491 30.1872 18.2118 28.8719 18.0543C28.1345 17.9656 27.2876 18.1724 26.899 18.8422C26.5602 19.4135 26.61 20.2113 27.0086 20.7432C27.0683 20.8121 27.1281 20.8811 27.1879 20.9402C27.3075 21.0584 27.437 21.147 27.5865 21.2357C27.6064 21.2455 27.6164 21.2553 27.6363 21.2652C28.0349 21.4917 28.5032 21.6198 28.9217 21.7281C29.6591 21.9054 30.4264 21.9842 31.1837 21.9842C33.3958 21.9842 35.0798 21.4523 36.2456 20.3787C37.2221 19.4824 37.7104 18.3399 37.7104 16.9708C37.7104 16.1434 37.521 15.3949 37.1424 14.7547C37.1125 14.6956 37.0627 14.6168 37.0129 14.5478Z" fill="#FAFAFA"/>
</svg>
