<svg width="65" height="66" viewBox="0 0 65 66" fill="none" xmlns="http://www.w3.org/2000/svg">
<path d="M32.5 15.6416C23.142 15.6416 15.428 23.526 15.428 32.9364C15.428 42.474 23.142 50.2312 32.5 50.2312C41.858 50.2312 49.572 42.3468 49.572 32.9364C49.572 23.526 41.858 15.6416 32.5 15.6416ZM32.5 45.3988C25.5447 45.3988 20.3599 40.0578 20.3599 33.0636C20.3599 26.0694 25.6712 20.7283 32.5 20.7283C39.3288 20.7283 44.6401 26.0694 44.6401 33.0636C44.6401 40.0578 39.4553 45.3988 32.5 45.3988ZM63.1031 30.5202H61.0798C60.0681 30.5202 59.3093 29.8844 59.1829 28.8671C57.4125 17.0405 48.3074 7.75723 36.6732 5.97688C35.7879 5.84971 35.0292 4.95954 35.0292 4.06936V1.90751C35.0292 0.890173 34.144 0 33.1323 0H32.1206C31.1089 0 30.2237 0.890173 30.2237 1.90751V3.9422C30.2237 4.83237 29.5914 5.72254 28.5798 5.84971C16.9455 7.63006 7.84047 16.9133 6.07004 28.7399C5.69066 29.7572 4.93191 30.5202 3.92023 30.5202H1.89689C0.885214 30.5202 0 31.4104 0 32.4277V33.4451C0 34.4624 0.885214 35.3526 1.89689 35.3526H3.92023C4.93191 35.3526 5.69066 35.9884 5.81712 37.0058C7.58755 48.8324 16.6926 58.1156 28.3268 59.896C29.2121 60.0231 29.9708 60.9133 29.9708 61.8035V63.8382C29.9708 64.8555 30.856 65.7457 31.8677 65.7457H32.8794C33.8911 65.7457 34.7763 64.8555 34.7763 63.8382V61.8035C34.7763 60.9133 35.4086 60.0231 36.4202 59.896C48.0545 58.1156 57.1595 48.8324 58.93 37.0058C59.0564 36.1156 59.9416 35.3526 60.8268 35.3526H62.8502C63.8619 35.3526 64.7471 34.4624 64.7471 33.4451V32.4277C65 31.4104 64.1148 30.5202 63.1031 30.5202ZM32.5 55.1908C20.3599 55.1908 10.4961 45.2717 10.4961 32.9364C10.4961 20.6012 20.2335 10.6821 32.5 10.6821C44.7665 10.6821 54.5039 20.6012 54.5039 32.9364C54.5039 45.3988 44.6401 55.1908 32.5 55.1908ZM37.5584 28.6127L36.7996 27.8497C36.0409 27.0867 34.6498 27.0867 33.8911 27.9769C33.1323 28.8671 31.7412 28.8671 30.9825 27.9769C30.2237 27.0867 28.9591 27.0867 28.0739 27.8497L27.3152 28.6127C26.5564 29.3757 26.5564 30.7746 27.4416 31.4104C28.3268 32.1734 28.3268 33.5723 27.4416 34.3353C26.5564 35.0983 26.5564 36.3699 27.3152 37.1329L28.0739 37.896C28.8327 38.659 30.2237 38.659 30.9825 37.7688C31.7412 36.8786 33.1323 36.8786 33.8911 37.7688C34.6498 38.659 35.9144 38.659 36.7996 37.896L37.5584 37.1329C38.3171 36.3699 38.3171 34.9711 37.4319 34.3353C36.5467 33.5723 36.5467 32.1734 37.4319 31.4104C38.3171 30.7746 38.3171 29.3757 37.5584 28.6127Z" fill="#4D2779"/>
</svg>
