<svg width="58" height="58" viewBox="0 0 58 58" fill="none" xmlns="http://www.w3.org/2000/svg">
<path d="M28.7286 13.0483C17.0338 13.0483 9.9152 18.5793 5.97454 23.0812C1.77965 27.969 0.381354 32.8568 0.254236 33.3713L0 34.2717V35.172V35.4293V36.3297L0.254236 37.2301C0.381354 37.7446 1.90677 42.6324 5.97454 47.6488C9.9152 52.2793 17.0338 57.8103 28.7286 57.8103C40.4235 57.8103 47.5421 52.2793 51.4827 47.7774C55.6776 42.8896 57.0759 38.0018 57.203 37.4873L57.4573 36.5869V35.6866V35.4293V34.5289L57.203 33.6285C57.0759 33.114 55.5505 28.2262 51.4827 23.2098C47.415 18.5793 40.2964 13.0483 28.7286 13.0483ZM28.7286 19.351C46.6523 19.351 51.2285 35.3007 51.2285 35.3007V35.5579C51.2285 35.5579 46.7794 51.2503 28.7286 51.2503C10.6779 51.2503 6.22878 35.3007 6.22878 35.3007V35.0434C6.22878 35.0434 10.6779 19.351 28.7286 19.351Z" fill="#4D2779"/>
<path d="M28.7287 26.8114C24.1525 26.8114 20.339 30.6701 20.339 35.3007C20.339 39.9312 24.1525 43.79 28.7287 43.79C33.305 43.79 37.1185 39.9312 37.1185 35.3007C37.1185 30.6701 33.305 26.8114 28.7287 26.8114ZM28.7287 47.0057C22.3728 47.0057 17.161 41.732 17.161 35.3007C17.161 28.8694 22.3728 23.5957 28.7287 23.5957C35.0846 23.5957 40.2965 28.8694 40.2965 35.3007C40.2965 41.732 35.0846 47.0057 28.7287 47.0057Z" fill="#4D2779"/>
<path d="M8.51689 15.4924C8.00841 15.4924 7.49994 15.2352 7.11859 14.8493L2.28811 9.31835C1.65252 8.54659 1.77964 7.38896 2.41523 6.74582C3.17793 6.10269 4.32199 6.23132 4.95758 6.87445L9.78806 12.4054C10.4237 13.1771 10.2965 14.3348 9.66095 14.9779C9.27959 15.3638 8.89824 15.4924 8.51689 15.4924Z" fill="#4D2779"/>
<path d="M21.4829 10.9904C20.7202 10.9904 19.9575 10.4759 19.7033 9.5755L17.9236 2.37243C17.6694 1.34342 18.305 0.314413 19.3219 0.0571607C20.3389 -0.200092 21.2287 0.443039 21.4829 1.34342L23.2626 8.54649C23.5168 9.5755 22.8812 10.4759 21.9914 10.7331C21.7371 10.9904 21.61 10.9904 21.4829 10.9904Z" fill="#4D2779"/>
<path d="M48.9402 15.4924C48.5589 15.4924 48.0504 15.3638 47.7962 15.1065C47.0335 14.4634 46.9063 13.3058 47.669 12.534L52.4995 7.00309C53.1351 6.23133 54.2792 6.10271 55.0419 6.87446C55.8046 7.51759 55.9317 8.67523 55.169 9.44699L50.3385 14.9779C49.83 15.2352 49.3216 15.4924 48.9402 15.4924Z" fill="#4D2779"/>
<path d="M35.8473 10.9903C35.7202 10.9903 35.5931 10.9903 35.466 10.9903C34.449 10.7331 33.9406 9.70405 34.1948 8.80367L35.9744 1.6006C36.2287 0.571588 37.2456 0.0570835 38.1354 0.314336C39.0253 0.571588 39.6609 1.6006 39.4066 2.50098L37.627 9.70405C37.3727 10.3472 36.7371 10.9903 35.8473 10.9903Z" fill="#4D2779"/>
</svg>
