<svg width="34" height="30" viewBox="0 0 34 30" fill="none" xmlns="http://www.w3.org/2000/svg">
<path d="M7.74904 7.04943L20.0606 0L28.5892 4.8365L16.3006 11.9087L7.74904 7.04943Z" fill="#291051"/>
<path d="M0.481473 17.7491C0.481473 17.7263 0.504399 17.7035 0.527326 17.6807C0.550252 17.6579 0.573179 17.6579 0.596105 17.6807L0.962926 17.9088C1.05463 17.9545 1.12341 18.0685 1.12341 18.1826V19.1636C1.12341 19.1864 1.10048 19.2092 1.07756 19.232C1.05463 19.2548 1.03171 19.2548 0.985853 19.232L0.504398 18.9583C0.481471 18.9354 0.458546 18.9126 0.458546 18.867V17.7491H0.481473Z" fill="#6A4899"/>
<path d="M0.412622 17.772C0.412622 17.7491 0.435548 17.7263 0.458474 17.7035C0.481401 17.6807 0.504328 17.6807 0.527255 17.7035L0.89408 17.9316C0.985787 17.9773 1.05457 18.0913 1.05457 18.2054V19.1636C1.05457 19.1864 1.03164 19.2092 1.00871 19.232C0.985787 19.2548 0.962858 19.2548 0.917005 19.232L0.43555 18.9583C0.412624 18.9355 0.389694 18.9126 0.389694 18.867V17.772H0.412622Z" fill="#1F0B3D"/>
<path d="M0.61898 17.8632H0.710689C0.710689 17.7035 0.756542 17.5894 0.825321 17.5438C0.939954 17.4753 1.12337 17.521 1.39848 17.6578L1.44434 17.5666C1.14629 17.4069 0.917028 17.3613 0.779469 17.4525C0.687763 17.521 0.61898 17.6578 0.61898 17.8632Z" fill="#1F0B3D"/>
<path d="M10.8671 24.251L12.9076 25.4601V26.8517L10.8671 25.6426V24.251Z" fill="#8E979B"/>
<path d="M25.4713 18L25.9298 17.7262V19.2091L25.6318 19.3688L23.7059 18.4106L25.4713 18Z" fill="#2C3135"/>
<path d="M13.9392 25.3916L23.1786 20.076V20.4639L13.9392 25.7795V25.3916Z" fill="#F4EAED"/>
<path d="M8.66616 23.3612L17.9285 18.0457L21.8718 19.5285L12.6324 24.8441L8.66616 23.3612Z" fill="#EAE1E4"/>
<path d="M19.8543 21.5361L23.6143 19.3916V20.806L19.8543 22.9505V21.5361Z" fill="#2C3135"/>
<path d="M17.8826 21.924L24.3479 18.2053L24.4396 19.5513L17.9743 23.27L17.8826 21.924Z" fill="#EAE1E4"/>
<path d="M25.8152 18.5704L26.0444 18.4335V19.1635L25.8152 19.3004V18.5704Z" fill="#B2462D"/>
<path d="M22.4679 19.0723L23.7518 19.0494L23.6372 21.3536L22.4679 20.6692V19.0723Z" fill="#EAE1E4"/>
<path d="M23.6142 19.5285L24.2103 19.1863V21.0342L23.6142 21.3764V19.5285Z" fill="#F4EAED"/>
<path d="M18.6163 21.3536L19.9001 21.3308L19.7855 23.635L18.6163 22.9506V21.3536Z" fill="#EAE1E4"/>
<path d="M20.2211 22.8365C20.2211 22.0608 20.7714 21.1027 21.4592 20.7148C21.8489 20.4867 22.1928 20.4867 22.4221 20.692C22.5138 20.7148 22.5826 20.7605 22.6514 20.8289C22.9494 20.9202 23.1328 21.2167 23.1328 21.673C23.1328 22.4487 22.5826 23.4069 21.8948 23.7947C21.4821 24.0228 21.1153 24 20.886 23.7947C20.8172 23.7719 20.7485 23.7262 20.6797 23.6806C20.4046 23.5666 20.2211 23.27 20.2211 22.8365Z" fill="#382A2A"/>
<path d="M20.886 23.2014C20.886 22.4258 21.4362 21.4676 22.124 21.0798C22.8118 20.6919 23.3621 21.0113 23.3621 21.787C23.3621 22.5627 22.8118 23.5208 22.124 23.9087C21.4362 24.3193 20.886 23.9999 20.886 23.2014Z" fill="#4C3C3B"/>
<path d="M21.2986 22.9734C21.2986 22.4487 21.6655 21.8099 22.124 21.5589C22.5825 21.308 22.9493 21.5133 22.9493 22.038C22.9493 22.5628 22.5825 23.2015 22.124 23.4525C21.6655 23.7034 21.2986 23.4981 21.2986 22.9734Z" fill="#D1CABF"/>
<path d="M21.9635 21.8327C21.9635 21.7415 22.0093 21.6274 22.0781 21.5818C22.1469 21.5362 22.1927 21.6046 22.1927 21.6959C22.1927 21.7871 22.1469 21.9012 22.0781 21.9468C22.0093 21.9696 21.9635 21.924 21.9635 21.8327Z" fill="#382A2A"/>
<path d="M21.9635 23.2243C21.9635 23.1331 22.0093 23.019 22.0781 22.9734C22.1469 22.9278 22.1927 22.9962 22.1927 23.0875C22.1927 23.1787 22.1469 23.2928 22.0781 23.3384C22.0093 23.384 21.9635 23.3384 21.9635 23.2243Z" fill="#382A2A"/>
<path d="M21.4591 22.9506C21.3674 22.9962 21.2987 22.9962 21.2987 22.9278C21.2987 22.8594 21.3674 22.7681 21.4591 22.7225C21.5508 22.6768 21.6196 22.6768 21.6196 22.7453C21.6196 22.7909 21.5279 22.8822 21.4591 22.9506Z" fill="#382A2A"/>
<path d="M22.6742 22.2433C22.5825 22.289 22.5138 22.289 22.5138 22.2205C22.5138 22.1521 22.5825 22.0608 22.6742 22.0152C22.7659 21.9696 22.8347 21.9696 22.8347 22.038C22.8347 22.0836 22.7659 22.1749 22.6742 22.2433Z" fill="#382A2A"/>
<path d="M21.5124 23.3961C21.4684 23.3712 21.4835 23.2622 21.5462 23.1528C21.6089 23.0433 21.6954 22.9748 21.7394 22.9997C21.7834 23.0247 21.7683 23.1337 21.7056 23.2431C21.6429 23.3526 21.5564 23.4211 21.5124 23.3961Z" fill="#382A2A"/>
<path d="M22.3968 21.922C22.3528 21.8969 22.3681 21.788 22.431 21.6786C22.4938 21.5692 22.5804 21.5009 22.6244 21.5259C22.6683 21.5509 22.653 21.6598 22.5902 21.7692C22.5273 21.8786 22.4407 21.947 22.3968 21.922Z" fill="#382A2A"/>
<path d="M22.4366 22.845C22.3709 22.8071 22.3535 22.7146 22.3979 22.6382C22.4423 22.5619 22.5316 22.5307 22.5974 22.5685C22.6631 22.6064 22.6804 22.699 22.6361 22.7753C22.5917 22.8517 22.5024 22.8829 22.4366 22.845Z" fill="#382A2A"/>
<path d="M21.7113 22.0837C21.7801 22.1293 21.7801 22.1977 21.7572 22.289C21.7113 22.3574 21.6196 22.4031 21.5738 22.3574C21.505 22.3118 21.505 22.2434 21.5279 22.1521C21.5508 22.0837 21.6425 22.038 21.7113 22.0837Z" fill="#382A2A"/>
<path d="M21.7113 22.6768C21.7113 22.4487 21.8718 22.1749 22.0781 22.0608C22.2845 21.9468 22.4449 22.038 22.4449 22.2661C22.4449 22.4943 22.2845 22.7681 22.0781 22.8821C21.8718 22.9962 21.7113 22.9049 21.7113 22.6768Z" fill="#4C3C3B"/>
<path d="M21.826 22.6996C21.826 22.4943 21.9635 22.2433 22.1469 22.1521C22.3303 22.0608 22.4679 22.1293 22.4679 22.3346C22.4679 22.5399 22.3303 22.7909 22.1469 22.8821C21.9635 22.9734 21.826 22.9049 21.826 22.6996Z" fill="#E2DACF"/>
<path d="M19.7855 21.8555L20.3586 21.5133V23.2928L19.7855 23.635V21.8555Z" fill="#F4EAED"/>
<path d="M13.8246 24.9126L25.4484 18.2281L25.4025 18.6616L13.7788 25.346L13.8246 24.9126Z" fill="#F4EAED"/>
<path d="M13.8475 24.7756L25.4025 18.1368L25.4254 18.4334L13.8475 25.095V24.7756Z" fill="#EAE1E4"/>
<path d="M7.40517 7.87073L16.2089 12.9126L16.4153 18.3194L16.1172 23.8175L7.40517 18.7985V7.87073Z" fill="#291051"/>
<path d="M-7.24792e-05 22.7909L7.26763 26.9886L7.9325 29.6122L0.664798 25.4145L-7.24792e-05 22.7909Z" fill="#1F0B3D"/>
<path d="M1.81113 24.251L5.06669 26.1217L5.47937 27.9012L2.2238 26.0304L1.81113 24.251Z" fill="#E1E8EA"/>
<path d="M0.0228004 22.2206L7.26758 26.3955V27.0571L0.0228004 22.8594V22.2206Z" fill="#1F0B3D"/>
<path d="M0.0228004 22.6084L7.26758 26.7833V27.0799L0.0228004 22.8822V22.6084Z" fill="#F4EAED"/>
<path d="M1.94873 15.8783L9.21643 20.076L7.26768 26.3954L0.0228996 22.2205L1.94873 15.8783Z" fill="#1F0B3D"/>
<path d="M1.94878 17.1331L8.64331 20.9201L7.13016 25.5969L0.458557 21.8099L1.94878 17.1331Z" fill="#3D2A2D"/>
<path d="M6.90076 13.0266L14.1685 17.2243L9.19341 20.0989L1.92571 15.924L6.90076 13.0266Z" fill="#6A4899"/>
<path d="M16.1402 12.7072L27.1449 6.27375L29.2542 5.36121V16.289L16.1173 23.8403V12.8897L16.1402 12.7072Z" fill="#4E277A"/>
<path d="M16.2778 11.886L28.5664 4.83655L29.2542 5.36126L16.0943 12.8898L16.2778 11.886Z" fill="#6A4899"/>
<path d="M13.2973 21.6958L14.9939 20.7377V24.2282L13.2973 25.1863V21.6958Z" fill="#4E277A"/>
<path d="M13.2286 21.9012L14.7876 21.0115V24.2282L13.2286 25.1179V21.9012Z" fill="#6A4899"/>
<path d="M10.8901 20.4182L12.5637 19.4373L14.9939 20.7376L13.2973 21.6958L10.8901 20.4182Z" fill="#1F0B3D"/>
<path d="M9.58324 28.6312C9.58324 27.8099 10.1793 26.8061 10.8901 26.3727C11.3027 26.1445 11.6696 26.1445 11.8988 26.3499C11.9905 26.3727 12.0822 26.4411 12.151 26.5096C12.4491 26.6008 12.6554 26.9202 12.6554 27.3993C12.6554 28.2206 12.0593 29.2244 11.3486 29.6578C10.913 29.9088 10.5232 29.886 10.294 29.6578C10.2252 29.635 10.1564 29.5894 10.0876 29.5438C9.78958 29.4069 9.58324 29.0875 9.58324 28.6312Z" fill="#382A2A"/>
<path d="M10.271 29.0191C10.271 28.1978 10.8671 27.194 11.5778 26.7605C12.3115 26.3499 12.8846 26.6692 12.8846 27.5134C12.8846 28.3346 12.2886 29.3384 11.5778 29.7719C10.8671 30.1826 10.271 29.8632 10.271 29.0191Z" fill="#4C3C3B"/>
<path d="M10.7066 28.7681C10.7066 28.2205 11.0963 27.5589 11.5778 27.2624C12.0592 26.9886 12.449 27.2167 12.449 27.7643C12.449 28.3118 12.0592 28.9734 11.5778 29.27C11.0963 29.5437 10.7066 29.3156 10.7066 28.7681Z" fill="#D1CABF"/>
<path d="M11.4173 27.5589C11.4173 27.4449 11.4632 27.3308 11.532 27.308C11.6008 27.2624 11.6466 27.3308 11.6466 27.4449C11.6466 27.5589 11.6008 27.673 11.532 27.6958C11.4632 27.7186 11.4173 27.673 11.4173 27.5589Z" fill="#382A2A"/>
<path d="M11.4173 29.0419C11.4173 28.9278 11.4632 28.8137 11.532 28.7909C11.6008 28.7453 11.6466 28.8137 11.6466 28.9278C11.6466 29.0419 11.6008 29.1559 11.532 29.1787C11.4632 29.2016 11.4173 29.1559 11.4173 29.0419Z" fill="#382A2A"/>
<path d="M10.8671 28.7453C10.7754 28.7909 10.7066 28.7909 10.7066 28.7225C10.7066 28.654 10.7754 28.54 10.8671 28.4943C10.9588 28.4487 11.0276 28.4487 11.0276 28.5171C11.0505 28.5856 10.9817 28.6996 10.8671 28.7453Z" fill="#382A2A"/>
<path d="M12.174 27.9923C12.0823 28.038 12.0135 28.038 12.0135 27.9695C12.0135 27.9011 12.0823 27.787 12.174 27.7414C12.2657 27.6958 12.3344 27.6958 12.3344 27.7642C12.3574 27.8326 12.2657 27.9467 12.174 27.9923Z" fill="#382A2A"/>
<path d="M10.965 29.22C10.921 29.195 10.9362 29.086 10.9989 28.9766C11.0617 28.8672 11.1482 28.7987 11.1922 28.8237C11.2362 28.8486 11.221 28.9576 11.1582 29.067C11.0955 29.1765 11.0089 29.2449 10.965 29.22Z" fill="#382A2A"/>
<path d="M11.8787 27.6432C11.8348 27.6182 11.8502 27.5092 11.9132 27.3999C11.9761 27.2906 12.0628 27.2223 12.1067 27.2474C12.1507 27.2724 12.1352 27.3813 12.0723 27.4907C12.0093 27.6 11.9227 27.6683 11.8787 27.6432Z" fill="#382A2A"/>
<path d="M12.0823 28.3575C12.151 28.4031 12.174 28.4944 12.1281 28.5628C12.0823 28.6312 11.9906 28.6769 11.9218 28.6312C11.853 28.5856 11.8301 28.4944 11.8759 28.4259C11.9218 28.3575 12.0135 28.3119 12.0823 28.3575Z" fill="#382A2A"/>
<path d="M11.1423 27.8328C11.2111 27.8784 11.234 27.9697 11.1882 28.0381C11.1423 28.1065 11.0506 28.1522 10.9818 28.1065C10.9131 28.0609 10.8901 27.9697 10.936 27.9012C11.0048 27.8328 11.0735 27.81 11.1423 27.8328Z" fill="#382A2A"/>
<path d="M11.1652 28.4488C11.1652 28.2206 11.3256 27.924 11.532 27.81C11.7383 27.6959 11.8988 27.7872 11.8988 28.0153C11.8988 28.2434 11.7383 28.54 11.532 28.6541C11.3256 28.791 11.1652 28.6997 11.1652 28.4488Z" fill="#4C3C3B"/>
<path d="M11.2797 28.4715C11.2797 28.2662 11.4402 27.9924 11.6236 27.9011C11.807 27.7871 11.9675 27.8783 11.9675 28.0836C11.9675 28.289 11.807 28.5627 11.6236 28.654C11.4173 28.7909 11.2797 28.6996 11.2797 28.4715Z" fill="#E2DACF"/>
<path d="M9.19341 20.0533L14.1685 17.2244V22.4259V26.0989L12.8616 26.8517C12.747 26.1445 12.128 25.8936 11.3714 26.327C10.6149 26.7605 9.99583 27.7187 9.8812 28.5628L7.8866 29.7035L7.22173 27.0343V26.4183L9.19341 20.0533Z" fill="#4E277A"/>
<path d="M9.19341 20.0533L14.1685 17.2244V22.4259L7.22173 26.3955L9.19341 20.0533Z" fill="#4E277A"/>
<path d="M9.17051 20.9658C9.21636 20.8061 9.35392 20.6464 9.49148 20.5551L11.3944 19.4601C11.5778 19.346 11.7383 19.4373 11.7383 19.6426V23.0875C11.7383 23.2928 11.5778 23.5437 11.3944 23.6578L8.02418 25.597C7.9554 25.6426 7.88663 25.6426 7.84077 25.597C7.79492 25.5514 7.79492 25.4601 7.81785 25.3688L9.17051 20.9658Z" fill="#1F0B3D"/>
<path d="M0.298027 25.1863L7.65743 29.4068L7.86377 30L0.527292 25.8251L0.298027 25.1863Z" fill="#F4EAED"/>
<path d="M7.6573 29.4296L8.48267 28.9506V29.6578L7.86365 30L7.6573 29.4296Z" fill="#EAE1E4"/>
<path d="M12.8159 26.8517C12.7013 26.1673 12.1052 25.9163 11.3944 26.3498C10.6837 26.7604 9.74373 27.9924 9.6291 28.8137L9.51447 28.768C9.6291 27.673 10.4315 26.4182 11.3944 25.8479C12.3574 25.3004 13.1598 25.6197 13.2744 26.6007L12.9305 26.9429L12.8159 26.8517Z" fill="#1F0B3D"/>
<path d="M12.9535 26.8973C12.8388 26.2129 12.2427 25.962 11.532 26.3954C10.8213 26.8061 10.2252 27.7186 10.1106 28.5399L9.65204 28.8137C9.76667 27.7186 10.5691 26.4639 11.532 25.8935C12.4949 25.346 13.2974 25.6654 13.412 26.6464L12.9535 26.8973Z" fill="#4E277A"/>
<path d="M7.79491 7.02661L16.2777 11.8859L16.0943 12.8897L7.40516 7.87072L7.79491 7.02661Z" fill="#4E277A"/>
<path d="M8.41399 26.9885L8.82666 26.7604V26.9885L8.41399 27.2167V26.9885Z" fill="#DD8D36"/>
<path d="M9.1935 21.057C9.23936 20.8973 9.35399 20.7604 9.49155 20.692L11.234 19.6882C11.4174 19.5969 11.5549 19.6654 11.5549 19.8479V23.019C11.5549 23.2015 11.4174 23.4525 11.234 23.5437L8.13888 25.3232C8.0701 25.3688 8.00132 25.3688 7.95547 25.3232C7.90962 25.2776 7.90962 25.2091 7.93255 25.1179L9.1935 21.057Z" fill="#523E41"/>
<path d="M2.06334 17.2927L8.57446 20.9657L7.10717 25.5285L0.59605 21.8326L2.06334 17.2927Z" fill="#523E41"/>
<path d="M4.12666 19.6197L1.03158 21.3992C0.962799 21.4448 0.894018 21.4448 0.848165 21.3992C0.802312 21.3536 0.802314 21.2851 0.825241 21.1939L1.78815 18.1368L2.06327 17.2927L4.44763 18.6387V19.095C4.44763 19.2775 4.31007 19.5285 4.12666 19.6197Z" fill="#7E676B"/>
<path d="M7.2217 26.7833L14.1455 23.019L14.1226 23.27L7.2217 27.0571V26.7833Z" fill="#F4EAED"/>
<path d="M5.8003 27.3536C5.8003 27.0799 6.00664 26.9658 6.2359 27.1027C6.4881 27.2396 6.67151 27.5818 6.67151 27.8555C6.67151 28.1293 6.46517 28.2434 6.2359 28.1065C6.00664 27.9924 5.8003 27.6502 5.8003 27.3536Z" fill="#CCBEC2"/>
<path d="M5.86905 27.4677C5.86905 27.2624 6.00661 27.1711 6.19002 27.2852C6.37343 27.3764 6.51099 27.6274 6.51099 27.8327C6.51099 28.038 6.37343 28.1065 6.19002 28.0152C6.00661 27.9011 5.86905 27.6502 5.86905 27.4677Z" fill="#F4EAED"/>
<path d="M6.14423 27.5362C6.14423 27.4449 6.21301 27.3993 6.30472 27.4449C6.39643 27.4905 6.46521 27.6274 6.46521 27.7187C6.46521 27.8099 6.39643 27.8556 6.30472 27.8099C6.21301 27.7643 6.14423 27.6274 6.14423 27.5362Z" fill="#CCBEC2"/>
<path d="M0.77943 24.4106C0.77943 24.1369 0.985768 24.0228 1.21503 24.1597C1.46722 24.2966 1.65063 24.6388 1.65063 24.9125C1.65063 25.1863 1.4443 25.3004 1.21503 25.1635C0.962841 25.0266 0.77943 24.6844 0.77943 24.4106Z" fill="#CCBEC2"/>
<path d="M0.825222 24.502C0.825222 24.2967 0.962779 24.2054 1.14619 24.3195C1.3296 24.4107 1.46716 24.6617 1.46716 24.867C1.46716 25.0723 1.3296 25.1408 1.14619 25.0495C0.985706 24.9582 0.825222 24.7073 0.825222 24.502Z" fill="#F4EAED"/>
<path d="M1.10042 24.5703C1.10042 24.4791 1.1692 24.4335 1.2609 24.4791C1.35261 24.5247 1.42139 24.6616 1.42139 24.7528C1.42139 24.8441 1.35261 24.8897 1.2609 24.8441C1.1692 24.7985 1.10042 24.6844 1.10042 24.5703Z" fill="#CCBEC2"/>
<path d="M9.19339 22.8365C9.19339 22.8137 9.21631 22.7909 9.23924 22.7681C9.26217 22.7453 9.28509 22.7453 9.30802 22.7681L9.67484 22.9962C9.76655 23.0419 9.83533 23.1559 9.83533 23.27V24.251C9.83533 24.2738 9.8124 24.2966 9.78947 24.3194C9.76655 24.3422 9.74362 24.3422 9.69777 24.3194L9.21631 24.0457C9.19339 24.0228 9.17046 24 9.17046 23.9544V22.8365H9.19339Z" fill="#6A4899"/>
<path d="M9.12454 22.8594C9.12454 22.8365 9.14746 22.8137 9.17039 22.7909C9.19332 22.7681 9.21624 22.7681 9.23917 22.7909L9.60599 23.0191C9.6977 23.0647 9.76648 23.1787 9.76648 23.2928V24.2738C9.76648 24.2966 9.74355 24.3194 9.72063 24.3422C9.6977 24.3651 9.67477 24.3651 9.62892 24.3422L9.14746 24.0685C9.12454 24.0457 9.10161 24.0229 9.10161 23.9772V22.8594H9.12454Z" fill="#1F0B3D"/>
<path d="M9.3309 22.9506H9.42261C9.42261 22.4716 9.35383 22.3119 8.87237 22.0609L8.82652 22.1522C9.26212 22.3575 9.3309 22.4944 9.3309 22.9506Z" fill="#1F0B3D"/>
<path d="M4.21843 19.2091L5.36475 19.8023L5.31889 20.3954L4.17257 19.7794L4.21843 19.2091Z" fill="#1F0B3D"/>
<path d="M4.83747 18.7528L4.90625 18.8212V19.6197L4.83747 19.5513V18.7528Z" fill="#1F0B3D"/>
<path d="M4.95204 22.2889H5.04374L5.20422 24.6616L5.08959 24.6388L4.95204 22.2889Z" fill="#3D2A2D"/>
<path d="M5.11252 21.7871L5.20422 21.8327L4.60814 23.4753L4.51643 23.4297L5.11252 21.7871Z" fill="#3D2A2D"/>
<path d="M3.78284 21.5361L3.71406 21.4905L2.38432 23.2928L2.49895 23.3156L3.78284 21.5361Z" fill="#3D2A2D"/>
<path d="M3.89746 21.0799L3.80576 21.0571L3.48478 22.6085L3.57649 22.6313L3.89746 21.0799Z" fill="#3D2A2D"/>
<path d="M2.08622 24.5931L4.90618 26.2129L5.20422 27.5817L2.38426 25.9391L2.08622 24.5931Z" fill="#CCBEC2"/>
<path d="M3.43884 25.3232L3.55347 25.3004L3.80566 26.8517H3.69103L3.43884 25.3232Z" fill="#E1E8EA"/>
<path d="M28.5892 15.8783V6.43347L16.8509 13.2548V22.5856L28.5892 15.8783Z" fill="#F7C546"/>
<path d="M0.550136 25.0038L0.297947 25.1863L0.75647 25.5285L0.550136 25.0038Z" fill="#F4EAED"/>
<path opacity="0.79" d="M28.5893 6.38774L33.8166 2.94287L34 19.0037L28.5893 15.901V6.38774Z" fill="url(#paint0_linear)"/>
<path opacity="0.79" d="M16.828 13.2319L22.0552 9.83264L22.2386 25.6653L16.828 22.6083V13.2319Z" fill="url(#paint1_linear)"/>
<defs>
<linearGradient id="paint0_linear" x1="26.0427" y1="10.565" x2="39.6392" y2="11.263" gradientUnits="userSpaceOnUse">
<stop stop-color="white"/>
<stop offset="0.4624" stop-color="white" stop-opacity="0.2"/>
<stop offset="1" stop-color="white" stop-opacity="0"/>
</linearGradient>
<linearGradient id="paint1_linear" x1="14.2907" y1="17.3517" x2="27.8675" y2="18.0487" gradientUnits="userSpaceOnUse">
<stop stop-color="white"/>
<stop offset="0.4624" stop-color="white" stop-opacity="0.2"/>
<stop offset="1" stop-color="white" stop-opacity="0"/>
</linearGradient>
</defs>
</svg>
