<svg width="24" height="22" viewBox="0 0 24 22" fill="none" xmlns="http://www.w3.org/2000/svg">
<g clip-path="url(#clip0)">
<path d="M12.6444 17.2096L14 17.9889C14 17.9889 14.5111 17.1206 13.4666 16.7421C12.4 16.3636 12.6444 17.2096 12.6444 17.2096Z" fill="#242424"/>
<path d="M20.6222 12.6011L21.9777 13.3803C21.9777 13.3803 22.4888 12.5121 21.4444 12.1336C20.3777 11.7551 20.6222 12.6011 20.6222 12.6011Z" fill="#242424"/>
<path d="M18.4223 14.36C18.4223 13.5808 18.9556 12.6234 19.6223 12.2227C19.9778 12.0223 20.2889 12.0001 20.5112 12.1336V12.0891L21.3112 12.5789C21.5778 12.668 21.7556 12.9574 21.7778 13.4027C21.7778 14.1819 21.2445 15.1392 20.5778 15.5399C20.2001 15.7626 19.8445 15.7626 19.6223 15.5845L18.8667 15.1837C18.6001 15.0724 18.4445 14.783 18.4223 14.36Z" fill="#493336"/>
<path d="M18.4223 14.36C18.4223 13.5807 18.9556 12.6234 19.6223 12.2227C20.2889 11.8219 20.8445 12.1336 20.8445 12.9128C20.8445 13.6921 20.3111 14.6494 19.6445 15.0501C19 15.4286 18.4445 15.1392 18.4223 14.36Z" fill="#493336"/>
<path d="M19.3334 14.8497C19.3334 14.0705 19.8667 13.1132 20.5334 12.7124C21.2001 12.3117 21.7556 12.6234 21.7556 13.4026C21.7556 14.1818 21.2223 15.1391 20.5556 15.5399C19.9112 15.9406 19.3556 15.6289 19.3334 14.8497Z" fill="#493336"/>
<path d="M19.7556 15.6513L18.7778 15.117L19.4889 14.694L19.7556 15.6513Z" fill="#493336"/>
<path d="M20.6 12.8906L21.4222 12.6679L20.5334 12.1113L20.6 12.8906Z" fill="#493336"/>
<path d="M19.8 14.7162C19.8 14.1596 20.1778 13.4917 20.6444 13.2246C21.1111 12.9351 21.5111 13.1578 21.5111 13.7144C21.5111 14.271 21.1333 14.9389 20.6667 15.206C20.1778 15.4732 19.8 15.2505 19.8 14.7162Z" fill="#AF979B"/>
<path d="M20.2667 14.6494C20.1333 14.8053 20 14.9611 19.9111 15.1392C19.8444 15.0279 19.8 14.8943 19.8 14.7162C19.8 14.1596 20.1778 13.4917 20.6444 13.2246C21.1111 12.9352 21.5111 13.1578 21.5111 13.7144C21.5111 13.8034 21.5111 13.9147 21.4889 14.0261C21.0889 14.0261 20.6222 14.2487 20.2667 14.6494Z" fill="#997F85"/>
<path d="M20.1334 14.4936C20.1334 14.1819 20.3556 13.7811 20.6223 13.603C20.9112 13.4472 21.1334 13.5585 21.1334 13.8924C21.1334 14.2264 20.9112 14.6049 20.6445 14.783C20.3779 14.9611 20.1556 14.8275 20.1334 14.4936Z" fill="#CEB2B8"/>
<path d="M19.6223 12.2227C19.9778 12.0223 20.2889 12.0001 20.5112 12.1336V12.0891L21.3112 12.5789H21.3334C20.7112 12.2672 18.7334 13.937 19.4889 15.4954L18.8667 15.1615C18.6 15.0501 18.4445 14.783 18.4223 14.3377C18.4223 13.5808 18.9556 12.6234 19.6223 12.2227Z" fill="#382428"/>
<path d="M20.1778 13.8256C20.1778 13.7588 20.2223 13.692 20.2667 13.6475C20.3111 13.6252 20.3778 13.6475 20.3778 13.7143C20.3778 13.7811 20.3334 13.8479 20.2889 13.8924C20.2223 13.8924 20.1778 13.8701 20.1778 13.8256Z" fill="#493336"/>
<path d="M19.9779 14.1818C19.9779 14.115 20.0223 14.0482 20.0667 14.0037C20.1112 13.9814 20.1779 14.0037 20.1779 14.0705C20.1779 14.1373 20.1334 14.2041 20.089 14.2486C20.0223 14.2709 19.9779 14.2486 19.9779 14.1818Z" fill="#493336"/>
<path d="M19.8668 14.5604C19.8668 14.4936 19.9112 14.4268 19.9557 14.3823C20.0001 14.36 20.0668 14.3823 20.0668 14.449C20.0668 14.5158 20.0223 14.5826 19.9779 14.6271C19.9112 14.6494 19.8668 14.6272 19.8668 14.5604Z" fill="#493336"/>
<path d="M19.889 14.9166C19.889 14.8498 19.9334 14.783 19.9779 14.7385C20.0223 14.7162 20.089 14.7385 20.089 14.8052C20.089 14.872 20.0445 14.9388 20.0001 14.9833C19.9334 15.0056 19.889 14.9611 19.889 14.9166Z" fill="#493336"/>
<path d="M20.0889 15.1169C20.0889 15.0501 20.1334 14.9833 20.1778 14.9388C20.2223 14.9165 20.2889 14.9388 20.2889 15.0056C20.2889 15.0724 20.2445 15.1391 20.2001 15.1837C20.1334 15.2059 20.0889 15.1837 20.0889 15.1169Z" fill="#493336"/>
<path d="M20.4001 15.0947C20.4001 15.0279 20.4445 14.9611 20.489 14.9166C20.5334 14.8943 20.6001 14.9166 20.6001 14.9833C20.6001 15.0501 20.5557 15.1169 20.5112 15.1614C20.4445 15.1837 20.4001 15.1615 20.4001 15.0947Z" fill="#493336"/>
<path d="M20.7111 14.9166C20.7111 14.8498 20.7556 14.783 20.8 14.7385C20.8445 14.7162 20.8889 14.7385 20.9111 14.8052C20.9111 14.872 20.8667 14.9388 20.8222 14.9834C20.7556 15.0056 20.7111 14.9834 20.7111 14.9166Z" fill="#493336"/>
<path d="M20.9779 14.6493C20.9779 14.5826 21.0223 14.5158 21.0667 14.4712C21.1112 14.449 21.1779 14.4712 21.1779 14.538C21.1779 14.6048 21.1334 14.6716 21.089 14.7161C21.0223 14.7384 20.9779 14.7161 20.9779 14.6493Z" fill="#493336"/>
<path d="M21.1778 14.2709C21.1778 14.2041 21.2223 14.1373 21.2667 14.0928C21.3111 14.0706 21.3778 14.0928 21.3778 14.1596C21.3778 14.2264 21.3334 14.2932 21.2889 14.3377C21.2223 14.36 21.1778 14.3377 21.1778 14.2709Z" fill="#493336"/>
<path d="M21.2222 13.8702C21.2222 13.8034 21.2667 13.7366 21.3111 13.6921C21.3556 13.6698 21.4222 13.6921 21.4222 13.7589C21.4222 13.8256 21.3778 13.8924 21.3334 13.937C21.2667 13.9592 21.2222 13.937 21.2222 13.8702Z" fill="#493336"/>
<path d="M21.1334 13.5362C21.1334 13.4694 21.1778 13.4026 21.2223 13.3581C21.2667 13.3358 21.3334 13.3581 21.3334 13.4249C21.3334 13.4917 21.2889 13.5585 21.2445 13.603C21.1778 13.6252 21.1334 13.603 21.1334 13.5362Z" fill="#493336"/>
<path d="M20.8668 13.4026C20.8668 13.3359 20.9112 13.2691 20.9557 13.2245C21.0001 13.2023 21.0668 13.2245 21.0668 13.2913C21.0668 13.3581 21.0223 13.4249 20.9779 13.4694C20.9112 13.4917 20.8668 13.4694 20.8668 13.4026Z" fill="#493336"/>
<path d="M20.5112 13.514C20.5112 13.4472 20.5556 13.3804 20.6001 13.3359C20.6445 13.3136 20.7112 13.3359 20.7112 13.4027C20.7112 13.4694 20.6667 13.5362 20.6223 13.5808C20.5556 13.603 20.5112 13.5808 20.5112 13.514Z" fill="#493336"/>
<path d="M10.5111 18.9685C10.5111 18.1893 11.0445 17.232 11.7111 16.8312C12.0667 16.6308 12.3778 16.6086 12.6 16.7422V16.6976L13.4 17.1874C13.6667 17.2765 13.8445 17.5659 13.8667 18.0112C13.8667 18.7904 13.3334 19.7477 12.6667 20.1485C12.2889 20.3711 11.9334 20.3711 11.7111 20.193L10.9556 19.7922C10.6889 19.6809 10.5111 19.3915 10.5111 18.9685Z" fill="#493336"/>
<path d="M10.5111 18.9685C10.5111 18.1893 11.0445 17.2319 11.7111 16.8312C12.3778 16.4305 12.9333 16.7421 12.9333 17.5214C12.9333 18.3006 12.4 19.2579 11.7333 19.6587C11.0667 20.0594 10.5111 19.7477 10.5111 18.9685Z" fill="#493336"/>
<path d="M11.4223 19.4582C11.4223 18.679 11.9556 17.7217 12.6223 17.3209C13.2889 16.9202 13.8445 17.2319 13.8445 18.0111C13.8445 18.7903 13.3111 19.7477 12.6445 20.1484C11.9778 20.5491 11.4223 20.2375 11.4223 19.4582Z" fill="#493336"/>
<path d="M11.8223 20.2598L10.8667 19.7255L11.5778 19.3025L11.8223 20.2598Z" fill="#493336"/>
<path d="M12.6889 17.4991L13.5111 17.2764L12.6 16.7198L12.6889 17.4991Z" fill="#493336"/>
<path d="M11.8666 19.3247C11.8666 18.7682 12.2444 18.1003 12.7111 17.8331C13.1778 17.5437 13.5778 17.7663 13.5778 18.3229C13.5778 18.8795 13.2 19.5474 12.7333 19.8145C12.2666 20.0817 11.8889 19.8591 11.8666 19.3247Z" fill="#AF979B"/>
<path d="M12.3333 19.258C12.2 19.4138 12.0666 19.5696 11.9778 19.7478C11.9111 19.6364 11.8666 19.5029 11.8666 19.3247C11.8666 18.7682 12.2444 18.1003 12.7111 17.8331C13.1778 17.5437 13.5778 17.7663 13.5778 18.3229C13.5778 18.4119 13.5778 18.5233 13.5555 18.6346C13.1555 18.6346 12.7111 18.8572 12.3333 19.258Z" fill="#997F85"/>
<path d="M12.2223 19.1243C12.2223 18.8126 12.4445 18.4119 12.7112 18.2338C13.0001 18.0779 13.2223 18.1892 13.2223 18.5232C13.2223 18.8571 13.0001 19.2356 12.7334 19.4137C12.4445 19.5696 12.2223 19.436 12.2223 19.1243Z" fill="#CEB2B8"/>
<path d="M11.7111 16.8312C12.0667 16.6308 12.3778 16.6086 12.6 16.7422V16.6976L13.4 17.1874H13.4222C12.8 16.8757 10.8222 18.5455 11.5778 20.1039L10.9556 19.77C10.6889 19.6587 10.5334 19.3915 10.5111 18.9462C10.5111 18.1893 11.0445 17.232 11.7111 16.8312Z" fill="#382428"/>
<path d="M12.2667 18.4341C12.2667 18.3673 12.3111 18.3006 12.3556 18.256C12.4 18.2338 12.4667 18.256 12.4667 18.3228C12.4667 18.3896 12.4222 18.4564 12.3778 18.5009C12.3111 18.5232 12.2667 18.5009 12.2667 18.4341Z" fill="#493336"/>
<path d="M12.0445 18.7903C12.0445 18.7235 12.089 18.6568 12.1334 18.6122C12.1778 18.59 12.2445 18.6122 12.2445 18.679C12.2445 18.7458 12.2001 18.8126 12.1556 18.8571C12.089 18.8794 12.0445 18.8571 12.0445 18.7903Z" fill="#493336"/>
<path d="M11.9556 19.1911C11.9556 19.1243 12.0001 19.0575 12.0445 19.013C12.089 18.9907 12.1556 19.013 12.1556 19.0798C12.1556 19.1466 12.1112 19.2134 12.0668 19.2579C12.0001 19.2801 11.9556 19.2356 11.9556 19.1911Z" fill="#493336"/>
<path d="M11.9779 19.5251C11.9779 19.4583 12.0223 19.3915 12.0667 19.347C12.1112 19.3247 12.1779 19.347 12.1779 19.4138C12.1779 19.4806 12.1334 19.5473 12.089 19.5919C12.0223 19.6141 11.9779 19.5919 11.9779 19.5251Z" fill="#493336"/>
<path d="M12.1556 19.7254C12.1556 19.6586 12.2 19.5918 12.2445 19.5473C12.2889 19.525 12.3556 19.5473 12.3556 19.6141C12.3556 19.6809 12.3111 19.7477 12.2667 19.7922C12.2 19.8145 12.1556 19.7922 12.1556 19.7254Z" fill="#493336"/>
<path d="M12.489 19.7032C12.489 19.6364 12.5334 19.5696 12.5779 19.5251C12.6223 19.5028 12.689 19.5251 12.689 19.5919C12.689 19.6587 12.6445 19.7254 12.6001 19.77C12.5334 19.7922 12.489 19.77 12.489 19.7032Z" fill="#493336"/>
<path d="M12.7778 19.5251C12.7778 19.4583 12.8222 19.3915 12.8667 19.347C12.9111 19.3247 12.9556 19.347 12.9778 19.4138C12.9778 19.4806 12.9333 19.5473 12.8889 19.5919C12.8222 19.6141 12.7778 19.5919 12.7778 19.5251Z" fill="#493336"/>
<path d="M13.0667 19.2579C13.0667 19.1911 13.1112 19.1243 13.1556 19.0798C13.2001 19.0575 13.2667 19.0798 13.2667 19.1466C13.2667 19.2133 13.2223 19.2801 13.1778 19.3247C13.1112 19.3469 13.0667 19.3247 13.0667 19.2579Z" fill="#493336"/>
<path d="M13.2667 18.8795C13.2667 18.8127 13.3111 18.7459 13.3556 18.7013C13.4 18.6791 13.4667 18.7013 13.4667 18.7681C13.4667 18.8349 13.4222 18.9017 13.3778 18.9462C13.3111 18.9685 13.2667 18.9462 13.2667 18.8795Z" fill="#493336"/>
<path d="M13.2889 18.4787C13.2889 18.4119 13.3333 18.3451 13.3778 18.3006C13.4222 18.2783 13.4889 18.3006 13.4889 18.3674C13.4889 18.4342 13.4444 18.501 13.4 18.5455C13.3556 18.5677 13.2889 18.5455 13.2889 18.4787Z" fill="#493336"/>
<path d="M13.2 18.1447C13.2 18.0779 13.2445 18.0111 13.2889 17.9666C13.3334 17.9443 13.4 17.9666 13.4 18.0334C13.4 18.1002 13.3556 18.167 13.3111 18.2115C13.2445 18.2338 13.2 18.2115 13.2 18.1447Z" fill="#493336"/>
<path d="M12.9556 18.0112C12.9556 17.9444 13.0001 17.8776 13.0445 17.8331C13.089 17.8108 13.1556 17.8331 13.1556 17.8998C13.1556 17.9666 13.1112 18.0334 13.0667 18.078C13.0001 18.1002 12.9556 18.078 12.9556 18.0112Z" fill="#493336"/>
<path d="M12.6 18.1225C12.6 18.0557 12.6445 17.9889 12.6889 17.9444C12.7334 17.9221 12.8 17.9444 12.8 18.0112C12.8 18.078 12.7556 18.1448 12.7112 18.1893C12.6445 18.2115 12.6 18.1893 12.6 18.1225Z" fill="#493336"/>
<path d="M16.4666 7.2356L23.6888 11.4211V12.3785L16.4666 8.19292V7.2356Z" fill="#858585"/>
<path d="M16.7778 7.0575L24 11.243L23.6889 11.4211L16.4667 7.2356L16.7778 7.0575Z" fill="#EAE1E4"/>
<path d="M23.6889 12.3785L24 12.2004V11.243L23.6889 11.4211V12.3785Z" fill="#F4EAED"/>
<path d="M3.8147e-06 9.9518L0.84445 10.4416L0.977783 10.3525L0.155559 9.88501L3.8147e-06 9.9518Z" fill="#EAE1E4"/>
<path d="M0.844452 12.5121L0.977783 12.4453V10.3525L0.844452 10.4416V12.5121Z" fill="#EAE1E4"/>
<path d="M3.62396e-05 12.0445L0.844482 12.5121V10.4416L3.62396e-05 9.95178V12.0445Z" fill="#CCBEC2"/>
<path d="M0.844477 12.2227C0.844477 12.1781 0.88892 12.1113 0.911142 12.0891C0.933364 12.0668 0.955587 12.0668 0.977809 12.0891L1.37781 12.3117L1.2667 12.5121L0.866699 12.2895C0.866699 12.2672 0.844477 12.2449 0.844477 12.2227Z" fill="#FAB800"/>
<path d="M1.24447 12.4453C1.24447 12.4898 1.28892 12.5121 1.31114 12.4898C1.35559 12.4676 1.37781 12.4008 1.37781 12.3562C1.37781 12.3117 1.35559 12.2894 1.31114 12.3117C1.28892 12.334 1.24447 12.4008 1.24447 12.4453Z" fill="#080808"/>
<path d="M9.35551 12.2004L23.2 4.18555L23.6888 7.90354V12.3785L21.9555 13.3804C21.9555 12.423 21.2888 12.0223 20.4444 12.5121C19.6 13.0019 18.9333 14.1596 18.9333 15.1392L13.9777 18.0111C13.9777 17.0538 13.3111 16.6531 12.4666 17.1429C11.6222 17.6327 10.9555 18.7904 10.9555 19.77L7.71107 21.6401L7.66662 17.2319L9.35551 12.2004Z" fill="#4E277A"/>
<path d="M23.6888 8.1261V12.3784L21.9555 13.3803C21.9555 12.4229 21.2888 12.0222 20.4444 12.512C19.6 13.0018 18.9333 14.1595 18.9333 15.1391L13.9777 18.0111C13.9777 17.0537 13.3111 16.653 12.4666 17.1428C11.6222 17.6326 10.9555 18.7903 10.9555 19.7699L7.66662 21.6623V17.1873L23.6888 8.1261Z" fill="#4E277A"/>
<path d="M8.5778 16.0965L11.9111 14.1818V11.4657L9.71113 12.7347L8.5778 16.0965Z" fill="#523E41"/>
<path d="M11.2445 15.6066C11.2445 15.6734 11.4 15.6512 11.6 15.5399C11.8 15.4285 11.9556 15.2727 11.9556 15.2059C11.9556 15.1391 11.8 15.1614 11.6 15.2727C11.4 15.384 11.2445 15.5399 11.2445 15.6066Z" fill="#1F0B3D"/>
<path d="M14.8889 9.97405V12.4898L17.0222 11.2431V8.72729L14.8889 9.97405Z" fill="#523E41"/>
<path d="M18.1778 7.83668V10.5528L22.7556 7.90347L22.4223 5.3877L18.1778 7.83668Z" fill="#523E41"/>
<path d="M0.444479 13.0242L7.6667 17.1874L9.35559 12.2004L2.11115 8.01489L0.444479 13.0242Z" fill="#6A4899"/>
<path d="M0.755547 12.9796L7.46666 16.8757L7.53333 16.6976L0.99999 12.9351L2.5111 8.43786L2.3111 8.32654L0.755547 12.9796Z" fill="#4E277A"/>
<path d="M0.99999 12.9351L7.53332 16.6976L9.04443 12.2227L2.5111 8.43787L0.99999 12.9351Z" fill="#523E41"/>
<path d="M1.24447 12.2227L4.91113 9.84046L2.51114 8.43787L1.24447 12.2227Z" fill="#604B50"/>
<path d="M0.444405 17.4769L7.66663 21.6401V17.1874L0.444405 13.0242V17.4769Z" fill="#6A4899"/>
<path d="M5.68882 17.9443C5.68882 18.3005 5.93326 18.7458 6.24437 18.9239C6.55548 19.102 6.79993 18.9684 6.79993 18.59C6.79993 18.2338 6.55548 17.7885 6.24437 17.6104C5.93326 17.4323 5.68882 17.5881 5.68882 17.9443Z" fill="#CCBEC2"/>
<path d="M6.82221 18.6123C6.82221 18.256 6.57777 17.8108 6.26666 17.6327C6.1111 17.5436 5.97777 17.5436 5.88888 17.5881L6.08888 17.4768C6.19999 17.41 6.33332 17.4323 6.48888 17.5213C6.79999 17.6995 7.04443 18.1447 7.04443 18.5009C7.04443 18.7013 6.97777 18.8126 6.86666 18.8794L6.66666 18.9907C6.75555 18.9017 6.82221 18.7904 6.82221 18.6123Z" fill="#EAE1E4"/>
<path d="M5.79998 18.0111C5.79998 18.3005 5.99998 18.6567 6.24442 18.7903C6.37775 18.8794 6.51109 18.8794 6.59998 18.8126C6.51109 18.8571 6.4222 18.8349 6.28887 18.7681C6.04442 18.6345 5.84442 18.2783 5.84442 17.9888C5.84442 17.8553 5.88887 17.7662 5.95553 17.7217C5.86664 17.7662 5.79998 17.8553 5.79998 18.0111Z" fill="#808080"/>
<path d="M5.84439 17.9889C5.84439 18.2784 6.04439 18.6346 6.28884 18.7682C6.39995 18.835 6.51106 18.8572 6.59995 18.8127C6.66662 18.7682 6.71106 18.6568 6.71106 18.5455C6.71106 18.2561 6.51106 17.8999 6.26662 17.7663C6.1555 17.6995 6.04439 17.6772 5.95551 17.7218C5.88884 17.7663 5.84439 17.8554 5.84439 17.9889Z" fill="#FAB800"/>
<path d="M0.644503 15.1836C0.644503 15.5398 0.888947 15.9851 1.20006 16.1632C1.51117 16.3413 1.75562 16.2077 1.75562 15.8292C1.75562 15.473 1.51117 15.0277 1.20006 14.8496C0.91117 14.6715 0.644503 14.8274 0.644503 15.1836Z" fill="#CCBEC2"/>
<path d="M1.77778 15.8515C1.77778 15.4953 1.53333 15.05 1.22222 14.8719C1.06667 14.7829 0.933337 14.7829 0.844448 14.8274L1.04445 14.7161C1.15556 14.6493 1.28889 14.6716 1.44445 14.7606C1.75556 14.9165 2 15.3617 2 15.7179C2 15.9183 1.93333 16.0296 1.82222 16.0964L1.62222 16.2077C1.71111 16.1409 1.77778 16.0296 1.77778 15.8515Z" fill="#EAE1E4"/>
<path d="M0.755543 15.2504C0.755543 15.5398 0.955543 15.896 1.19999 16.0296C1.33332 16.1186 1.46665 16.1186 1.55554 16.0518C1.46665 16.0964 1.37776 16.0741 1.24443 16.0073C0.999986 15.8737 0.799986 15.5175 0.799986 15.2281C0.799986 15.0945 0.844431 15.0055 0.911098 14.9609C0.822209 15.0055 0.755543 15.0945 0.755543 15.2504Z" fill="#808080"/>
<path d="M0.799959 15.2282C0.799959 15.5176 0.999959 15.8738 1.2444 16.0074C1.35551 16.0742 1.46663 16.0965 1.55551 16.0519C1.62218 16.0074 1.66663 15.8961 1.66663 15.7848C1.66663 15.4954 1.46663 15.1391 1.22218 15.0056C1.11107 14.9388 0.999959 14.9165 0.91107 14.961C0.844404 15.0056 0.799959 15.0946 0.799959 15.2282Z" fill="#FAB800"/>
<path d="M22.4222 5.3877L22.6888 7.30235L20.8888 6.27823L22.4222 5.3877Z" fill="#604B50"/>
<path d="M8.33324 16.564C8.33324 16.5194 8.35547 16.4527 8.39991 16.4304C8.42213 16.4081 8.44435 16.4081 8.46658 16.4304L8.86658 16.653L8.75547 16.8534L8.35547 16.6308C8.35547 16.5862 8.33324 16.5862 8.33324 16.564Z" fill="#FAB800"/>
<path d="M8.73324 16.7866C8.73324 16.8311 8.77768 16.8534 8.7999 16.8311C8.86657 16.8089 8.88879 16.7421 8.88879 16.6975C8.88879 16.653 8.86657 16.6308 8.82213 16.653C8.77768 16.6753 8.73324 16.7421 8.73324 16.7866Z" fill="#FF6A00"/>
<path d="M8.73328 15.0056L9.5555 15.4954L9.71106 15.4063L8.88884 14.9165L8.73328 15.0056Z" fill="#EAE1E4"/>
<path d="M9.5555 17.5658L9.71106 17.4768V15.4062L9.5555 15.4953V17.5658Z" fill="#EAE1E4"/>
<path d="M8.73332 17.0984L9.55554 17.5659V15.4954L8.73332 15.0056V17.0984Z" fill="#CCBEC2"/>
<path d="M0.133242 16.6753L7.37769 20.8608V21.8181L0.133242 17.6326V16.6753Z" fill="#CCBEC2"/>
<path d="M0.444405 16.4972L7.66663 20.6827L7.37774 20.8608L0.133293 16.6753L0.444405 16.4972Z" fill="#EAE1E4"/>
<path d="M7.37774 21.8182L7.66663 21.6401V20.6827L7.37774 20.8608V21.8182Z" fill="#EAE1E4"/>
<path d="M2.11106 8.01484L15.9555 0L23.2 4.18553L9.35551 12.2004L2.11106 8.01484Z" fill="#6A4899"/>
<path opacity="0.3" d="M18.3554 5.20972H19.2666L19.4443 5.32103H18.5999L15.0443 7.36927H15.511V7.59191H14.6888L10.9554 9.75146H11.4443L11.6221 9.84052H10.3554L18.3554 5.20972Z" fill="black"/>
<path d="M11.7332 8.81635L19.2666 4.47498L19.4443 4.56403L11.911 8.92766L11.7332 8.81635Z" fill="#EAE1E4"/>
<path d="M19.2666 5.2097L19.4443 5.32102L19.2443 4.92028L19.0666 4.80896L19.2666 5.2097Z" fill="#333333"/>
<path d="M15.3556 7.48057L15.5111 7.59188V7.05756L15.3556 6.96851V7.48057Z" fill="#333333"/>
<path d="M11.4443 9.75147L11.6221 9.84053L11.911 8.92772L11.7332 8.81641L11.4443 9.75147Z" fill="#CCBEC2"/>
<path d="M11.9111 8.92772L19.4444 4.56409L19.7111 5.1652L19.4444 5.32104L19.2444 4.9203L15.8222 6.90175V7.41381L15.5111 7.59192V7.05759L12.1111 9.03904L11.8888 9.68468L11.6222 9.84052L11.9111 8.92772Z" fill="#F4EAED"/>
<path opacity="0.3" d="M13.1111 2.29309H14.0444L14.2 2.38214H13.3777L9.82217 4.43038H10.2888V4.65302H9.4444L5.73328 6.81257H6.22217L6.39995 6.90163L5.11106 6.92389L13.1111 2.29309Z" fill="black"/>
<path d="M6.48884 5.87751L14.0222 1.53613L14.2 1.62519L6.66662 5.98882L6.48884 5.87751Z" fill="#EAE1E4"/>
<path d="M14.0444 2.29308L14.2 2.38213L14 1.98139L13.8222 1.89233L14.0444 2.29308Z" fill="#333333"/>
<path d="M10.1112 4.56399L10.2889 4.65304V4.14098L10.1112 4.02966V4.56399Z" fill="#333333"/>
<path d="M6.22218 6.81263L6.39996 6.90168L6.66663 5.98888L6.48885 5.87756L6.22218 6.81263Z" fill="#CCBEC2"/>
<path d="M6.66667 5.98888L14.2 1.62524L14.4889 2.22636L14.2 2.3822L14 1.98146L10.5778 3.96291V4.47497L10.2889 4.65307V4.14101L6.86667 6.1002L6.66667 6.74584L6.40001 6.90168L6.66667 5.98888Z" fill="#F4EAED"/>
<path d="M5.46667 18.5454V17.2541L2.35556 15.4508V16.7421L5.46667 18.5454Z" fill="#F4EAED"/>
<path d="M5.1333 18.1447L5.11108 17.321L2.59997 15.8516V16.6753L5.1333 18.1447Z" fill="#CCBEC2"/>
<path d="M23.8 8.05933L12.3556 14.6493V15.2059L23.8 8.61591V8.05933Z" fill="#F4EAED"/>
<path d="M23.6889 8.03711L23.8 8.05937L12.3556 14.6494L12.2445 14.5826L23.6889 8.03711Z" fill="#EAE1E4"/>
<path d="M12.2445 14.5825V15.1614L12.3556 15.2059V14.6493L12.2445 14.5825Z" fill="#CCBEC2"/>
</g>
<defs>
<clipPath id="clip0">
<rect width="24" height="21.8182" fill="white" transform="matrix(-1 0 0 1 24 0)"/>
</clipPath>
</defs>
</svg>
