<svg width="30" height="24" viewBox="0 0 30 24" fill="none" xmlns="http://www.w3.org/2000/svg">
<path d="M29.0249 9.75464L29.741 10.124V10.2857L29.0249 9.9278V9.75464Z" fill="#7E676B"/>
<path d="M26.2299 12.2829L25.3521 11.8904L26.1952 11.7288L26.2299 12.2829Z" fill="#26143F"/>
<path d="M0.75071 20.4675L1.01636 20.3059L0.970157 20.5945L0.75071 20.4675Z" fill="#B29EA5"/>
<path d="M10.3718 21.5064L9.51714 21.0331L10.4642 20.86L10.3718 21.5064Z" fill="#26143F"/>
<path d="M8.32743 22.3609C8.32743 21.8991 8.63928 21.3334 9.04353 21.091C9.25142 20.964 9.44777 20.9525 9.57482 21.0448V21.0218L10.0484 21.3104C10.2101 21.3681 10.314 21.5412 10.3256 21.8067C10.3256 22.2685 10.0137 22.8342 9.60947 23.0766C9.37847 23.2151 9.18212 23.2151 9.04353 23.0997L8.59308 22.8573C8.43138 22.788 8.32743 22.6148 8.32743 22.3609Z" fill="#493336"/>
<path d="M8.32743 22.3608C8.32743 21.899 8.63928 21.3333 9.04352 21.0909C9.44777 20.8485 9.77116 21.0332 9.78271 21.495C9.78271 21.9567 9.47087 22.5224 9.06662 22.7648C8.66238 23.0072 8.33898 22.8225 8.32743 22.3608Z" fill="#493336"/>
<path d="M8.87029 22.6609C8.87029 22.1992 9.18213 21.6335 9.58637 21.3911C9.99062 21.1487 10.314 21.3334 10.3256 21.7951C10.3256 22.2569 10.0137 22.8225 9.60947 23.065C9.20523 23.3074 8.88183 23.1227 8.87029 22.6609Z" fill="#493336"/>
<path d="M9.11279 23.1343L8.53531 22.8226L8.96265 22.5686L9.11279 23.1343Z" fill="#493336"/>
<path d="M9.62103 21.4949L10.1177 21.3564L9.57483 21.0216L9.62103 21.4949Z" fill="#493336"/>
<path d="M9.14748 22.58C9.14748 22.2568 9.36692 21.8528 9.65567 21.6911C9.93287 21.5295 10.1639 21.6565 10.1754 21.9797C10.1754 22.303 9.95597 22.707 9.66722 22.8686C9.37847 23.0302 9.14748 22.9033 9.14748 22.58Z" fill="#AF979B"/>
<path d="M9.41308 22.5454C9.33223 22.6378 9.26293 22.7301 9.20518 22.834C9.15899 22.7763 9.13589 22.6839 9.13589 22.58C9.13589 22.2568 9.35533 21.8528 9.64408 21.6911C9.92127 21.5295 10.1523 21.6565 10.1638 21.9797C10.1638 22.0375 10.1523 22.0952 10.1407 22.1645C9.90972 22.1645 9.64408 22.303 9.41308 22.5454Z" fill="#997F85"/>
<path d="M9.35535 22.4531C9.35535 22.2569 9.48239 22.026 9.65564 21.9221C9.81734 21.8182 9.95593 21.899 9.95593 22.0953C9.95593 22.2915 9.82889 22.5224 9.65564 22.6263C9.49394 22.7186 9.35535 22.6494 9.35535 22.4531Z" fill="#CEB2B8"/>
<path d="M9.04355 21.1025C9.25144 20.9755 9.44779 20.964 9.57484 21.0563V21.0332L10.0484 21.3218C10.0484 21.3218 10.0599 21.3218 10.0599 21.3334C9.69034 21.1487 8.5007 22.1415 8.95115 23.065L8.58155 22.8687C8.41985 22.811 8.32745 22.6378 8.3159 22.3839C8.32745 21.899 8.65085 21.3334 9.04355 21.1025Z" fill="#382428"/>
<path d="M9.37851 22.0375C9.37851 22.0029 9.40161 21.9567 9.43626 21.9336C9.47092 21.9105 9.49402 21.9336 9.49402 21.9682C9.49402 22.0029 9.47092 22.0491 9.43626 22.0721C9.40161 22.0952 9.37851 22.0837 9.37851 22.0375Z" fill="#493336"/>
<path d="M9.25144 22.2569C9.25144 22.2222 9.27454 22.1761 9.30919 22.153C9.34384 22.1299 9.36694 22.153 9.36694 22.1876C9.36694 22.2222 9.34384 22.2684 9.30919 22.2915C9.27454 22.3146 9.25144 22.303 9.25144 22.2569Z" fill="#493336"/>
<path d="M9.18212 22.4877C9.18212 22.4531 9.20522 22.4069 9.23987 22.3838C9.27451 22.3607 9.29761 22.3838 9.29761 22.4184C9.29761 22.4531 9.27451 22.4993 9.23987 22.5223C9.21677 22.5454 9.18212 22.5339 9.18212 22.4877Z" fill="#493336"/>
<path d="M9.20518 22.6956C9.20518 22.661 9.22828 22.6148 9.26293 22.5917C9.29758 22.5686 9.32068 22.5917 9.32068 22.6263C9.32068 22.661 9.29758 22.7071 9.26293 22.7302C9.22828 22.7418 9.20518 22.7302 9.20518 22.6956Z" fill="#493336"/>
<path d="M9.30918 22.8225C9.30918 22.7879 9.33228 22.7417 9.36693 22.7186C9.40158 22.6956 9.42468 22.7186 9.42468 22.7533C9.42468 22.7879 9.40158 22.8341 9.36693 22.8572C9.34383 22.8687 9.30918 22.8572 9.30918 22.8225Z" fill="#493336"/>
<path d="M9.50546 22.7995C9.50546 22.7648 9.52857 22.7187 9.56322 22.6956C9.59787 22.6725 9.62097 22.6956 9.62097 22.7302C9.62097 22.7648 9.59787 22.811 9.56322 22.8341C9.54012 22.8572 9.50546 22.8456 9.50546 22.7995Z" fill="#493336"/>
<path d="M9.67881 22.6956C9.67881 22.661 9.70191 22.6148 9.73656 22.5917C9.77121 22.5686 9.79431 22.5917 9.79431 22.6263C9.79431 22.661 9.77121 22.7071 9.73656 22.7302C9.71346 22.7533 9.67881 22.7418 9.67881 22.6956Z" fill="#493336"/>
<path d="M9.85203 22.5454C9.85203 22.5108 9.87513 22.4646 9.90978 22.4415C9.94443 22.4185 9.96753 22.4415 9.96753 22.4762C9.96753 22.5108 9.94443 22.557 9.90978 22.5801C9.88668 22.5916 9.85203 22.5801 9.85203 22.5454Z" fill="#493336"/>
<path d="M9.96751 22.3146C9.96751 22.28 9.99061 22.2338 10.0253 22.2107C10.0599 22.1876 10.083 22.2107 10.083 22.2453C10.083 22.28 10.0599 22.3261 10.0253 22.3492C10.0022 22.3608 9.96751 22.3492 9.96751 22.3146Z" fill="#493336"/>
<path d="M9.99058 22.0837C9.99058 22.049 10.0137 22.0028 10.0483 21.9798C10.083 21.9567 10.1061 21.9798 10.1061 22.0144C10.1061 22.049 10.083 22.0952 10.0483 22.1183C10.0252 22.1298 9.99058 22.1183 9.99058 22.0837Z" fill="#493336"/>
<path d="M9.94444 21.8759C9.94444 21.8413 9.96754 21.7951 10.0022 21.772C10.0368 21.7489 10.0599 21.772 10.0599 21.8066C10.0599 21.8413 10.0368 21.8874 10.0022 21.9105C9.96754 21.9221 9.94444 21.9105 9.94444 21.8759Z" fill="#493336"/>
<path d="M9.7827 21.7951C9.7827 21.7604 9.8058 21.7143 9.84044 21.6912C9.87509 21.6681 9.89819 21.6912 9.89819 21.7258C9.89819 21.7604 9.87509 21.8066 9.84044 21.8297C9.81735 21.8413 9.7827 21.8297 9.7827 21.7951Z" fill="#493336"/>
<path d="M9.57481 21.8644C9.57481 21.8298 9.59791 21.7836 9.63256 21.7605C9.66721 21.7374 9.69031 21.7605 9.69031 21.7951C9.69031 21.8298 9.66721 21.876 9.63256 21.899C9.59791 21.9106 9.57481 21.899 9.57481 21.8644Z" fill="#493336"/>
<path d="M24.1855 13.1372C24.1855 12.6755 24.4973 12.1098 24.9016 11.8674C25.1095 11.7404 25.3058 11.7289 25.4329 11.8212V11.7981L25.9064 12.0867C26.0681 12.1444 26.172 12.3176 26.1836 12.5831C26.1836 13.0449 25.8717 13.6105 25.4675 13.853C25.2365 13.9915 25.0402 13.9915 24.9016 13.876L24.4511 13.6336C24.2894 13.5644 24.1855 13.3912 24.1855 13.1372Z" fill="#493336"/>
<path d="M24.1855 13.1371C24.1855 12.6754 24.4973 12.1097 24.9016 11.8673C25.3058 11.6249 25.6292 11.8096 25.6407 12.2713C25.6407 12.7331 25.3289 13.2987 24.9247 13.5412C24.5204 13.7836 24.197 13.5989 24.1855 13.1371Z" fill="#493336"/>
<path d="M24.7283 13.4373C24.7283 12.9755 25.0402 12.4099 25.4444 12.1675C25.8486 11.925 26.172 12.1097 26.1836 12.5715C26.1836 13.0333 25.8717 13.5989 25.4675 13.8413C25.0633 14.0838 24.7283 13.8991 24.7283 13.4373Z" fill="#493336"/>
<path d="M24.9708 13.9106L24.3933 13.5989L24.8207 13.345L24.9708 13.9106Z" fill="#493336"/>
<path d="M25.4791 12.2597L25.9757 12.1327L25.4329 11.798L25.4791 12.2597Z" fill="#493336"/>
<path d="M25.0055 13.3564C25.0055 13.0332 25.225 12.6291 25.5137 12.4675C25.7909 12.3059 26.0219 12.4329 26.0334 12.7561C26.0334 13.0794 25.814 13.4834 25.5253 13.645C25.2365 13.8066 25.0055 13.6796 25.0055 13.3564Z" fill="#AF979B"/>
<path d="M25.2711 13.3103C25.1903 13.4026 25.121 13.495 25.0632 13.5989C25.017 13.5412 24.9939 13.4488 24.9939 13.3449C24.9939 13.0217 25.2134 12.6177 25.5021 12.456C25.7793 12.2944 26.0103 12.4214 26.0219 12.7446C26.0219 12.8024 26.0103 12.8601 25.9988 12.9293C25.7678 12.9409 25.5021 13.0794 25.2711 13.3103Z" fill="#997F85"/>
<path d="M25.2134 13.2295C25.2134 13.0332 25.3404 12.8024 25.5137 12.6985C25.6754 12.5946 25.814 12.6754 25.814 12.8716C25.814 13.0679 25.6869 13.2988 25.5137 13.4026C25.352 13.495 25.2134 13.4257 25.2134 13.2295Z" fill="#CEB2B8"/>
<path d="M24.9016 11.8673C25.1095 11.7403 25.3058 11.7287 25.4329 11.8211V11.798L25.9064 12.0866C25.9064 12.0866 25.918 12.0866 25.918 12.0981C25.5484 11.9134 24.3587 12.9062 24.8092 13.8297L24.4396 13.6335C24.2779 13.5758 24.1855 13.4026 24.1739 13.1486C24.1855 12.6753 24.4973 12.1097 24.9016 11.8673Z" fill="#382428"/>
<path d="M25.2366 12.8139C25.2366 12.7792 25.2597 12.7331 25.2943 12.71C25.329 12.6869 25.3521 12.71 25.3521 12.7446C25.3521 12.7792 25.329 12.8254 25.2943 12.8485C25.2597 12.8716 25.2366 12.86 25.2366 12.8139Z" fill="#493336"/>
<path d="M25.0979 13.0332C25.0979 12.9986 25.121 12.9524 25.1556 12.9293C25.1903 12.9062 25.2134 12.9293 25.2134 12.964C25.2134 12.9986 25.1903 13.0448 25.1556 13.0679C25.1325 13.091 25.1094 13.0794 25.0979 13.0332Z" fill="#493336"/>
<path d="M25.0401 13.2641C25.0401 13.2294 25.0632 13.1833 25.0979 13.1602C25.1325 13.1371 25.1556 13.1602 25.1556 13.1948C25.1556 13.2294 25.1325 13.2756 25.0979 13.2987C25.0748 13.3218 25.0401 13.3102 25.0401 13.2641Z" fill="#493336"/>
<path d="M25.0632 13.472C25.0632 13.4373 25.0863 13.3911 25.121 13.3681C25.1556 13.345 25.1787 13.3681 25.1787 13.4027C25.1787 13.4373 25.1556 13.4835 25.121 13.5066C25.0863 13.5181 25.0632 13.5066 25.0632 13.472Z" fill="#493336"/>
<path d="M25.1672 13.5989C25.1672 13.5643 25.1903 13.5181 25.225 13.495C25.2596 13.4719 25.2827 13.495 25.2827 13.5296C25.2827 13.5643 25.2596 13.6105 25.225 13.6335C25.2019 13.6451 25.1672 13.6335 25.1672 13.5989Z" fill="#493336"/>
<path d="M25.3635 13.5758C25.3635 13.5412 25.3866 13.495 25.4213 13.4719C25.4559 13.4489 25.479 13.4719 25.479 13.5066C25.479 13.5412 25.4559 13.5874 25.4213 13.6105C25.3866 13.6336 25.3635 13.6105 25.3635 13.5758Z" fill="#493336"/>
<path d="M25.5368 13.472C25.5368 13.4373 25.5599 13.3911 25.5946 13.3681C25.6292 13.345 25.6523 13.3681 25.6523 13.4027C25.6523 13.4373 25.6292 13.4835 25.5946 13.5066C25.5715 13.5297 25.5368 13.5066 25.5368 13.472Z" fill="#493336"/>
<path d="M25.7101 13.3218C25.7101 13.2872 25.7332 13.241 25.7678 13.2179C25.8025 13.1948 25.8256 13.2179 25.8256 13.2525C25.8256 13.2872 25.8025 13.3334 25.7678 13.3564C25.7332 13.368 25.7101 13.3564 25.7101 13.3218Z" fill="#493336"/>
<path d="M25.8255 13.091C25.8255 13.0563 25.8486 13.0102 25.8833 12.9871C25.9179 12.964 25.941 12.9871 25.941 13.0217C25.941 13.0563 25.9179 13.1025 25.8833 13.1256C25.8486 13.1371 25.8255 13.1256 25.8255 13.091Z" fill="#493336"/>
<path d="M25.8486 12.86C25.8486 12.8254 25.8717 12.7792 25.9064 12.7561C25.941 12.733 25.9641 12.7561 25.9641 12.7908C25.9641 12.8254 25.941 12.8716 25.9064 12.8946C25.8833 12.9062 25.8486 12.8946 25.8486 12.86Z" fill="#493336"/>
<path d="M25.7909 12.6523C25.7909 12.6176 25.814 12.5714 25.8486 12.5484C25.8833 12.5253 25.9064 12.5484 25.9064 12.583C25.9064 12.6176 25.8833 12.6638 25.8486 12.6869C25.8255 12.6984 25.8024 12.6869 25.7909 12.6523Z" fill="#493336"/>
<path d="M25.6407 12.5714C25.6407 12.5368 25.6638 12.4906 25.6985 12.4675C25.7331 12.4445 25.7562 12.4675 25.7562 12.5022C25.7562 12.5368 25.7331 12.583 25.6985 12.6061C25.6754 12.6176 25.6407 12.6061 25.6407 12.5714Z" fill="#493336"/>
<path d="M25.4328 12.6408C25.4328 12.6061 25.4559 12.56 25.4906 12.5369C25.5252 12.5138 25.5483 12.5369 25.5483 12.5715C25.5483 12.6061 25.5252 12.6523 25.4906 12.6754C25.4559 12.687 25.4328 12.6754 25.4328 12.6408Z" fill="#493336"/>
<path d="M0.900949 13.7143L24.4743 0.103882L29.4176 2.78209L5.80965 16.4848L0.900949 13.7143Z" fill="#F4EAED"/>
<path d="M11.2727 12.2251L10.7645 12.1212L7.65753 10.355L14.2063 6.55701L14.7607 6.58009L17.2555 8.66956L11.2727 12.2251Z" fill="#D3C5CB"/>
<path d="M0.0577556 14.9957C0.0693057 14.9841 0.0924049 14.9841 0.103955 14.9841C0.103955 14.9726 0.115506 14.9726 0.127056 14.9726C0.150156 14.961 0.173256 14.961 0.184806 14.9726L0.300306 15.0418C0.346506 14.8918 0.508206 14.7648 0.993306 14.8571L1.02795 14.9379C0.589054 14.8571 0.438906 14.9495 0.381156 15.088L0.577505 15.1919C0.612155 15.215 0.635255 15.2496 0.635255 15.2958V16.404C0.635255 16.4271 0.623705 16.4387 0.600605 16.4502C0.589055 16.4617 0.565956 16.4617 0.554406 16.4617C0.554406 16.4733 0.542856 16.4733 0.531306 16.4733C0.508206 16.4848 0.485106 16.4848 0.473556 16.4733L0.0577556 16.254C0.0231057 16.2309 5.72205e-06 16.2078 5.72205e-06 16.1616V15.0534C0.0346557 15.0187 0.0462056 15.0072 0.0577556 14.9957Z" fill="#4E277A"/>
<path d="M0.993284 13.8644L6.10988 16.6811L6.29468 22.4531L6.10988 23.9192L0.993284 21.0563V13.8644Z" fill="#4E277A"/>
<path d="M0.993265 14.5917L6.10986 17.5469V22.3839L0.993265 19.4286V14.5917Z" fill="#CCBEC2"/>
<path d="M0.750727 20.4559L6.05212 23.5151V23.9999L0.750727 20.9408V20.4559Z" fill="#B29EA5"/>
<path d="M0.993277 14.5454L6.20227 17.5007L6.10987 21.9682L0.993277 19.0129V14.5454Z" fill="#3D2A2D"/>
<path d="M1.09727 14.8917L5.91357 17.6738V21.6681L1.09727 18.886V14.8917Z" fill="#523E41"/>
<path d="M1.09727 18.2626L3.98474 16.5425L1.09727 14.8917V18.2626Z" fill="#604B50"/>
<path d="M2.54097 15.7345L2.67957 15.8038V18.1241H2.54097V15.7345Z" fill="#523E41"/>
<path d="M0.947172 14.0491L6.07532 16.9351L5.99447 17.5815L0.924072 14.6609L0.947172 14.0491Z" fill="#6A4899"/>
<path d="M0.923991 13.6912L5.83269 16.4617L5.99438 17.4545L0.877792 14.4992L0.923991 13.6912Z" fill="#4E277A"/>
<path d="M25.4098 11.9942C24.9478 12.2482 24.7745 12.7446 24.7168 13.1486L10.3372 21.4603C10.2794 21.1255 10.0022 20.9639 9.65572 21.1601C9.06667 21.4834 8.87033 21.9336 8.81258 22.3376L6.09835 23.9076V22.2222L6.46795 16.6349L29.6486 3.92493L29.637 10.3088L26.2067 12.2828C26.1489 11.948 25.8602 11.7518 25.4098 11.9942Z" fill="#4E277A"/>
<path d="M6.10995 22.3839V21.9683L6.2832 18.7129L29.6602 5.06787V8.7735L19.7735 14.4878L17.8446 15.596L6.10995 22.3839Z" fill="#D8D6D7"/>
<path d="M6.10995 17.3853L28.7246 4.34058V7.9654L19.2075 13.4603L17.5328 15.3767L6.10995 21.9683V17.3853Z" fill="#493336"/>
<path d="M0.750736 20.4675L0.981734 20.4098L6.14453 23.3881L5.98283 23.4805L0.750736 20.4675Z" fill="#CCBEC2"/>
<path d="M5.78647 23.3766H6.10987L6.24847 23.2958L6.35242 23.365L6.05212 23.5267L5.78647 23.3766Z" fill="#F4EAED"/>
<path d="M6.05212 23.5267L6.35242 23.3535V23.8268L6.05212 24V23.5267Z" fill="#E7E3E4"/>
<path d="M11.3997 11.1053L17.3017 7.69983L18.0409 8.32321L11.2727 12.2366L11.3997 11.1053Z" fill="#4E277A"/>
<path d="M6.36407 17.5123L8.1543 16.4849V20.583L6.36407 21.6219V17.5123Z" fill="#7E676B"/>
<path d="M15.1419 12.4329L19.0227 10.205V13.2641L17.4981 15.0881L15.1535 16.5195L15.1419 12.4329Z" fill="#7E676B"/>
<path d="M19.2536 10.078L21.9563 8.51953V11.6133L19.2536 13.1718V10.078Z" fill="#7E676B"/>
<path d="M25.814 6.27993L28.5975 4.73303V7.82683L25.814 9.38527V6.27993Z" fill="#7E676B"/>
<path d="M29.4176 2.75903L5.75186 16.4156L5.9944 17.5815L29.6486 3.92498L29.4176 2.75903Z" fill="#EAE1E4"/>
<path d="M6.35242 16.4041L6.06367 16.5657V17.2237L6.35242 17.0505V16.4041Z" fill="#FAB800"/>
<path d="M12.7972 14.0375L15.0841 12.71V18.7359L12.7972 20.052V14.0375Z" fill="#493336"/>
<path d="M29.6486 3.79797L5.9944 17.4545V17.5815L29.6486 3.92496V3.79797Z" fill="#6A4899"/>
<path d="M26.1836 12.1905L29.741 10.1241V10.2858L26.2067 12.3406C26.2067 12.2829 26.1952 12.2367 26.1836 12.1905Z" fill="#E7E3E4"/>
<path d="M8.85876 22.2222C8.84721 22.2799 8.83567 22.3376 8.83567 22.3953L6.0637 23.9884V23.8268L8.85876 22.2222Z" fill="#E7E3E4"/>
<path d="M5.13973 16.2655L5.22058 16.8196L1.62857 14.7417L1.67477 14.303L5.13973 16.2655Z" fill="#FAB800"/>
<path d="M16.5971 7.76907L18.1102 6.89172L18.3065 7.05334L16.5625 8.05767L16.5971 7.76907Z" fill="#4E277A"/>
<path d="M15.9735 7.42283L17.4981 6.53394L18.1218 6.8918L16.5972 7.78069L15.9735 7.42283Z" fill="#6A4899"/>
<path d="M14.9224 6.91492L16.2391 7.67682L16.1698 8.26557L14.4374 7.26124L14.9224 6.91492Z" fill="#BAAF49"/>
<path d="M8.95124 9.7432L14.8763 6.32617L17.3134 7.69991L11.3883 11.1516L8.95124 9.7432Z" fill="#6A4899"/>
<path d="M17.1748 7.71145L14.807 6.37235L14.8763 6.32617L17.3134 7.69991L11.3883 11.1516L11.3305 11.1169L17.1748 7.71145Z" fill="#7F69A3"/>
<path d="M10.4295 9.62769L11.3997 10.1818L11.3304 10.228L10.3602 9.66232L10.4295 9.62769Z" fill="#DDCAFC"/>
<path d="M10.649 9.51221L11.6191 10.0779L11.5498 10.1125L10.5797 9.55838L10.649 9.51221Z" fill="#DDCAFC"/>
<path d="M10.9262 9.40833L11.8964 9.96243L11.8271 10.0086L10.8569 9.44296L10.9262 9.40833Z" fill="#DDCAFC"/>
<path d="M8.96276 9.74316L11.3998 11.1515L11.2843 12.2367L8.05032 10.3665L8.96276 9.74316Z" fill="#4E277A"/>
<path opacity="0.1" d="M5.93665 19.6248L1.09725 18.886L5.91355 21.6681L5.93665 19.6248Z" fill="#968387"/>
<path d="M3.17624 16.0808H3.34949V20.2136H3.17624V16.0808Z" fill="#3D2A2D"/>
<path d="M5.39384 22.2454L6.09839 22.6494V23.2497L5.39384 22.8457V22.2454Z" fill="#493336"/>
<path d="M0.981737 19.6479L1.68628 20.0635V20.6638L0.981737 20.2598V19.6479Z" fill="#493336"/>
<path d="M6.47947 22.6493L6.74512 22.4993V22.6609L6.47947 22.811V22.6493Z" fill="#493336"/>
<path d="M12.7511 17.951L8.3275 20.4907V16.381L12.7511 13.8413V17.951Z" fill="#7E676B"/>
<path d="M22.1411 8.41554L25.6407 6.38379V9.48913L22.1411 11.5093V8.41554Z" fill="#7E676B"/>
<path d="M2.40236 20.4906L4.12329 21.5065V22.0721L2.40236 21.0678V20.4906Z" fill="#493336"/>
<path d="M2.44854 21.6219L3.63818 22.3261V22.7186L2.44854 22.0144V21.6219Z" fill="#8E8086"/>
<path d="M25.7447 6.06062L25.9872 4.73306L29.4176 2.75903L29.6486 3.80954L25.7447 6.06062Z" fill="#4E277A"/>
<path d="M21.2056 1.97403L24.6359 0L29.406 2.75902L25.9872 4.73305L21.2056 1.97403Z" fill="#6A4899"/>
<path d="M18.2027 10.5627L18.3297 10.505V11.1168H18.2027V10.5627Z" fill="#493336"/>
<path d="M15.9273 11.8904L16.0543 11.8326V12.4445H15.9273V11.8904Z" fill="#493336"/>
<path d="M2.33313 15.9653L3.02612 16.3578V16.7272L2.33313 16.3347V15.9653Z" fill="#3D2A2D"/>
<path d="M12.9127 13.7489L14.9917 12.5367L14.9801 18.101L12.8896 19.3015L12.9127 13.7489Z" fill="#7E676B"/>
<path opacity="0.5" d="M6.36407 21.622V19.4633L8.1543 18.205V20.583L6.36407 21.622Z" fill="#968387"/>
<path opacity="0.5" d="M19.0227 10.5397V13.241L15.1535 16.3348L15.1419 13.2756L19.0227 10.5397Z" fill="#968387"/>
<path opacity="0.5" d="M21.5752 8.73887L21.9563 8.51953V10.8976L19.2536 13.0563V10.3781L21.5752 8.73887Z" fill="#968387"/>
<path opacity="0.5" d="M28.5975 4.73303V5.59883L25.814 7.81528V6.27993L28.5975 4.73303Z" fill="#968387"/>
<path opacity="0.5" d="M8.3275 20.4906V18.0779L12.7511 14.9611V17.951L8.3275 20.4906Z" fill="#968387"/>
<path opacity="0.5" d="M25.6407 6.38379V7.95377L22.1411 10.7474V8.41553L25.6407 6.38379Z" fill="#968387"/>
<path opacity="0.5" d="M14.9917 13.3795L14.9801 16.4618L12.8896 18.1357L12.9012 14.8572L14.9917 13.3795Z" fill="#968387"/>
<path d="M13.906 13.0909H14.0331V18.8629H13.906V13.0909Z" fill="#493336"/>
<path d="M5.4516 22.3376L6.04065 22.6724V23.1573L5.4516 22.7994V22.3376Z" fill="#CCBEC2"/>
<path d="M1.0395 19.7402L1.62854 20.075V20.5483L1.0395 20.202V19.7402Z" fill="#CCBEC2"/>
<path d="M1.03952 19.7402L1.21277 19.8326V20.3059L1.03952 20.202V19.7402Z" fill="#FAB800"/>
<path d="M29.3713 2.73596L29.4291 2.75905V2.82831L25.9526 4.83697V4.70999L29.3713 2.73596Z" fill="#7F69A3"/>
<path d="M5.78642 16.3463L25.9525 4.70996V4.83695L5.78642 16.4733V16.3463Z" fill="#FFF5F8"/>
<path d="M18.3297 11.0015V11.5671L15.9273 12.9524V12.3867L18.3297 11.0015Z" fill="#493336"/>
<path d="M24.5667 1.07363L23.943 0.704224L23.3193 1.06209L23.943 1.4315L24.5667 1.07363Z" fill="#4E277A"/>
<path d="M24.5667 1.02742L23.943 0.669556L23.3308 0.91198L23.9545 1.28139L24.5667 1.02742Z" fill="#DDCAFC"/>
<path d="M17.7869 16.9467L16.2969 17.8125V16.9467L17.7869 16.0924V16.9467Z" fill="#EAA700"/>
<path d="M16.3547 16.9466L17.7291 16.15V16.9466L16.3547 17.7431V16.9466Z" fill="#FAB800"/>
<path d="M15.0086 17.1275L15.043 17.1876L12.8274 18.4543L12.793 18.3942L15.0086 17.1275Z" fill="#493336"/>
<path d="M12.8551 18.1357L15.0726 16.8658L15.038 16.8081L12.8204 18.0779L12.8551 18.1357Z" fill="#493336"/>
<path d="M15.0613 16.4478L15.0957 16.5079L12.8801 17.7749L12.8457 17.7148L15.0613 16.4478Z" fill="#493336"/>
<path d="M5.80965 22.5454L6.04065 22.6724V23.1572L5.80965 23.0187V22.5454Z" fill="#FAB800"/>
<path d="M4.16956 22.1645V21.4719L2.34467 20.3983V21.0794L4.16956 22.1645ZM4.06561 21.5296V21.9798L2.44862 21.0217V20.5715L4.06561 21.5296Z" fill="#CCBEC2"/>
<path d="M6.68737 18.4588C6.68737 18.4357 6.69892 18.4127 6.72202 18.4011C6.74512 18.3896 6.76822 18.3896 6.79132 18.4011L7.21866 18.6435C7.26486 18.6666 7.28796 18.7128 7.28796 18.759V20.0057C7.28796 20.0288 7.27641 20.0519 7.25331 20.0635C7.23021 20.075 7.20711 20.075 7.18401 20.0635L6.74512 19.8095C6.71047 19.7864 6.68737 19.7518 6.68737 19.7056V18.4588Z" fill="#4E277A"/>
<path d="M6.61816 18.4819C6.61816 18.4588 6.62971 18.4357 6.65281 18.4242C6.67591 18.4126 6.699 18.4126 6.7221 18.4242L7.14945 18.6666C7.19565 18.6897 7.21875 18.7359 7.21875 18.782V20.0288C7.21875 20.0519 7.2072 20.075 7.1841 20.0865C7.161 20.0981 7.1379 20.0981 7.1148 20.0865L6.67591 19.8326C6.64126 19.8095 6.61816 19.7748 6.61816 19.7287V18.4819Z" fill="#4E277A"/>
<path d="M6.92997 18.7937H6.99927V18.7706C6.99927 18.5051 6.99927 18.1472 6.36402 17.8009L6.32937 17.8702C6.91842 18.1934 6.91842 18.5166 6.91842 18.7706L6.92997 18.7937Z" fill="#4E277A"/>
<path d="M21.5868 8.66953L23.8737 7.35352V13.6104L21.5868 14.9264V8.66953Z" fill="#493336"/>
<path d="M21.7022 8.62343L23.7927 7.42285L23.7696 12.9755L21.6791 14.1876L21.7022 8.62343Z" fill="#7E676B"/>
<path opacity="0.5" d="M21.7022 8.62343L23.7927 7.42285L23.7812 9.43151L21.6906 11.0939L21.7022 8.62343Z" fill="#968387"/>
<path d="M22.6956 7.96533H22.8226V13.7373H22.6956V7.96533Z" fill="#493336"/>
<path d="M21.6214 13.3333L23.839 12.0635L23.8043 12.0057L21.5868 13.2756L21.6214 13.3333Z" fill="#493336"/>
<path d="M23.836 11.6854L23.8704 11.7455L21.6548 13.0122L21.6204 12.952L23.836 11.6854Z" fill="#493336"/>
<path d="M23.8545 11.3202L23.8889 11.3804L21.6733 12.6473L21.6389 12.5872L23.8545 11.3202Z" fill="#493336"/>
<path d="M10.3141 21.3796L24.7515 13.0448C24.7399 13.1025 24.7284 13.1602 24.7284 13.218L10.3488 21.5296C10.3372 21.4719 10.3372 21.4257 10.3141 21.3796Z" fill="#E7E3E4"/>
<path d="M2.7373 15.7806L2.79504 15.7922L2.668 16.277L2.6218 16.2655L2.7373 15.7806Z" fill="#3D2A2D"/>
<path d="M2.41383 20.6356L4.13782 21.6454L4.08526 21.735L2.36127 20.7253L2.41383 20.6356Z" fill="#CCBEC2"/>
<path d="M2.41757 20.81L4.14136 21.8199L4.08879 21.9096L2.36501 20.8996L2.41757 20.81Z" fill="#CCBEC2"/>
<path d="M2.49483 21.7028L3.56897 22.3377V22.6494L2.49483 22.0029V21.7028Z" fill="#B29EA5"/>
<path d="M3.3148 22.2684L3.52271 22.3954V22.557L3.3148 22.4301V22.2684Z" fill="#CCBEC2"/>
<path d="M3.04918 22.1183L3.25708 22.2453V22.3953L3.04918 22.2684V22.1183Z" fill="#CCBEC2"/>
<path d="M2.79515 21.9683L3.00305 22.0837V22.2453L2.79515 22.1183V21.9683Z" fill="#CCBEC2"/>
<path d="M2.541 21.8066L2.7489 21.9336V22.0837L2.541 21.9683V21.8066Z" fill="#CCBEC2"/>
</svg>
